<?xml version="1.0" encoding="UTF-8" standalone="no"?>
<!-- Created with Inkscape (http://www.inkscape.org/) -->

<svg
   xmlns:dc="http://purl.org/dc/elements/1.1/"
   xmlns:cc="http://creativecommons.org/ns#"
   xmlns:rdf="http://www.w3.org/1999/02/22-rdf-syntax-ns#"
   xmlns:svg="http://www.w3.org/2000/svg"
   xmlns="http://www.w3.org/2000/svg"
   xmlns:sodipodi="http://sodipodi.sourceforge.net/DTD/sodipodi-0.dtd"
   xmlns:inkscape="http://www.inkscape.org/namespaces/inkscape"
   width="187.92624mm"
   height="366.50644mm"
   viewBox="0 0 665.88037 1298.6449"
   id="svg5161"
   version="1.1"
   inkscape:version="0.91 r13725"
   sodipodi:docname="cyborg_insect.svg">
  <defs
     id="defs5163">
    <clipPath
       clipPathUnits="userSpaceOnUse"
       id="clipPath5902">
      <rect
         style="opacity:0.95;fill:#ffffff;fill-opacity:1;fill-rule:nonzero;stroke:#000000;stroke-width:3.56328392;stroke-linecap:round;stroke-miterlimit:4;stroke-dasharray:none;stroke-dashoffset:0;stroke-opacity:1"
         id="rect5904"
         width="221.22713"
         height="146.16037"
         x="-401.09753"
         y="919.60638"
         transform="scale(-1,1)" />
    </clipPath>
  </defs>
  <sodipodi:namedview
     id="base"
     pagecolor="#ffffff"
     bordercolor="#666666"
     borderopacity="1.0"
     inkscape:pageopacity="0.0"
     inkscape:pageshadow="2"
     inkscape:zoom="0.98994949"
     inkscape:cx="582.771"
     inkscape:cy="567.81187"
     inkscape:document-units="px"
     inkscape:current-layer="layer1"
     showgrid="false"
     inkscape:window-width="1920"
     inkscape:window-height="1056"
     inkscape:window-x="1920"
     inkscape:window-y="24"
     inkscape:window-maximized="1"
     fit-margin-top="0"
     fit-margin-left="0"
     fit-margin-right="0"
     fit-margin-bottom="0"
     showguides="false" />
  <metadata
     id="metadata5166">
    <rdf:RDF>
      <cc:Work
         rdf:about="">
        <dc:format>image/svg+xml</dc:format>
        <dc:type
           rdf:resource="http://purl.org/dc/dcmitype/StillImage" />
        <dc:title></dc:title>
      </cc:Work>
    </rdf:RDF>
  </metadata>
  <g
     inkscape:label="Layer 1"
     inkscape:groupmode="layer"
     id="layer1"
     transform="translate(7.0059254,248.75844)">
    <path
       style="fill:none;fill-rule:evenodd;stroke:#0009c3;stroke-width:7.4000001;stroke-linecap:round;stroke-linejoin:miter;stroke-miterlimit:4;stroke-dasharray:none;stroke-opacity:1"
       d="m 534.98978,239.00113 c 23.25911,-20.99158 16.50354,-43.06 7.13368,-51.01149"
       id="path4214"
       inkscape:connector-curvature="0" />
    <path
       style="fill:none;fill-rule:evenodd;stroke:#0009c3;stroke-width:7.4000001;stroke-linecap:round;stroke-linejoin:miter;stroke-miterlimit:4;stroke-dasharray:none;stroke-opacity:1"
       d="m 523.74095,167.81586 c -15.1781,-24.20643 -22.05273,-44.85126 7.96717,-60.97669"
       id="path4216"
       inkscape:connector-curvature="0" />
    <path
       style="fill:#dbdbdb;fill-opacity:1;fill-rule:evenodd;stroke:#4f4f4f;stroke-width:5;stroke-linecap:round;stroke-linejoin:miter;stroke-miterlimit:4;stroke-dasharray:none;stroke-opacity:1"
       d="m 511.55493,263.40789 23.45039,-192.296334 19.08451,2.30147 -22.57955,192.030434"
       id="path4148-5"
       inkscape:connector-curvature="0" />
    <path
       style="fill:#dbdbdb;fill-opacity:1;fill-rule:evenodd;stroke:#4f4f4f;stroke-width:5;stroke-linecap:round;stroke-linejoin:miter;stroke-miterlimit:4;stroke-dasharray:none;stroke-opacity:1"
       d="m 458.09202,636.66903 24.53397,-220.84279 38.99642,4.24903 -30.48571,218.31035"
       id="path4142-3"
       inkscape:connector-curvature="0" />
    <path
       style="fill:none;fill-rule:evenodd;stroke:#0009c3;stroke-width:7.4000001;stroke-linecap:round;stroke-linejoin:miter;stroke-miterlimit:4;stroke-dasharray:none;stroke-opacity:1"
       d="m 471.43945,501.7615 c -20.27717,-31.80071 13.48298,-58.36507 49.19729,-74.01422"
       id="path4208"
       inkscape:connector-curvature="0"
       sodipodi:nodetypes="cc" />
    <path
       style="fill:none;fill-rule:evenodd;stroke:#0009c3;stroke-width:7.4000001;stroke-linecap:round;stroke-linejoin:miter;stroke-miterlimit:4;stroke-dasharray:none;stroke-opacity:1"
       d="m 520.5772,428.45909 c 14.59844,-20.28239 20.66051,-58.48147 6.07775,-89.80592"
       id="path4210"
       inkscape:connector-curvature="0" />
    <path
       style="fill:none;fill-rule:evenodd;stroke:#0009c3;stroke-width:7.4000001;stroke-linecap:round;stroke-linejoin:miter;stroke-miterlimit:4;stroke-dasharray:none;stroke-opacity:1"
       d="m 502.22082,322.27393 c -15.29716,-22.78284 -18.1313,-66.02668 34.2521,-83.86554"
       id="path4212"
       inkscape:connector-curvature="0"
       sodipodi:nodetypes="cc" />
    <path
       style="fill:#dbdbdb;fill-opacity:1;fill-rule:evenodd;stroke:#4f4f4f;stroke-width:5;stroke-linecap:round;stroke-linejoin:miter;stroke-miterlimit:4;stroke-dasharray:none;stroke-opacity:1"
       d="m 514.84918,420.27926 20.21139,-154.2747 -26.95559,-2.12589 -20.56957,152.18397"
       id="path4146-7"
       inkscape:connector-curvature="0" />
    <path
       style="fill:none;fill-rule:evenodd;stroke:#0009c3;stroke-width:7.4000001;stroke-linecap:round;stroke-linejoin:miter;stroke-miterlimit:4;stroke-dasharray:none;stroke-opacity:1"
       d="m 527.95563,108.85484 c 38.7999,-18.630384 52.0733,-64.529774 29.83194,-129.571544"
       id="path4218"
       inkscape:connector-curvature="0"
       sodipodi:nodetypes="cc" />
    <path
       style="fill:none;fill-rule:evenodd;stroke:#0009c3;stroke-width:7.4000001;stroke-linecap:round;stroke-linejoin:miter;stroke-miterlimit:4;stroke-dasharray:none;stroke-opacity:1"
       d="m 553.31102,-27.183754 c -12.33093,-23.9683 -17.8795,-79.066486 8.59882,-89.953426"
       id="path4220"
       inkscape:connector-curvature="0"
       sodipodi:nodetypes="cc" />
    <path
       style="fill:#dbdbdb;fill-opacity:1;fill-rule:evenodd;stroke:#4f4f4f;stroke-width:5;stroke-linecap:round;stroke-linejoin:miter;stroke-miterlimit:4;stroke-dasharray:none;stroke-opacity:1"
       d="M 537.81116,71.426526 577.83857,-225.36451 550.84881,71.912726 c 0.0266,0.88237 0.10055,0.54327 -0.0486,1.04009 -0.0242,0.0807 -0.11247,0.16777 -0.0726,0.24188 0.0399,0.0741 0.16125,0.0484 0.24187,0.0726"
       id="path4150-3"
       inkscape:connector-curvature="0"
       sodipodi:nodetypes="cccccc" />
    <path
       style="fill:none;fill-rule:evenodd;stroke:#0009c3;stroke-width:7.4000001;stroke-linecap:round;stroke-linejoin:miter;stroke-miterlimit:4;stroke-dasharray:none;stroke-opacity:1"
       d="m 559.32923,-116.27785 c 55.89201,-46.93337 23.37064,-95.16895 23.37064,-95.16895"
       id="path4222"
       inkscape:connector-curvature="0"
       sodipodi:nodetypes="cc" />
    <ellipse
       style="fill:#ff0909;fill-opacity:1;fill-rule:nonzero;stroke:#444444;stroke-width:5;stroke-linecap:round;stroke-miterlimit:4;stroke-dasharray:none;stroke-dashoffset:0;stroke-opacity:1"
       id="path4179-5"
       cx="272.13528"
       cy="555.9057"
       rx="21.428572"
       ry="17.142857"
       transform="matrix(0.08334831,-0.99652048,0.99652048,0.08334831,0,0)" />
    <path
       style="fill:#ffffff;fill-opacity:1;fill-rule:evenodd;stroke:#000000;stroke-width:1px;stroke-linecap:butt;stroke-linejoin:miter;stroke-opacity:1"
       d="m 517.08923,860.83357 c -21.2132,-3.03046 -70.71068,-14.14213 -88.89342,-6.06091 -18.18275,8.08122 -25.25382,-192.93915 34.34518,-170.71579 59.59901,22.22335 68.69038,107.07618 54.54824,176.7767 z"
       id="path5780-3"
       inkscape:connector-curvature="0" />
    <ellipse
       style="opacity:0.95;fill:#000000;fill-opacity:1;fill-rule:nonzero;stroke:#000000;stroke-width:4.12914467;stroke-linecap:round;stroke-miterlimit:4;stroke-dasharray:none;stroke-dashoffset:0;stroke-opacity:1"
       id="path5816-1"
       cx="450.52805"
       cy="820.02716"
       rx="16.607521"
       ry="30.749657" />
    <path
       style="opacity:0.95;fill:#000000;fill-opacity:1;fill-rule:nonzero;stroke:#000000;stroke-width:2.99900007;stroke-linecap:round;stroke-miterlimit:4;stroke-dasharray:none;stroke-dashoffset:0;stroke-opacity:1"
       id="path5852"
       d="m 582.87571,916.41031 c 3.79743,1.01786 7.69628,1.60948 11.24835,3.35818 2.76169,1.25705 4.49412,1.52691 6.68738,3.77458 1.56499,1.88057 2.78824,3.97014 3.9914,6.09079 1.30638,1.59549 2.09667,3.51883 3.39491,5.11756 1.33189,1.59794 2.54533,3.266 3.66905,5.02368 0,0 -18.35622,10.71682 -18.35622,10.71682 l 0,0 c -1.10098,-1.69664 -2.28925,-3.30203 -3.5751,-4.86013 -1.29697,-1.72675 -2.2356,-3.6699 -3.53807,-5.39341 -1.09553,-1.94401 -2.17881,-3.88526 -3.6694,-5.56429 -1.79924,-1.59344 -4.16331,-2.0611 -6.24716,-3.2075 -3.48107,-1.44907 -7.1987,-2.2028 -10.90816,-2.81072 0,0 17.30302,-12.24556 17.30302,-12.24556 z"
       inkscape:connector-curvature="0" />
    <path
       style="fill:#a5a5a5;fill-opacity:1;fill-rule:evenodd;stroke:#000000;stroke-width:1px;stroke-linecap:butt;stroke-linejoin:miter;stroke-opacity:1"
       d="m 399.95927,614.63698 154.17454,40.27983 12.12183,190.41376 43.43656,31.31469 40.91118,62.6295 -24.24366,85.86294 -140.41121,79.297 -82.32743,18.1828"
       id="path5862"
       inkscape:connector-curvature="0"
       sodipodi:nodetypes="cccccccc" />
    <path
       style="fill:#414141;fill-opacity:1;fill-rule:evenodd;stroke:#000000;stroke-width:1px;stroke-linecap:butt;stroke-linejoin:miter;stroke-opacity:1"
       d="m 512.30123,862.31718 c -21.2132,-3.03046 -70.71068,-14.14213 -88.89342,-6.06091 -18.18274,8.08122 -25.25381,-192.93915 34.34518,-170.71578 59.59901,22.22334 68.69038,107.07617 54.54824,176.77669 z"
       id="path5780-4"
       inkscape:connector-curvature="0" />
    <ellipse
       style="opacity:0.95;fill:#f80000;fill-opacity:1;fill-rule:nonzero;stroke:none;stroke-width:4.12914467;stroke-linecap:round;stroke-miterlimit:4;stroke-dasharray:none;stroke-dashoffset:0;stroke-opacity:1"
       id="path5816-1-9-7"
       cx="-439.52966"
       cy="819.8501"
       rx="16.607521"
       ry="30.749657"
       transform="scale(-1,1)" />
    <path
       style="fill:#ffffff;fill-opacity:1;fill-rule:evenodd;stroke:#000000;stroke-width:1px;stroke-linecap:butt;stroke-linejoin:miter;stroke-opacity:1"
       d="m 401.20835,960.95786 174.28572,0.7143 0.71429,56.78574 -174.28572,0.7143 z"
       id="path5882"
       inkscape:connector-curvature="0" />
    <path
       style="fill:#977c29;fill-opacity:1;fill-rule:evenodd;stroke:#000000;stroke-width:1px;stroke-linecap:butt;stroke-linejoin:miter;stroke-opacity:1"
       d="m 404.64286,615.75506 c -53.75,3.75 -107.5,18.39286 -137.5,37.32143 -60,37.85714 -45.71429,125 -26.42857,209.28571 -43.57143,0 -159.285718,86.42858 -57.14286,185 l 220.59063,69.1225"
       id="path5717"
       inkscape:connector-curvature="0"
       sodipodi:nodetypes="scccc" />
    <path
       style="opacity:0.95;fill:#000000;fill-opacity:1;fill-rule:nonzero;stroke:#000000;stroke-width:2.99900007;stroke-linecap:round;stroke-miterlimit:4;stroke-dasharray:none;stroke-dashoffset:0;stroke-opacity:1"
       id="path5848"
       d="m 252.81868,968.75253 c 2.71893,2.4461 5.74499,4.4793 8.67528,6.6438 1.93501,1.3801 3.85412,2.7408 5.9098,3.9387 1.71177,1.2952 3.22001,2.825 5.04767,3.9669 1.97502,1.6267 4.19518,2.8535 6.12748,4.5344 1.86806,1.5604 3.7922,3.002 5.87164,4.2717 1.66086,1.6095 3.89229,2.3251 5.80068,3.5624 2.42343,1.1662 4.77144,2.4693 7.08026,3.8572 0.44525,0.2277 0.90452,0.4298 1.33574,0.68307 1.85901,1.0919 0.64278,0.5916 2.43138,1.5395 1.11271,0.5897 2.29768,0.9063 3.42072,1.4809 2.34341,1.1735 4.77242,2.2435 6.97568,3.6708 2.025,1.2411 4.26101,2.1192 6.27019,3.3719 1.9704,0.8337 3.95028,1.7175 6.00639,2.3443 1.96776,0.9015 3.83695,2.0341 5.87214,2.7777 2.42008,0.6888 4.77809,1.5327 7.10968,2.4773 2.41674,0.4867 4.54313,1.6696 6.7645,2.6749 0.39034,0.1361 0.79336,0.2403 1.17102,0.4084 3.55743,1.5838 -1.08763,-0.2507 2.23527,1.141 1.10753,0.4638 2.21391,0.6831 3.30759,1.1942 2.14959,1.2902 4.61939,1.798 6.8806,2.7989 2.53812,0.7161 4.90426,1.6714 7.31164,2.7466 2.7443,0.9332 5.44757,1.9522 8.29867,2.5197 2.90118,0.1861 5.704,0.7891 8.55692,1.3032 2.66691,0.1411 5.13583,1.1343 7.74255,1.6119 2.34426,0.4689 4.56503,1.2776 6.96023,1.592 2.68407,0.4464 5.29977,-0.349 7.9528,-0.7029 2.86812,-0.347 5.75904,-0.4065 8.64439,-0.4473 2.86386,-0.026 5.72788,-0.017 8.59181,-0.014 2.8666,0.3195 5.36195,-0.4919 7.94509,-1.5739 2.41699,-0.5088 4.66721,-1.4477 7.04622,-2.073 2.50018,-0.6938 5.16273,-0.2265 7.63435,-0.9333 2.28936,-0.429 4.22757,-1.5945 6.50981,-2.0819 0.88154,-0.7273 2.06621,-0.7962 3.05932,-1.2414 1.02146,-0.4579 1.82439,-1.0221 2.92003,-1.377 2.10463,-1.1494 4.46043,-1.957 6.42403,-3.336 8.58316,-4.4785 -23.61902,13.5993 -15.41192,8.7985 9.11271,-5.3307 13.12171,-10.1077 21.42353,-11.5749 0.92915,-0.6847 2.13435,-0.721 3.15583,-1.1434 1.03058,-0.4262 1.87343,-0.9883 2.96659,-1.3296 1.12234,-1.1032 2.65643,-1.1577 4.02979,-1.6652 0.67559,-0.2496 1.28378,-0.6571 1.95039,-0.9298 2.36662,-0.7504 4.63382,-1.7027 6.90751,-2.6864 2.43538,-0.841 4.78744,-1.8257 7.14341,-2.8536 0.39474,-0.126 0.78417,-0.27 1.18423,-0.3779 0.8264,-0.2229 1.69907,-0.2428 2.52459,-0.4689 0.36887,-0.1011 1.38836,-0.6378 1.05625,-0.4481 -38.32309,21.8892 -22.0713,12.4872 -16.4912,9.2573 1.80409,-1.1283 3.21172,-2.7597 4.81967,-4.1412 6.46671,-5.1469 13.41971,-7.724 21.00885,-12.60407 5.56868,-3.5809 -11.45949,6.63427 -17.20761,9.91937 -1.92115,1.098 1.15817,-0.7541 1.97045,-1.2445 64.25105,-36.92127 -11.78737,6.6799 3.12254,-1.9422 6.39956,-3.7008 12.81976,-7.36577 19.24059,-11.02947 5.74674,-3.2791 -22.81055,13.41167 -17.2183,9.87547 6.22703,-3.9375 12.74951,-7.38717 19.12427,-11.08067 -31.43578,18.58857 -19.05974,11.45207 -12.50089,6.60257 39.30185,-22.73617 12.70895,-7.33047 1.97341,-1.19987 -0.3242,0.18507 0.62382,-0.4105 0.94101,-0.6073 0.59426,-0.3689 1.13634,-0.8193 1.73926,-1.1738 6.34394,-3.7302 12.72996,-7.3884 19.09494,-11.0826 2.07413,-0.6551 3.98464,-1.7103 5.95093,-2.6366 -26.37697,16.99097 -19.84118,13.0025 -13.89522,6.4286 1.56017,-1.8239 3.06019,-3.7054 4.76803,-5.398 1.66044,-1.613 3.2786,-3.2758 4.99237,-4.8321 1.3577,-1.5653 2.94511,-2.8199 4.58298,-4.0616 1.29481,-1.5652 3.03994,-2.6269 4.53465,-3.9737 1.29895,-1.5659 2.47738,-3.2298 3.87241,-4.71306 1.34542,-1.51225 2.71804,-3.01706 4.20121,-4.39762 1.13117,-1.69541 2.70573,-3.00893 3.93089,-4.62276 0.84851,-0.9966 0.44783,-0.48184 1.20264,-1.54379 0,0 19.39536,-8.68797 19.39536,-8.68797 l 0,0 c -0.58474,1.37823 -0.2412,0.73067 -1.01911,1.94875 -1.601,1.63561 0.20976,-0.32891 -1.2432,1.65455 -0.82288,1.12333 -2.31787,1.51132 -2.66116,3.03037 -1.24696,1.58015 -2.84619,2.86319 -4.24217,4.30205 -1.20204,1.63153 -2.72702,2.99239 -3.89741,4.65549 -1.06901,1.87755 -2.84025,2.81062 -4.46134,4.14353 -1.20532,1.75276 -3.21337,2.45226 -4.58532,4.07916 -1.47406,1.7966 -3.35575,3.2498 -5.03237,4.8532 -2.89599,3.2346 1.09431,-1.1225 -1.90758,1.841 -0.82742,0.8168 -1.37655,1.8646 -2.15308,2.7139 -0.2192,0.2398 -0.49148,0.4249 -0.73722,0.6373 -2.03576,2.9789 0.82341,-1.0703 -1.31016,1.5432 -6.11682,7.4928 -1.79809,5.9566 -20.9417,13.6578 -1.92684,0.975 -3.99317,1.6693 -5.88561,2.71667 12.03197,-7.02287 23.01803,-14.12427 15.53025,-8.71527 -10.67099,7.7085 -39.57358,21.91957 -2.97583,1.6817 -7.87801,4.9612 -14.12993,11.76147 -23.76995,14.52187 44.61101,-25.86547 -0.51882,0.3074 -1.96133,1.1154 -5.75403,3.223 11.40322,-6.6296 17.10863,-9.93787 0.34519,-0.2002 -0.68375,0.4116 -1.02787,0.6135 -6.37999,3.74457 -12.89376,7.26937 -19.14445,11.22597 -5.55235,3.5146 11.36535,-6.5993 17.04803,-9.899 -6.55442,4.4009 -16.23552,9.5357 -21.05606,12.3676 -5.69476,3.3454 11.39093,-6.6885 17.10202,-10.006 0.68054,-0.3953 -2.75734,1.6762 -1.85824,1.4566 -1.8683,1.0978 -3.32308,2.657 -4.75066,4.2508 -6.8133,4.6667 -3.28838,2.2895 -20.10454,11.441 -1.35416,0.737 -3.34106,0.4326 -4.62076,1.4637 -2.34707,1.0325 -4.80976,1.7925 -7.15039,2.8476 -2.27466,0.9859 -4.66426,1.693 -6.94227,2.6767 -2.0069,0.8522 -4.0737,1.5491 -6.02375,2.5354 -2.02686,0.9043 -4.10178,1.6965 -6.23816,2.3063 -0.69182,0.2612 -2.66015,1.2864 -2.02204,0.9127 36.61026,-21.4419 7.2238,-4.0454 -3.65652,2.2932 -2.2153,1.0185 -4.3101,2.2862 -6.61974,3.1026 -1.98074,0.9415 -4.00284,1.8175 -6.1117,2.4317 -2.18165,0.7514 -4.29421,1.6758 -6.62132,1.916 -2.52063,0.2041 -5.07619,0.3111 -7.49278,1.1358 -2.30199,0.7832 -4.67761,1.284 -6.94382,2.1761 -2.72009,0.9131 -5.52927,1.0668 -8.38511,0.9476 -2.85465,0 -5.7097,-0.01 -8.56388,0.052 -2.8402,0.081 -5.68314,0.2158 -8.49517,0.6501 -2.78751,0.4151 -5.55533,0.8403 -8.35519,0.2008 -2.36627,-0.4629 -4.62971,-1.2918 -7.01398,-1.6689 -2.55151,-0.6018 -5.06601,-1.3211 -7.68545,-1.5923 -2.86032,-0.55 -5.7462,-0.8328 -8.60561,-1.3759 -2.9032,-0.75 -5.74564,-1.7472 -8.52931,-2.8569 -2.38323,-1.0545 -4.88334,-1.6857 -7.29756,-2.6589 -2.35558,-0.8289 -4.64826,-1.7575 -6.91092,-2.8169 -2.30058,-0.8296 -4.50883,-1.8227 -6.74046,-2.8209 -2.18203,-1.0263 -4.41819,-1.8491 -6.71246,-2.5862 -2.33991,-0.9433 -4.78048,-1.592 -7.14095,-2.4819 -1.93087,-0.8914 -3.81734,-1.8819 -5.79471,-2.6714 -2.11079,-0.8068 -4.26848,-1.5529 -6.2339,-2.6777 -2.11345,-1.1008 -4.21384,-2.2273 -6.26489,-3.4413 -2.23155,-1.2709 -4.55998,-2.3684 -6.87624,-3.4752 -2.52426,-1.1101 -4.87389,-2.4617 -7.23699,-3.8805 -2.3592,-1.333 -4.76853,-2.5582 -7.14337,-3.857 -2.00475,-1.1158 -4.10128,-2.0808 -5.8464,-3.6053 -2.07574,-1.4054 -4.07748,-2.8808 -5.98242,-4.51197 -1.93465,-1.5477 -4.08795,-2.784 -6.02651,-4.3306 -1.73164,-1.2272 -3.28237,-2.6699 -5.02122,-3.887 -2.03081,-1.3104 -4.01627,-2.662 -5.93791,-4.1288 -2.92292,-2.1384 -5.7333,-4.4085 -8.66622,-6.534 0,0 17.8725,-11.4436 17.8725,-11.4436 z"
       inkscape:connector-curvature="0"
       clip-path="url(#clipPath5902)"
       transform="matrix(1.0179517,0,0,1,-4.1698938,0)" />
    <path
       style="fill:#482300;fill-opacity:1;fill-rule:evenodd;stroke:#000000;stroke-width:1px;stroke-linecap:butt;stroke-linejoin:miter;stroke-opacity:1"
       d="m 306.14326,652.92261 c -12.04551,-19.96956 -43.9938,-55.14394 -30.88643,-55.94757 13.10737,-0.80364 30.76231,-8.57144 37.15382,-17.33218 6.39152,-8.76074 17.82211,51.10445 19.33606,59.92544"
       id="path5709"
       inkscape:connector-curvature="0"
       sodipodi:nodetypes="cssc" />
    <path
       style="fill:#ffffff;fill-opacity:1;fill-rule:evenodd;stroke:#000000;stroke-width:1px;stroke-linecap:butt;stroke-linejoin:miter;stroke-opacity:1"
       d="m 284.82241,860.47383 c 21.2132,-3.03046 70.71068,-14.14213 88.89342,-6.06091 18.18275,8.08122 25.25382,-192.93914 -34.34518,-170.71578 -59.59901,22.22335 -68.69038,107.07617 -54.54824,176.77669 z"
       id="path5780"
       inkscape:connector-curvature="0" />
    <path
       style="fill:#8d4200;fill-opacity:1;fill-rule:evenodd;stroke:#000000;stroke-width:1.00406396px;stroke-linecap:butt;stroke-linejoin:miter;stroke-opacity:1"
       d="m 311.76312,585.57827 c 0,0 -155.09813,-378.4127 -187.06858,-453.49244 C 92.724099,57.0061 -6.5375137,-200.40257 -6.5375137,-200.40257 c 0,0 91.7401057,236.406069 131.1839737,352.36493 39.44388,115.95885 155.68927,447.46253 155.68927,447.46253"
       id="path5713"
       inkscape:connector-curvature="0"
       sodipodi:nodetypes="cscsc" />
    <ellipse
       style="opacity:0.95;fill:#000000;fill-opacity:1;fill-rule:nonzero;stroke:#000000;stroke-width:2.99900007;stroke-linecap:round;stroke-miterlimit:4;stroke-dasharray:none;stroke-dashoffset:0;stroke-opacity:1"
       id="path5816"
       cx="357.59399"
       cy="825.07788"
       rx="11.111678"
       ry="24.243662" />
    <ellipse
       style="opacity:0.95;fill:#000000;fill-opacity:1;fill-rule:nonzero;stroke:#000000;stroke-width:4.12914467;stroke-linecap:round;stroke-miterlimit:4;stroke-dasharray:none;stroke-dashoffset:0;stroke-opacity:1"
       id="path5816-1-9"
       cx="357.59399"
       cy="818.00677"
       rx="16.607521"
       ry="30.749657" />
    <path
       style="opacity:0.95;fill:#000000;fill-opacity:1;fill-rule:nonzero;stroke:#000000;stroke-width:2.99900007;stroke-linecap:round;stroke-miterlimit:4;stroke-dasharray:none;stroke-dashoffset:0;stroke-opacity:1"
       id="path5850"
       d="m 196.6765,968.44746 c 2.08378,-3.13844 3.62986,-6.61307 5.15016,-10.0524 0.42642,-0.9507 0.70112,-1.68176 1.28665,-2.54289 0.58832,-0.86523 1.58335,-1.89007 2.49838,-2.42422 6.3631,-3.7145 12.78762,-7.32278 19.18143,-10.98416 -58.21962,33.24461 44.8826,-25.46613 -12.62825,7.52807 7.74429,-5.02141 15.63721,-10.82673 24.72708,-13.1229 2.61468,-0.79695 5.16713,-0.0844 7.77887,0.2783 2.63993,0.32774 5.3026,0.37957 7.95917,0.4215 2.63297,-0.0798 5.32172,0.26088 7.73784,1.34304 1.3716,0.575 0.6819,0.31845 2.0679,0.77285 0,0 -17.59886,11.8938 -17.59886,11.8938 l 0,0 c -1.416,-0.53578 -0.72183,-0.27133 -2.08264,-0.793 -2.39701,-0.64568 -4.81343,-0.8919 -7.29809,-0.79785 -2.71582,-0.0786 -5.43439,-0.20179 -8.1252,-0.60305 -2.47879,-0.34212 -4.82426,-0.49875 -7.22084,0.44593 -1.20117,0.42582 -2.42766,0.85521 -3.59235,1.37474 -0.32785,0.14624 -1.26696,0.67505 -0.95714,0.4937 19.26581,-11.27777 22.80453,-13.50125 16.38556,-9.49108 -6.3408,3.70546 -12.67542,7.4215 -19.02238,11.11639 -1.33616,0.77784 -0.5056,0.24929 -1.91625,0.90408 -0.32334,0.15009 -1.25737,0.67185 -0.94913,0.49279 13.38612,-7.77606 34.36634,-19.77124 -1.86959,0.99492 39.01146,-22.72628 19.27767,-12.02121 14.40324,-8.24822 -0.8721,0.67503 -1.00227,1.13698 -1.55349,2.0955 -1.40208,3.56484 -3.23561,6.96141 -4.91944,10.39736 0,0 -19.44263,8.5068 -19.44263,8.5068 z"
       inkscape:connector-curvature="0" />
    <path
       style="fill:none;fill-rule:evenodd;stroke:#000000;stroke-width:1px;stroke-linecap:butt;stroke-linejoin:miter;stroke-opacity:1"
       d="m 403.62108,1012.5109 19.69797,-35.35544 16.16245,31.81984 19.1929,-32.3249 15.15229,29.2944 17.17259,-29.2944"
       id="path5906"
       inkscape:connector-curvature="0" />
    <path
       style="fill:none;fill-rule:evenodd;stroke:#000000;stroke-width:1px;stroke-linecap:butt;stroke-linejoin:miter;stroke-opacity:1"
       d="m 489.48405,977.15546 14.64721,27.77924 15.15229,-29.29445 17.67767,33.84015 11.61675,-33.33508 14.14214,28.28428 13.13198,-27.27413"
       id="path5908"
       inkscape:connector-curvature="0" />
  </g>
</svg>
