<?xml version="1.0" encoding="utf-8" standalone="no"?>
<!DOCTYPE svg PUBLIC "-//W3C//DTD SVG 1.1//EN"
  "http://www.w3.org/Graphics/SVG/1.1/DTD/svg11.dtd">
<!-- Created with matplotlib (http://matplotlib.org/) -->
<svg height="351pt" version="1.1" viewBox="0 0 460 351" width="460pt" xmlns="http://www.w3.org/2000/svg" xmlns:xlink="http://www.w3.org/1999/xlink">
 <defs>
  <style type="text/css">
*{stroke-linecap:butt;stroke-linejoin:round;}
  </style>
 </defs>
 <g id="figure_1">
  <g id="patch_1">
   <path d="M 0 351.36 
L 460.8 351.36 
L 460.8 0 
L 0 0 
z
" style="fill:#ffffff;"/>
  </g>
  <g id="axes_1">
   <g id="patch_2">
    <path d="M 57.6 150.582857 
L 415.817143 150.582857 
L 415.817143 42.1632 
L 57.6 42.1632 
z
" style="fill:#ffffff;"/>
   </g>
   <g id="matplotlib.axis_1">
    <g id="xtick_1">
     <g id="line2d_1">
      <defs>
       <path d="M 0 0 
L 0 3.5 
" id="ma1e939fe98" style="stroke:#000000;stroke-width:0.8;"/>
      </defs>
      <g>
       <use style="stroke:#000000;stroke-width:0.8;" x="92.391092" xlink:href="#ma1e939fe98" y="150.582857"/>
      </g>
     </g>
     <g id="text_1">
      <!-- 5.21 -->
      <defs>
       <path d="M 10.796875 72.90625 
L 49.515625 72.90625 
L 49.515625 64.59375 
L 19.828125 64.59375 
L 19.828125 46.734375 
Q 21.96875 47.46875 24.109375 47.828125 
Q 26.265625 48.1875 28.421875 48.1875 
Q 40.625 48.1875 47.75 41.5 
Q 54.890625 34.8125 54.890625 23.390625 
Q 54.890625 11.625 47.5625 5.09375 
Q 40.234375 -1.421875 26.90625 -1.421875 
Q 22.3125 -1.421875 17.546875 -0.640625 
Q 12.796875 0.140625 7.71875 1.703125 
L 7.71875 11.625 
Q 12.109375 9.234375 16.796875 8.0625 
Q 21.484375 6.890625 26.703125 6.890625 
Q 35.15625 6.890625 40.078125 11.328125 
Q 45.015625 15.765625 45.015625 23.390625 
Q 45.015625 31 40.078125 35.4375 
Q 35.15625 39.890625 26.703125 39.890625 
Q 22.75 39.890625 18.8125 39.015625 
Q 14.890625 38.140625 10.796875 36.28125 
z
" id="DejaVuSans-35"/>
       <path d="M 10.6875 12.40625 
L 21 12.40625 
L 21 0 
L 10.6875 0 
z
" id="DejaVuSans-2e"/>
       <path d="M 19.1875 8.296875 
L 53.609375 8.296875 
L 53.609375 0 
L 7.328125 0 
L 7.328125 8.296875 
Q 12.9375 14.109375 22.625 23.890625 
Q 32.328125 33.6875 34.8125 36.53125 
Q 39.546875 41.84375 41.421875 45.53125 
Q 43.3125 49.21875 43.3125 52.78125 
Q 43.3125 58.59375 39.234375 62.25 
Q 35.15625 65.921875 28.609375 65.921875 
Q 23.96875 65.921875 18.8125 64.3125 
Q 13.671875 62.703125 7.8125 59.421875 
L 7.8125 69.390625 
Q 13.765625 71.78125 18.9375 73 
Q 24.125 74.21875 28.421875 74.21875 
Q 39.75 74.21875 46.484375 68.546875 
Q 53.21875 62.890625 53.21875 53.421875 
Q 53.21875 48.921875 51.53125 44.890625 
Q 49.859375 40.875 45.40625 35.40625 
Q 44.1875 33.984375 37.640625 27.21875 
Q 31.109375 20.453125 19.1875 8.296875 
z
" id="DejaVuSans-32"/>
       <path d="M 12.40625 8.296875 
L 28.515625 8.296875 
L 28.515625 63.921875 
L 10.984375 60.40625 
L 10.984375 69.390625 
L 28.421875 72.90625 
L 38.28125 72.90625 
L 38.28125 8.296875 
L 54.390625 8.296875 
L 54.390625 0 
L 12.40625 0 
z
" id="DejaVuSans-31"/>
      </defs>
      <g transform="translate(81.25828 165.181295)scale(0.1 -0.1)">
       <use xlink:href="#DejaVuSans-35"/>
       <use x="63.623047" xlink:href="#DejaVuSans-2e"/>
       <use x="95.410156" xlink:href="#DejaVuSans-32"/>
       <use x="159.033203" xlink:href="#DejaVuSans-31"/>
      </g>
     </g>
    </g>
    <g id="xtick_2">
     <g id="line2d_2">
      <g>
       <use style="stroke:#000000;stroke-width:0.8;" x="139.906662" xlink:href="#ma1e939fe98" y="150.582857"/>
      </g>
     </g>
     <g id="text_2">
      <!-- 5.22 -->
      <g transform="translate(128.773849 165.181295)scale(0.1 -0.1)">
       <use xlink:href="#DejaVuSans-35"/>
       <use x="63.623047" xlink:href="#DejaVuSans-2e"/>
       <use x="95.410156" xlink:href="#DejaVuSans-32"/>
       <use x="159.033203" xlink:href="#DejaVuSans-32"/>
      </g>
     </g>
    </g>
    <g id="xtick_3">
     <g id="line2d_3">
      <g>
       <use style="stroke:#000000;stroke-width:0.8;" x="187.422231" xlink:href="#ma1e939fe98" y="150.582857"/>
      </g>
     </g>
     <g id="text_3">
      <!-- 5.23 -->
      <defs>
       <path d="M 40.578125 39.3125 
Q 47.65625 37.796875 51.625 33 
Q 55.609375 28.21875 55.609375 21.1875 
Q 55.609375 10.40625 48.1875 4.484375 
Q 40.765625 -1.421875 27.09375 -1.421875 
Q 22.515625 -1.421875 17.65625 -0.515625 
Q 12.796875 0.390625 7.625 2.203125 
L 7.625 11.71875 
Q 11.71875 9.328125 16.59375 8.109375 
Q 21.484375 6.890625 26.8125 6.890625 
Q 36.078125 6.890625 40.9375 10.546875 
Q 45.796875 14.203125 45.796875 21.1875 
Q 45.796875 27.640625 41.28125 31.265625 
Q 36.765625 34.90625 28.71875 34.90625 
L 20.21875 34.90625 
L 20.21875 43.015625 
L 29.109375 43.015625 
Q 36.375 43.015625 40.234375 45.921875 
Q 44.09375 48.828125 44.09375 54.296875 
Q 44.09375 59.90625 40.109375 62.90625 
Q 36.140625 65.921875 28.71875 65.921875 
Q 24.65625 65.921875 20.015625 65.03125 
Q 15.375 64.15625 9.8125 62.3125 
L 9.8125 71.09375 
Q 15.4375 72.65625 20.34375 73.4375 
Q 25.25 74.21875 29.59375 74.21875 
Q 40.828125 74.21875 47.359375 69.109375 
Q 53.90625 64.015625 53.90625 55.328125 
Q 53.90625 49.265625 50.4375 45.09375 
Q 46.96875 40.921875 40.578125 39.3125 
z
" id="DejaVuSans-33"/>
      </defs>
      <g transform="translate(176.289419 165.181295)scale(0.1 -0.1)">
       <use xlink:href="#DejaVuSans-35"/>
       <use x="63.623047" xlink:href="#DejaVuSans-2e"/>
       <use x="95.410156" xlink:href="#DejaVuSans-32"/>
       <use x="159.033203" xlink:href="#DejaVuSans-33"/>
      </g>
     </g>
    </g>
    <g id="xtick_4">
     <g id="line2d_4">
      <g>
       <use style="stroke:#000000;stroke-width:0.8;" x="234.937801" xlink:href="#ma1e939fe98" y="150.582857"/>
      </g>
     </g>
     <g id="text_4">
      <!-- 5.24 -->
      <defs>
       <path d="M 37.796875 64.3125 
L 12.890625 25.390625 
L 37.796875 25.390625 
z
M 35.203125 72.90625 
L 47.609375 72.90625 
L 47.609375 25.390625 
L 58.015625 25.390625 
L 58.015625 17.1875 
L 47.609375 17.1875 
L 47.609375 0 
L 37.796875 0 
L 37.796875 17.1875 
L 4.890625 17.1875 
L 4.890625 26.703125 
z
" id="DejaVuSans-34"/>
      </defs>
      <g transform="translate(223.804988 165.181295)scale(0.1 -0.1)">
       <use xlink:href="#DejaVuSans-35"/>
       <use x="63.623047" xlink:href="#DejaVuSans-2e"/>
       <use x="95.410156" xlink:href="#DejaVuSans-32"/>
       <use x="159.033203" xlink:href="#DejaVuSans-34"/>
      </g>
     </g>
    </g>
    <g id="xtick_5">
     <g id="line2d_5">
      <g>
       <use style="stroke:#000000;stroke-width:0.8;" x="282.45337" xlink:href="#ma1e939fe98" y="150.582857"/>
      </g>
     </g>
     <g id="text_5">
      <!-- 5.25 -->
      <g transform="translate(271.320558 165.181295)scale(0.1 -0.1)">
       <use xlink:href="#DejaVuSans-35"/>
       <use x="63.623047" xlink:href="#DejaVuSans-2e"/>
       <use x="95.410156" xlink:href="#DejaVuSans-32"/>
       <use x="159.033203" xlink:href="#DejaVuSans-35"/>
      </g>
     </g>
    </g>
    <g id="xtick_6">
     <g id="line2d_6">
      <g>
       <use style="stroke:#000000;stroke-width:0.8;" x="329.96894" xlink:href="#ma1e939fe98" y="150.582857"/>
      </g>
     </g>
     <g id="text_6">
      <!-- 5.26 -->
      <defs>
       <path d="M 33.015625 40.375 
Q 26.375 40.375 22.484375 35.828125 
Q 18.609375 31.296875 18.609375 23.390625 
Q 18.609375 15.53125 22.484375 10.953125 
Q 26.375 6.390625 33.015625 6.390625 
Q 39.65625 6.390625 43.53125 10.953125 
Q 47.40625 15.53125 47.40625 23.390625 
Q 47.40625 31.296875 43.53125 35.828125 
Q 39.65625 40.375 33.015625 40.375 
z
M 52.59375 71.296875 
L 52.59375 62.3125 
Q 48.875 64.0625 45.09375 64.984375 
Q 41.3125 65.921875 37.59375 65.921875 
Q 27.828125 65.921875 22.671875 59.328125 
Q 17.53125 52.734375 16.796875 39.40625 
Q 19.671875 43.65625 24.015625 45.921875 
Q 28.375 48.1875 33.59375 48.1875 
Q 44.578125 48.1875 50.953125 41.515625 
Q 57.328125 34.859375 57.328125 23.390625 
Q 57.328125 12.15625 50.6875 5.359375 
Q 44.046875 -1.421875 33.015625 -1.421875 
Q 20.359375 -1.421875 13.671875 8.265625 
Q 6.984375 17.96875 6.984375 36.375 
Q 6.984375 53.65625 15.1875 63.9375 
Q 23.390625 74.21875 37.203125 74.21875 
Q 40.921875 74.21875 44.703125 73.484375 
Q 48.484375 72.75 52.59375 71.296875 
z
" id="DejaVuSans-36"/>
      </defs>
      <g transform="translate(318.836127 165.181295)scale(0.1 -0.1)">
       <use xlink:href="#DejaVuSans-35"/>
       <use x="63.623047" xlink:href="#DejaVuSans-2e"/>
       <use x="95.410156" xlink:href="#DejaVuSans-32"/>
       <use x="159.033203" xlink:href="#DejaVuSans-36"/>
      </g>
     </g>
    </g>
    <g id="xtick_7">
     <g id="line2d_7">
      <g>
       <use style="stroke:#000000;stroke-width:0.8;" x="377.484509" xlink:href="#ma1e939fe98" y="150.582857"/>
      </g>
     </g>
     <g id="text_7">
      <!-- 5.27 -->
      <defs>
       <path d="M 8.203125 72.90625 
L 55.078125 72.90625 
L 55.078125 68.703125 
L 28.609375 0 
L 18.3125 0 
L 43.21875 64.59375 
L 8.203125 64.59375 
z
" id="DejaVuSans-37"/>
      </defs>
      <g transform="translate(366.351697 165.181295)scale(0.1 -0.1)">
       <use xlink:href="#DejaVuSans-35"/>
       <use x="63.623047" xlink:href="#DejaVuSans-2e"/>
       <use x="95.410156" xlink:href="#DejaVuSans-32"/>
       <use x="159.033203" xlink:href="#DejaVuSans-37"/>
      </g>
     </g>
    </g>
    <g id="text_8">
     <!-- Time [sec] -->
     <defs>
      <path d="M -0.296875 72.90625 
L 61.375 72.90625 
L 61.375 64.59375 
L 35.5 64.59375 
L 35.5 0 
L 25.59375 0 
L 25.59375 64.59375 
L -0.296875 64.59375 
z
" id="DejaVuSans-54"/>
      <path d="M 9.421875 54.6875 
L 18.40625 54.6875 
L 18.40625 0 
L 9.421875 0 
z
M 9.421875 75.984375 
L 18.40625 75.984375 
L 18.40625 64.59375 
L 9.421875 64.59375 
z
" id="DejaVuSans-69"/>
      <path d="M 52 44.1875 
Q 55.375 50.25 60.0625 53.125 
Q 64.75 56 71.09375 56 
Q 79.640625 56 84.28125 50.015625 
Q 88.921875 44.046875 88.921875 33.015625 
L 88.921875 0 
L 79.890625 0 
L 79.890625 32.71875 
Q 79.890625 40.578125 77.09375 44.375 
Q 74.3125 48.1875 68.609375 48.1875 
Q 61.625 48.1875 57.5625 43.546875 
Q 53.515625 38.921875 53.515625 30.90625 
L 53.515625 0 
L 44.484375 0 
L 44.484375 32.71875 
Q 44.484375 40.625 41.703125 44.40625 
Q 38.921875 48.1875 33.109375 48.1875 
Q 26.21875 48.1875 22.15625 43.53125 
Q 18.109375 38.875 18.109375 30.90625 
L 18.109375 0 
L 9.078125 0 
L 9.078125 54.6875 
L 18.109375 54.6875 
L 18.109375 46.1875 
Q 21.1875 51.21875 25.484375 53.609375 
Q 29.78125 56 35.6875 56 
Q 41.65625 56 45.828125 52.96875 
Q 50 49.953125 52 44.1875 
z
" id="DejaVuSans-6d"/>
      <path d="M 56.203125 29.59375 
L 56.203125 25.203125 
L 14.890625 25.203125 
Q 15.484375 15.921875 20.484375 11.0625 
Q 25.484375 6.203125 34.421875 6.203125 
Q 39.59375 6.203125 44.453125 7.46875 
Q 49.3125 8.734375 54.109375 11.28125 
L 54.109375 2.78125 
Q 49.265625 0.734375 44.1875 -0.34375 
Q 39.109375 -1.421875 33.890625 -1.421875 
Q 20.796875 -1.421875 13.15625 6.1875 
Q 5.515625 13.8125 5.515625 26.8125 
Q 5.515625 40.234375 12.765625 48.109375 
Q 20.015625 56 32.328125 56 
Q 43.359375 56 49.78125 48.890625 
Q 56.203125 41.796875 56.203125 29.59375 
z
M 47.21875 32.234375 
Q 47.125 39.59375 43.09375 43.984375 
Q 39.0625 48.390625 32.421875 48.390625 
Q 24.90625 48.390625 20.390625 44.140625 
Q 15.875 39.890625 15.1875 32.171875 
z
" id="DejaVuSans-65"/>
      <path id="DejaVuSans-20"/>
      <path d="M 8.59375 75.984375 
L 29.296875 75.984375 
L 29.296875 69 
L 17.578125 69 
L 17.578125 -6.203125 
L 29.296875 -6.203125 
L 29.296875 -13.1875 
L 8.59375 -13.1875 
z
" id="DejaVuSans-5b"/>
      <path d="M 44.28125 53.078125 
L 44.28125 44.578125 
Q 40.484375 46.53125 36.375 47.5 
Q 32.28125 48.484375 27.875 48.484375 
Q 21.1875 48.484375 17.84375 46.4375 
Q 14.5 44.390625 14.5 40.28125 
Q 14.5 37.15625 16.890625 35.375 
Q 19.28125 33.59375 26.515625 31.984375 
L 29.59375 31.296875 
Q 39.15625 29.25 43.1875 25.515625 
Q 47.21875 21.78125 47.21875 15.09375 
Q 47.21875 7.46875 41.1875 3.015625 
Q 35.15625 -1.421875 24.609375 -1.421875 
Q 20.21875 -1.421875 15.453125 -0.5625 
Q 10.6875 0.296875 5.421875 2 
L 5.421875 11.28125 
Q 10.40625 8.6875 15.234375 7.390625 
Q 20.0625 6.109375 24.8125 6.109375 
Q 31.15625 6.109375 34.5625 8.28125 
Q 37.984375 10.453125 37.984375 14.40625 
Q 37.984375 18.0625 35.515625 20.015625 
Q 33.0625 21.96875 24.703125 23.78125 
L 21.578125 24.515625 
Q 13.234375 26.265625 9.515625 29.90625 
Q 5.8125 33.546875 5.8125 39.890625 
Q 5.8125 47.609375 11.28125 51.796875 
Q 16.75 56 26.8125 56 
Q 31.78125 56 36.171875 55.265625 
Q 40.578125 54.546875 44.28125 53.078125 
z
" id="DejaVuSans-73"/>
      <path d="M 48.78125 52.59375 
L 48.78125 44.1875 
Q 44.96875 46.296875 41.140625 47.34375 
Q 37.3125 48.390625 33.40625 48.390625 
Q 24.65625 48.390625 19.8125 42.84375 
Q 14.984375 37.3125 14.984375 27.296875 
Q 14.984375 17.28125 19.8125 11.734375 
Q 24.65625 6.203125 33.40625 6.203125 
Q 37.3125 6.203125 41.140625 7.25 
Q 44.96875 8.296875 48.78125 10.40625 
L 48.78125 2.09375 
Q 45.015625 0.34375 40.984375 -0.53125 
Q 36.96875 -1.421875 32.421875 -1.421875 
Q 20.0625 -1.421875 12.78125 6.34375 
Q 5.515625 14.109375 5.515625 27.296875 
Q 5.515625 40.671875 12.859375 48.328125 
Q 20.21875 56 33.015625 56 
Q 37.15625 56 41.109375 55.140625 
Q 45.0625 54.296875 48.78125 52.59375 
z
" id="DejaVuSans-63"/>
      <path d="M 30.421875 75.984375 
L 30.421875 -13.1875 
L 9.71875 -13.1875 
L 9.71875 -6.203125 
L 21.390625 -6.203125 
L 21.390625 69 
L 9.71875 69 
L 9.71875 75.984375 
z
" id="DejaVuSans-5d"/>
     </defs>
     <g transform="translate(210.399978 178.85942)scale(0.1 -0.1)">
      <use xlink:href="#DejaVuSans-54"/>
      <use x="61.037109" xlink:href="#DejaVuSans-69"/>
      <use x="88.820312" xlink:href="#DejaVuSans-6d"/>
      <use x="186.232422" xlink:href="#DejaVuSans-65"/>
      <use x="247.755859" xlink:href="#DejaVuSans-20"/>
      <use x="279.542969" xlink:href="#DejaVuSans-5b"/>
      <use x="318.556641" xlink:href="#DejaVuSans-73"/>
      <use x="370.65625" xlink:href="#DejaVuSans-65"/>
      <use x="432.179688" xlink:href="#DejaVuSans-63"/>
      <use x="487.160156" xlink:href="#DejaVuSans-5d"/>
     </g>
    </g>
   </g>
   <g id="matplotlib.axis_2">
    <g id="ytick_1">
     <g id="line2d_8">
      <defs>
       <path d="M 0 0 
L -3.5 0 
" id="m013d6708bc" style="stroke:#000000;stroke-width:0.8;"/>
      </defs>
      <g>
       <use style="stroke:#000000;stroke-width:0.8;" x="57.6" xlink:href="#m013d6708bc" y="128.191977"/>
      </g>
     </g>
     <g id="text_9">
      <!-- −5000 -->
      <defs>
       <path d="M 10.59375 35.5 
L 73.1875 35.5 
L 73.1875 27.203125 
L 10.59375 27.203125 
z
" id="DejaVuSans-2212"/>
       <path d="M 31.78125 66.40625 
Q 24.171875 66.40625 20.328125 58.90625 
Q 16.5 51.421875 16.5 36.375 
Q 16.5 21.390625 20.328125 13.890625 
Q 24.171875 6.390625 31.78125 6.390625 
Q 39.453125 6.390625 43.28125 13.890625 
Q 47.125 21.390625 47.125 36.375 
Q 47.125 51.421875 43.28125 58.90625 
Q 39.453125 66.40625 31.78125 66.40625 
z
M 31.78125 74.21875 
Q 44.046875 74.21875 50.515625 64.515625 
Q 56.984375 54.828125 56.984375 36.375 
Q 56.984375 17.96875 50.515625 8.265625 
Q 44.046875 -1.421875 31.78125 -1.421875 
Q 19.53125 -1.421875 13.0625 8.265625 
Q 6.59375 17.96875 6.59375 36.375 
Q 6.59375 54.828125 13.0625 64.515625 
Q 19.53125 74.21875 31.78125 74.21875 
z
" id="DejaVuSans-30"/>
      </defs>
      <g transform="translate(16.770313 131.991196)scale(0.1 -0.1)">
       <use xlink:href="#DejaVuSans-2212"/>
       <use x="83.789062" xlink:href="#DejaVuSans-35"/>
       <use x="147.412109" xlink:href="#DejaVuSans-30"/>
       <use x="211.035156" xlink:href="#DejaVuSans-30"/>
       <use x="274.658203" xlink:href="#DejaVuSans-30"/>
      </g>
     </g>
    </g>
    <g id="ytick_2">
     <g id="line2d_9">
      <g>
       <use style="stroke:#000000;stroke-width:0.8;" x="57.6" xlink:href="#m013d6708bc" y="85.199833"/>
      </g>
     </g>
     <g id="text_10">
      <!-- 0 -->
      <g transform="translate(44.2375 88.999052)scale(0.1 -0.1)">
       <use xlink:href="#DejaVuSans-30"/>
      </g>
     </g>
    </g>
    <g id="ytick_3">
     <g id="line2d_10">
      <g>
       <use style="stroke:#000000;stroke-width:0.8;" x="57.6" xlink:href="#m013d6708bc" y="42.20769"/>
      </g>
     </g>
     <g id="text_11">
      <!-- 5000 -->
      <g transform="translate(25.15 46.006908)scale(0.1 -0.1)">
       <use xlink:href="#DejaVuSans-35"/>
       <use x="63.623047" xlink:href="#DejaVuSans-30"/>
       <use x="127.246094" xlink:href="#DejaVuSans-30"/>
       <use x="190.869141" xlink:href="#DejaVuSans-30"/>
      </g>
     </g>
    </g>
    <g id="text_12">
     <!-- Amplitude -->
     <defs>
      <path d="M 34.1875 63.1875 
L 20.796875 26.90625 
L 47.609375 26.90625 
z
M 28.609375 72.90625 
L 39.796875 72.90625 
L 67.578125 0 
L 57.328125 0 
L 50.6875 18.703125 
L 17.828125 18.703125 
L 11.1875 0 
L 0.78125 0 
z
" id="DejaVuSans-41"/>
      <path d="M 18.109375 8.203125 
L 18.109375 -20.796875 
L 9.078125 -20.796875 
L 9.078125 54.6875 
L 18.109375 54.6875 
L 18.109375 46.390625 
Q 20.953125 51.265625 25.265625 53.625 
Q 29.59375 56 35.59375 56 
Q 45.5625 56 51.78125 48.09375 
Q 58.015625 40.1875 58.015625 27.296875 
Q 58.015625 14.40625 51.78125 6.484375 
Q 45.5625 -1.421875 35.59375 -1.421875 
Q 29.59375 -1.421875 25.265625 0.953125 
Q 20.953125 3.328125 18.109375 8.203125 
z
M 48.6875 27.296875 
Q 48.6875 37.203125 44.609375 42.84375 
Q 40.53125 48.484375 33.40625 48.484375 
Q 26.265625 48.484375 22.1875 42.84375 
Q 18.109375 37.203125 18.109375 27.296875 
Q 18.109375 17.390625 22.1875 11.75 
Q 26.265625 6.109375 33.40625 6.109375 
Q 40.53125 6.109375 44.609375 11.75 
Q 48.6875 17.390625 48.6875 27.296875 
z
" id="DejaVuSans-70"/>
      <path d="M 9.421875 75.984375 
L 18.40625 75.984375 
L 18.40625 0 
L 9.421875 0 
z
" id="DejaVuSans-6c"/>
      <path d="M 18.3125 70.21875 
L 18.3125 54.6875 
L 36.8125 54.6875 
L 36.8125 47.703125 
L 18.3125 47.703125 
L 18.3125 18.015625 
Q 18.3125 11.328125 20.140625 9.421875 
Q 21.96875 7.515625 27.59375 7.515625 
L 36.8125 7.515625 
L 36.8125 0 
L 27.59375 0 
Q 17.1875 0 13.234375 3.875 
Q 9.28125 7.765625 9.28125 18.015625 
L 9.28125 47.703125 
L 2.6875 47.703125 
L 2.6875 54.6875 
L 9.28125 54.6875 
L 9.28125 70.21875 
z
" id="DejaVuSans-74"/>
      <path d="M 8.5 21.578125 
L 8.5 54.6875 
L 17.484375 54.6875 
L 17.484375 21.921875 
Q 17.484375 14.15625 20.5 10.265625 
Q 23.53125 6.390625 29.59375 6.390625 
Q 36.859375 6.390625 41.078125 11.03125 
Q 45.3125 15.671875 45.3125 23.6875 
L 45.3125 54.6875 
L 54.296875 54.6875 
L 54.296875 0 
L 45.3125 0 
L 45.3125 8.40625 
Q 42.046875 3.421875 37.71875 1 
Q 33.40625 -1.421875 27.6875 -1.421875 
Q 18.265625 -1.421875 13.375 4.4375 
Q 8.5 10.296875 8.5 21.578125 
z
M 31.109375 56 
z
" id="DejaVuSans-75"/>
      <path d="M 45.40625 46.390625 
L 45.40625 75.984375 
L 54.390625 75.984375 
L 54.390625 0 
L 45.40625 0 
L 45.40625 8.203125 
Q 42.578125 3.328125 38.25 0.953125 
Q 33.9375 -1.421875 27.875 -1.421875 
Q 17.96875 -1.421875 11.734375 6.484375 
Q 5.515625 14.40625 5.515625 27.296875 
Q 5.515625 40.1875 11.734375 48.09375 
Q 17.96875 56 27.875 56 
Q 33.9375 56 38.25 53.625 
Q 42.578125 51.265625 45.40625 46.390625 
z
M 14.796875 27.296875 
Q 14.796875 17.390625 18.875 11.75 
Q 22.953125 6.109375 30.078125 6.109375 
Q 37.203125 6.109375 41.296875 11.75 
Q 45.40625 17.390625 45.40625 27.296875 
Q 45.40625 37.203125 41.296875 42.84375 
Q 37.203125 48.484375 30.078125 48.484375 
Q 22.953125 48.484375 18.875 42.84375 
Q 14.796875 37.203125 14.796875 27.296875 
z
" id="DejaVuSans-64"/>
     </defs>
     <g transform="translate(10.690625 121.995685)rotate(-90)scale(0.1 -0.1)">
      <use xlink:href="#DejaVuSans-41"/>
      <use x="68.408203" xlink:href="#DejaVuSans-6d"/>
      <use x="165.820312" xlink:href="#DejaVuSans-70"/>
      <use x="229.296875" xlink:href="#DejaVuSans-6c"/>
      <use x="257.080078" xlink:href="#DejaVuSans-69"/>
      <use x="284.863281" xlink:href="#DejaVuSans-74"/>
      <use x="324.072266" xlink:href="#DejaVuSans-75"/>
      <use x="387.451172" xlink:href="#DejaVuSans-64"/>
      <use x="450.927734" xlink:href="#DejaVuSans-65"/>
     </g>
    </g>
   </g>
   <g id="line2d_11">
    <path clip-path="url(#p9415bad14c)" d="M 57.495613 85.285817 
L 57.603358 85.165439 
L 57.818848 85.251424 
L 57.926593 85.019266 
L 58.465319 85.242825 
L 59.219534 84.787109 
L 59.54277 84.434573 
L 59.650515 84.443171 
L 59.75826 84.271203 
L 59.97375 84.45177 
L 60.081495 84.400179 
L 60.296986 84.701124 
L 61.051201 84.967676 
L 61.589927 84.589345 
L 61.697672 84.761313 
L 61.913162 84.580746 
L 62.128653 84.804305 
L 62.451888 85.10525 
L 62.667378 85.036463 
L 62.775123 84.787109 
L 62.990613 85.05366 
L 63.313849 84.468967 
L 63.421594 84.400179 
L 63.637084 84.709723 
L 63.96032 84.950479 
L 64.068065 84.94188 
L 64.283555 85.242825 
L 64.499045 85.225628 
L 64.714535 84.898888 
L 64.82228 84.838699 
L 65.253261 84.211014 
L 65.468751 84.262604 
L 65.576496 84.254006 
L 65.791986 84.632337 
L 65.899732 84.709723 
L 66.007477 84.959077 
L 66.115222 84.916085 
L 66.330712 85.234227 
L 66.438457 84.993471 
L 66.653947 85.174038 
L 66.761693 85.070857 
L 66.869438 85.371802 
L 67.300418 84.916085 
L 67.623653 85.346006 
L 67.731399 85.354605 
L 67.839144 85.242825 
L 67.946889 84.898888 
L 68.377869 85.062258 
L 68.59336 84.460368 
L 68.701105 84.554951 
L 68.916595 84.683927 
L 69.02434 84.976274 
L 69.45532 84.744116 
L 69.670811 85.079455 
L 70.101791 84.72692 
L 70.425026 85.139644 
L 70.532772 85.242825 
L 70.640517 85.122447 
L 70.963752 85.337408 
L 71.179242 85.775928 
L 71.502478 85.414794 
L 71.717968 85.337408 
L 71.933458 85.414794 
L 72.041203 85.397597 
L 72.256693 85.251424 
L 72.472184 85.32881 
L 72.687674 85.621156 
L 73.010909 85.741534 
L 73.2264 85.535172 
L 73.549635 85.414794 
L 73.765125 84.950479 
L 74.08836 84.830101 
L 74.196106 85.096652 
L 74.411596 85.088054 
L 74.627086 84.898888 
L 74.842576 85.122447 
L 74.950321 84.94188 
L 75.058066 84.993471 
L 75.381302 84.623738 
L 75.489047 84.658132 
L 75.596792 84.425975 
L 75.812282 84.45177 
L 75.920027 84.400179 
L 76.135518 84.683927 
L 76.566498 85.139644 
L 76.674243 85.32881 
L 76.781988 85.199833 
L 76.889733 85.363203 
L 77.105224 85.027865 
L 77.212969 85.174038 
L 77.428459 85.10525 
L 77.536204 85.156841 
L 77.643949 84.933282 
L 77.751694 84.984872 
L 78.07493 85.474983 
L 78.182675 85.724337 
L 78.398165 85.526573 
L 78.50591 85.560967 
L 78.613655 85.337408 
L 78.7214 85.440589 
L 79.044636 85.191235 
L 79.260126 84.623738 
L 79.367871 84.787109 
L 79.475616 84.718321 
L 79.691107 84.916085 
L 79.798852 84.709723 
L 80.014342 84.959077 
L 80.122087 84.873093 
L 80.337577 85.139644 
L 80.445322 84.924683 
L 80.768558 85.062258 
L 80.876303 85.406195 
L 81.091793 85.346006 
L 81.199538 85.466384 
L 81.307283 85.414794 
L 81.738264 85.947896 
L 81.953754 85.715739 
L 82.061499 85.81892 
L 82.276989 85.70714 
L 82.49248 85.887707 
L 82.600225 85.793125 
L 82.70797 86.008085 
L 82.815715 85.939298 
L 83.35444 86.300432 
L 83.569931 86.051078 
L 83.785421 85.990889 
L 83.893166 85.98229 
L 84.108656 85.457786 
L 84.216401 85.586762 
L 84.431892 85.612558 
L 84.539637 85.784526 
L 84.970617 85.535172 
L 85.186107 85.758731 
L 85.509343 85.664148 
L 85.724833 85.182636 
L 85.940323 85.010668 
L 86.048068 85.234227 
L 86.479049 84.94188 
L 87.017774 85.724337 
L 87.12552 85.586762 
L 87.34101 85.904904 
L 87.448755 85.844715 
L 87.5565 85.939298 
L 87.77199 85.629755 
L 87.879735 85.801723 
L 88.095226 85.664148 
L 88.202971 85.844715 
L 88.418461 85.70714 
L 88.633951 86.128463 
L 89.064932 85.913503 
L 89.172677 86.119865 
L 89.280422 85.793125 
L 89.388167 85.896306 
L 90.142383 84.924683 
L 90.250128 84.855896 
L 90.465618 84.959077 
L 90.681108 85.174038 
L 90.788853 84.967676 
L 90.896599 85.070857 
L 91.650814 84.33999 
L 92.18954 84.950479 
L 92.297285 84.864494 
L 92.512775 85.268621 
L 92.728266 85.320211 
L 92.943756 85.139644 
L 93.159246 85.174038 
L 93.374736 85.05366 
L 93.482481 84.769912 
L 94.021207 85.148243 
L 94.236697 84.94188 
L 94.667678 85.268621 
L 94.775423 85.010668 
L 94.883168 85.148243 
L 94.990913 84.933282 
L 95.206403 85.388999 
L 95.314148 85.21703 
L 95.960619 84.812904 
L 96.068364 84.821502 
L 96.283854 84.417376 
L 96.3916 84.511959 
L 96.60709 84.632337 
L 96.714835 84.898888 
L 96.930325 84.795707 
L 97.03807 85.010668 
L 97.145815 84.976274 
L 97.361306 85.388999 
L 97.576796 85.242825 
L 97.684541 85.199833 
L 97.792286 85.002069 
L 98.007776 85.21703 
L 98.115521 85.05366 
L 98.546502 85.388999 
L 98.654247 85.354605 
L 99.192973 85.956495 
L 99.300718 85.767329 
L 99.516208 85.887707 
L 99.623953 85.70714 
L 99.731698 85.758731 
L 99.839443 85.646951 
L 100.054933 85.371802 
L 100.270424 85.242825 
L 100.378169 85.423392 
L 100.593659 85.320211 
L 100.701404 85.457786 
L 100.809149 85.346006 
L 101.02464 85.646951 
L 101.45562 85.139644 
L 101.563365 85.199833 
L 101.778855 85.05366 
L 101.8866 85.088054 
L 102.102091 84.795707 
L 102.209836 84.976274 
L 102.317581 84.89029 
L 102.425326 85.002069 
L 102.533071 85.32881 
L 102.640816 85.294416 
L 102.856307 85.603959 
L 102.964052 85.535172 
L 103.071797 85.732936 
L 103.287287 85.646951 
L 103.395032 85.758731 
L 103.610522 85.49218 
L 103.718267 85.646951 
L 103.933758 85.474983 
L 104.041503 85.560967 
L 104.149248 85.397597 
L 104.364738 85.672747 
L 104.472483 85.578164 
L 104.687973 85.758731 
L 104.795719 85.612558 
L 105.011209 85.689944 
L 105.334444 85.277219 
L 105.442189 85.096652 
L 105.549934 85.156841 
L 105.765425 84.924683 
L 105.87317 84.950479 
L 105.980915 84.812904 
L 106.735131 85.088054 
L 107.058366 84.898888 
L 107.273856 84.821502 
L 107.381601 84.959077 
L 107.597092 84.640935 
L 107.920327 84.838699 
L 108.135817 84.959077 
L 108.566798 85.294416 
L 108.782288 85.294416 
L 108.890033 85.440589 
L 108.997778 85.3804 
L 109.321013 85.724337 
L 109.644249 85.560967 
L 109.859739 85.904904 
L 109.967484 85.939298 
L 110.182974 85.474983 
L 110.29072 85.225628 
L 110.50621 85.199833 
L 110.7217 85.208432 
L 110.93719 84.675329 
L 111.044935 84.718321 
L 111.15268 84.640935 
L 111.368171 85.062258 
L 111.475916 84.993471 
L 111.906896 84.916085 
L 112.014641 84.967676 
L 112.337877 84.460368 
L 112.445622 84.434573 
L 112.661112 84.830101 
L 112.876602 85.088054 
L 112.984347 85.010668 
L 113.523073 85.896306 
L 113.738563 85.681345 
L 113.846308 85.54377 
L 114.061799 85.65555 
L 114.277289 85.457786 
L 114.92376 85.629755 
L 115.35474 86.051078 
L 115.78572 85.81892 
L 115.893466 85.913503 
L 116.108956 85.509377 
L 116.216701 85.526573 
L 116.324446 85.337408 
L 116.539936 85.483581 
L 116.647681 85.397597 
L 116.755427 85.560967 
L 116.970917 85.457786 
L 117.078662 85.70714 
L 117.294152 85.569566 
L 117.401897 85.664148 
L 117.617387 85.251424 
L 117.725133 85.251424 
L 117.832878 85.05366 
L 117.940623 85.251424 
L 118.371603 85.070857 
L 118.479348 85.10525 
L 118.694839 85.388999 
L 119.233564 85.81892 
L 119.664545 85.466384 
L 119.77229 85.603959 
L 119.880035 85.560967 
L 120.095525 85.397597 
L 120.311015 85.457786 
L 120.634251 85.922101 
L 120.741996 85.939298 
L 120.957486 85.724337 
L 121.065231 85.896306 
L 121.388467 85.681345 
L 121.603957 85.122447 
L 121.927192 85.500778 
L 122.034937 85.509377 
L 122.142682 85.354605 
L 122.573663 85.70714 
L 122.789153 85.457786 
L 122.896898 85.431991 
L 123.112388 84.967676 
L 123.220133 85.045061 
L 123.327879 84.752715 
L 123.543369 85.070857 
L 123.651114 85.199833 
L 123.866604 85.595361 
L 123.974349 85.517975 
L 124.18984 85.767329 
L 124.297585 85.81892 
L 124.40533 86.111267 
L 124.944055 85.045061 
L 125.0518 85.371802 
L 125.159546 85.294416 
L 125.375036 85.457786 
L 125.482781 85.320211 
L 125.913761 86.326227 
L 126.344742 85.234227 
L 126.452487 85.191235 
L 126.560232 85.277219 
L 126.775722 84.640935 
L 126.991213 84.443171 
L 127.206703 85.062258 
L 127.314448 85.027865 
L 127.529938 85.199833 
L 127.637683 85.165439 
L 127.745428 85.303014 
L 128.068664 85.165439 
L 128.391899 84.529156 
L 128.499644 84.271203 
L 128.715134 84.649534 
L 128.82288 84.391581 
L 129.03837 84.649534 
L 129.146115 84.744116 
L 129.361605 85.131046 
L 129.577095 85.414794 
L 129.68484 85.182636 
L 129.900331 85.440589 
L 130.331311 85.070857 
L 130.546801 85.294416 
L 130.977782 85.174038 
L 131.408762 85.750133 
L 131.624253 85.457786 
L 131.947488 85.440589 
L 132.486213 84.89029 
L 132.701704 85.010668 
L 132.809449 84.864494 
L 133.024939 85.10525 
L 133.132684 85.062258 
L 133.348174 85.32881 
L 133.563665 85.354605 
L 133.779155 85.242825 
L 133.8869 85.234227 
L 134.10239 85.002069 
L 134.425626 84.769912 
L 134.533371 84.916085 
L 134.748861 84.907487 
L 134.964351 85.251424 
L 135.179841 85.664148 
L 135.287587 85.741534 
L 135.395332 85.603959 
L 135.610822 85.225628 
L 135.826312 85.268621 
L 135.934057 85.500778 
L 136.149547 85.165439 
L 136.472783 85.603959 
L 136.580528 86.042479 
L 137.119253 85.294416 
L 137.226999 85.3804 
L 137.442489 85.045061 
L 137.657979 84.787109 
L 137.873469 85.21703 
L 137.981214 85.165439 
L 138.08896 85.440589 
L 138.30445 85.242825 
L 138.412195 85.466384 
L 139.166411 83.918667 
L 139.381901 84.494762 
L 139.489646 84.486164 
L 139.705136 84.838699 
L 139.812881 84.898888 
L 140.028372 85.440589 
L 140.136117 85.423392 
L 140.243862 85.569566 
L 140.459352 85.156841 
L 140.890333 84.838699 
L 140.998078 84.61514 
L 141.429058 85.457786 
L 141.644548 85.371802 
L 141.860039 85.672747 
L 142.075529 85.741534 
L 142.291019 85.242825 
L 142.722 84.830101 
L 142.829745 83.548935 
L 143.045235 70.324551 
L 143.15298 74.05627 
L 143.36847 88.071708 
L 143.476215 88.217882 
L 143.58396 85.98229 
L 143.799451 96.360594 
L 143.907196 95.655523 
L 144.014941 90.763017 
L 144.769157 119.696729 
L 145.200137 132.009679 
L 145.307882 130.986466 
L 145.415627 129.10341 
L 145.631118 131.880703 
L 146.277588 104.632282 
L 146.708569 85.466384 
L 146.924059 82.895454 
L 147.031804 82.843864 
L 147.139549 82.491328 
L 147.462785 77.616019 
L 147.78602 70.831859 
L 147.893765 70.978032 
L 148.00151 70.831859 
L 148.324746 69.112173 
L 148.540236 70.82326 
L 148.863471 68.596267 
L 149.078961 68.622063 
L 149.294452 69.413118 
L 149.402197 68.665055 
L 149.725432 61.829304 
L 149.940922 60.7545 
L 150.156413 57.813838 
L 150.264158 57.925617 
L 150.371903 58.045995 
L 150.479648 57.736452 
L 150.587393 58.003003 
L 150.910628 68.269527 
L 151.557099 86.721755 
L 151.772589 89.008937 
L 151.880334 88.819772 
L 152.311315 86.059676 
L 152.742295 77.194696 
L 153.173276 70.212772 
L 153.712001 65.002124 
L 153.819747 65.294471 
L 154.142982 69.395921 
L 154.789453 85.036463 
L 155.220433 92.413915 
L 155.651413 94.769884 
L 155.759159 94.967648 
L 156.082394 92.843836 
L 156.405629 89.817189 
L 156.728865 88.106102 
L 156.944355 87.375236 
L 157.0521 87.280653 
L 157.375335 87.908338 
L 157.698571 88.957347 
L 158.129551 92.448309 
L 158.776022 98.424217 
L 159.099257 99.309855 
L 159.314747 98.742358 
L 160.068963 96.360594 
L 160.176708 96.309003 
L 160.284453 96.627145 
L 160.499944 96.429381 
L 160.607689 96.687334 
L 160.823179 96.541161 
L 160.930924 96.575554 
L 161.792885 94.030419 
L 162.223866 91.278922 
L 163.409062 80.978005 
L 163.624552 80.247138 
L 163.840042 80.161154 
L 164.055533 80.376115 
L 164.163278 80.358918 
L 164.486513 81.201564 
L 165.671709 85.9307 
L 165.8872 86.283235 
L 165.994945 86.154259 
L 166.10269 86.403613 
L 166.425925 85.638353 
L 166.856906 84.296998 
L 166.964651 84.33999 
L 167.180141 84.202415 
L 167.287886 84.262604 
L 167.718867 83.875675 
L 167.826612 83.918667 
L 167.934357 84.17662 
L 168.365337 83.944463 
L 168.580827 84.357187 
L 169.011808 83.892872 
L 169.227298 84.030447 
L 169.873769 83.445754 
L 170.089259 83.540336 
L 170.197004 83.385565 
L 170.95122 83.789691 
L 171.058965 83.763896 
L 171.274455 83.90147 
L 171.3822 83.789691 
L 171.597691 84.228211 
L 172.136416 83.626321 
L 172.244161 83.583329 
L 172.675142 82.783675 
L 172.890632 82.577312 
L 173.213867 82.052808 
L 173.860338 82.001218 
L 174.291319 82.465533 
L 174.506809 82.560116 
L 174.722299 82.757879 
L 174.830044 82.766478 
L 174.937789 82.92125 
L 175.15328 82.800872 
L 175.261025 82.904053 
L 175.36877 82.783675 
L 175.58426 82.861061 
L 175.692005 82.637501 
L 175.907495 82.775076 
L 176.230731 82.732084 
L 176.446221 82.499927 
L 176.877201 81.984021 
L 177.092692 82.284966 
L 177.200437 82.061407 
L 177.415927 82.413942 
L 177.523672 82.233375 
L 177.739162 82.620305 
L 177.846907 82.525722 
L 177.954653 82.732084 
L 178.062398 82.69769 
L 178.170143 82.80947 
L 178.277888 83.08462 
L 178.493378 82.861061 
L 178.601123 82.878257 
L 178.816613 82.603108 
L 178.924359 82.783675 
L 179.032104 82.439738 
L 179.247594 82.48273 
L 179.355339 82.327958 
L 179.570829 82.560116 
L 179.678574 82.499927 
L 179.78632 82.732084 
L 180.00181 82.439738 
L 180.109555 82.620305 
L 180.325045 82.448336 
L 180.43279 82.603108 
L 180.540535 82.517123 
L 180.863771 82.637501 
L 181.079261 83.033029 
L 181.187006 83.119013 
L 181.402496 83.480147 
L 181.833477 84.021848 
L 181.941222 84.082037 
L 182.156712 83.987455 
L 182.264457 83.970258 
L 182.479947 83.626321 
L 182.587693 83.669313 
L 182.803183 83.531738 
L 182.910928 83.531738 
L 183.018673 83.394163 
L 183.234163 83.583329 
L 183.665144 83.52314 
L 183.772889 83.600525 
L 183.988379 83.471549 
L 184.096124 83.57473 
L 184.203869 83.359769 
L 184.41936 83.660714 
L 184.527105 83.52314 
L 184.742595 83.720903 
L 184.85034 83.68651 
L 185.06583 83.789691 
L 185.389066 83.927266 
L 185.496811 83.841281 
L 185.604556 83.944463 
L 185.820046 83.626321 
L 185.927791 83.583329 
L 186.035536 83.333974 
L 186.143281 83.385565 
L 186.466517 83.239391 
L 186.574262 83.230793 
L 186.789752 83.015832 
L 187.005242 82.663297 
L 187.112987 81.416525 
L 187.328478 76.67879 
L 187.543968 82.878257 
L 187.867203 85.810322 
L 188.082693 90.298701 
L 188.190439 88.38985 
L 188.298184 88.673598 
L 188.513674 95.01064 
L 189.375635 107.452567 
L 189.48338 107.426771 
L 189.69887 105.560912 
L 189.806615 105.724283 
L 190.560831 93.187773 
L 190.668576 92.207553 
L 190.776321 92.224749 
L 190.884067 91.880812 
L 191.099557 88.699394 
L 191.207302 87.125881 
L 191.422792 88.303866 
L 191.638282 87.727771 
L 191.853773 87.263456 
L 191.961518 87.383834 
L 192.177008 86.395015 
L 192.500243 84.546353 
L 192.715733 83.368368 
L 193.793185 73.815514 
L 194.008675 73.248017 
L 194.33191 74.666758 
L 194.762891 79.284114 
L 195.409361 88.613409 
L 195.624852 89.98056 
L 195.732597 89.946166 
L 195.948087 89.189504 
L 197.672009 76.412239 
L 197.887499 75.91353 
L 197.995244 76.033908 
L 198.102989 76.274664 
L 198.210734 76.231672 
L 199.18044 80.56528 
L 199.503676 82.181785 
L 200.688872 88.415646 
L 200.904362 88.974543 
L 201.012107 89.026134 
L 201.550833 90.221316 
L 201.766323 90.977977 
L 201.874068 91.115552 
L 202.089559 91.829222 
L 202.412794 92.11297 
L 202.520539 92.035584 
L 202.628284 92.27634 
L 202.843774 92.087175 
L 202.95152 92.233348 
L 203.3825 91.597064 
L 203.59799 91.382103 
L 204.352206 89.507646 
L 204.567696 89.361473 
L 205.321912 90.410481 
L 205.752893 91.081158 
L 205.860638 91.07256 
L 205.968383 91.218733 
L 206.183873 91.158544 
L 206.291618 91.287521 
L 206.507108 91.141347 
L 206.614853 91.270324 
L 207.58456 88.742386 
L 207.907795 87.504212 
L 209.523972 83.68651 
L 209.631717 83.729502 
L 209.847207 83.256588 
L 209.954952 83.222195 
L 210.062697 82.97284 
L 210.278187 83.076021 
L 210.385933 82.766478 
L 210.493678 82.818068 
L 210.601423 82.723486 
L 210.709168 82.379549 
L 210.816913 82.448336 
L 210.924658 82.345155 
L 211.032403 81.966824 
L 211.140148 82.070005 
L 211.355639 81.622887 
L 211.571129 81.60569 
L 211.678874 81.631485 
L 211.786619 81.803454 
L 211.894364 81.648682 
L 212.109854 82.018415 
L 212.2176 81.820651 
L 212.43309 82.267769 
L 212.540835 82.267769 
L 212.756325 82.542919 
L 212.86407 82.353753 
L 212.971815 82.517123 
L 213.187306 82.310761 
L 213.295051 82.551517 
L 213.402796 82.379549 
L 213.618286 82.508525 
L 213.726031 82.259171 
L 213.941521 82.37095 
L 214.049267 82.087202 
L 214.157012 82.20758 
L 214.372502 81.923832 
L 214.480247 82.070005 
L 214.695737 81.657281 
L 214.803482 81.898037 
L 215.018973 81.554099 
L 215.126718 81.60569 
L 215.342208 81.450918 
L 215.773188 81.803454 
L 215.880934 81.71747 
L 216.096424 82.087202 
L 217.28162 83.867077 
L 217.389365 83.841281 
L 217.604855 84.228211 
L 217.7126 84.314195 
L 217.820346 84.580746 
L 218.359071 84.443171 
L 218.574561 84.623738 
L 218.790052 84.72692 
L 219.005542 84.296998 
L 219.113287 84.382982 
L 219.221032 84.279801 
L 219.436522 84.520557 
L 219.759758 84.391581 
L 220.190738 84.692526 
L 220.298483 84.830101 
L 220.406228 84.683927 
L 220.944954 85.483581 
L 221.052699 85.449188 
L 221.268189 85.65555 
L 221.375934 85.664148 
L 221.591425 85.965093 
L 221.806915 86.248841 
L 222.022405 86.171456 
L 222.13015 86.334826 
L 222.237895 86.274637 
L 222.668876 86.678763 
L 222.776621 86.799141 
L 222.884366 86.644369 
L 223.099856 86.850732 
L 223.961817 87.598795 
L 224.392798 87.332244 
L 224.608288 87.478417 
L 224.716033 87.34944 
L 224.823778 87.547204 
L 225.362504 86.713157 
L 225.470249 86.773346 
L 225.685739 86.566983 
L 225.793484 86.541188 
L 225.901229 86.240243 
L 226.11672 86.334826 
L 226.224465 86.214448 
L 226.439955 86.369219 
L 226.5477 86.14566 
L 226.655445 86.197251 
L 226.870935 85.913503 
L 226.97868 86.09407 
L 227.517406 85.320211 
L 227.625151 85.32881 
L 227.840641 85.260022 
L 227.948387 85.285817 
L 228.379367 84.744116 
L 228.487112 84.821502 
L 228.702602 84.468967 
L 228.810347 84.589345 
L 229.025838 84.262604 
L 229.133583 84.382982 
L 229.349073 84.211014 
L 229.456818 84.2884 
L 229.564563 84.021848 
L 229.672308 84.090636 
L 229.887799 83.806888 
L 230.103289 83.918667 
L 230.534269 83.987455 
L 230.642014 84.133628 
L 230.74976 83.987455 
L 230.96525 84.271203 
L 231.072995 84.142226 
L 231.288485 84.236809 
L 231.39623 84.116431 
L 231.61172 84.305597 
L 231.719466 84.2884 
L 231.827211 84.494762 
L 232.042701 84.33999 
L 232.150446 84.494762 
L 232.258191 84.314195 
L 232.796917 84.838699 
L 232.904662 84.658132 
L 233.120152 84.718321 
L 233.227897 84.623738 
L 233.443387 84.855896 
L 233.551133 84.769912 
L 233.658878 84.907487 
L 233.766623 84.838699 
L 234.305348 85.32881 
L 234.413094 85.131046 
L 234.628584 85.509377 
L 234.736329 85.414794 
L 234.951819 85.70714 
L 235.059564 85.552369 
L 235.275054 85.775928 
L 235.3828 85.810322 
L 235.490545 86.059676 
L 235.706035 85.990889 
L 235.81378 86.240243 
L 236.02927 85.947896 
L 236.137015 86.025282 
L 236.24476 85.741534 
L 236.460251 86.180054 
L 236.567996 86.042479 
L 236.675741 86.223046 
L 236.891231 86.076873 
L 237.106721 86.42081 
L 237.214467 86.480999 
L 237.429957 86.919519 
L 237.645447 87.177472 
L 237.860937 86.850732 
L 238.291918 87.13448 
L 238.399663 86.988306 
L 238.507408 87.074291 
L 238.722898 86.996905 
L 238.938388 87.340842 
L 239.261624 87.383834 
L 239.800349 87.220464 
L 239.908094 86.902322 
L 240.01584 87.014102 
L 240.23133 86.730354 
L 240.44682 86.902322 
L 240.554565 86.738952 
L 240.66231 86.953913 
L 240.8778 86.721755 
L 240.985546 86.919519 
L 241.093291 86.738952 
L 241.308781 86.756149 
L 241.416526 86.592779 
L 241.632016 86.601377 
L 241.739761 86.395015 
L 241.847507 86.438007 
L 242.278487 86.188652 
L 242.817213 86.119865 
L 242.924958 85.887707 
L 243.140448 85.896306 
L 243.248193 85.612558 
L 243.355938 85.715739 
L 243.571428 85.414794 
L 243.786919 85.371802 
L 243.894664 85.32881 
L 244.002409 85.569566 
L 244.433389 84.959077 
L 244.972115 85.21703 
L 245.07986 84.94188 
L 245.29535 84.976274 
L 245.726331 84.537754 
L 245.834076 84.649534 
L 246.049566 84.305597 
L 246.157311 84.357187 
L 246.372801 84.064841 
L 246.480547 84.12503 
L 246.588292 83.858478 
L 246.803782 83.935864 
L 246.911527 83.720903 
L 247.127017 83.910069 
L 247.234762 83.652116 
L 247.342507 83.806888 
L 247.557998 83.591927 
L 247.665743 83.781092 
L 247.881233 83.566132 
L 247.988978 83.617722 
L 248.096723 83.402762 
L 248.527704 83.772494 
L 248.635449 83.763896 
L 248.850939 83.57473 
L 249.066429 83.566132 
L 249.174174 83.729502 
L 249.389665 83.57473 
L 249.49741 83.858478 
L 249.605155 83.68651 
L 249.820645 83.84988 
L 249.92839 83.600525 
L 250.14388 83.798289 
L 250.251626 83.600525 
L 250.359371 83.729502 
L 250.574861 83.669313 
L 250.682606 83.918667 
L 251.221332 83.531738 
L 251.329077 83.712305 
L 251.544567 83.497344 
L 251.652312 83.609124 
L 251.760057 83.445754 
L 251.867802 83.652116 
L 252.083293 83.540336 
L 252.191038 83.7381 
L 252.406528 83.634919 
L 252.622018 83.841281 
L 252.729763 83.867077 
L 252.837508 84.099234 
L 253.268489 83.892872 
L 253.376234 83.781092 
L 253.591724 84.116431 
L 253.807214 84.348589 
L 253.91496 84.254006 
L 254.13045 84.443171 
L 254.238195 84.322793 
L 254.34594 84.520557 
L 254.56143 84.391581 
L 254.77692 84.649534 
L 254.992411 84.709723 
L 255.207901 84.554951 
L 255.315646 84.701124 
L 255.423391 84.649534 
L 255.638881 84.821502 
L 255.746627 84.623738 
L 255.962117 84.649534 
L 256.069862 84.520557 
L 256.177607 84.649534 
L 256.285352 84.537754 
L 256.824078 85.088054 
L 256.931823 84.907487 
L 257.039568 85.027865 
L 257.255058 84.94188 
L 257.470548 85.156841 
L 257.578294 85.096652 
L 257.686039 85.174038 
L 257.901529 84.855896 
L 258.009274 85.045061 
L 258.117019 84.907487 
L 258.332509 85.139644 
L 258.548 84.924683 
L 258.655745 85.070857 
L 258.76349 85.002069 
L 258.97898 85.234227 
L 259.40996 85.191235 
L 259.517706 85.363203 
L 259.733196 85.131046 
L 259.840941 85.260022 
L 260.056431 84.933282 
L 260.164176 85.002069 
L 260.379667 84.924683 
L 260.487412 84.984872 
L 260.595157 84.864494 
L 260.810647 85.10525 
L 260.918392 84.898888 
L 261.026137 85.10525 
L 261.241627 84.916085 
L 261.349373 85.208432 
L 261.564863 84.984872 
L 261.672608 85.079455 
L 261.888098 84.77851 
L 261.995843 84.924683 
L 262.103588 84.752715 
L 262.319079 84.89029 
L 262.426824 84.709723 
L 262.642314 84.864494 
L 262.750059 84.692526 
L 262.857804 84.847298 
L 263.073294 84.683927 
L 263.18104 84.77851 
L 263.39653 84.675329 
L 263.504275 84.838699 
L 263.61202 84.572148 
L 263.82751 84.744116 
L 263.935255 84.434573 
L 264.150746 84.632337 
L 264.258491 84.443171 
L 264.366236 84.597943 
L 264.581726 84.408778 
L 264.689471 84.477565 
L 264.797216 84.365786 
L 265.012707 84.597943 
L 265.228197 84.348589 
L 265.335942 84.400179 
L 265.443687 84.211014 
L 265.551432 84.254006 
L 265.766922 84.537754 
L 265.982413 84.683927 
L 266.090158 84.529156 
L 266.197903 84.744116 
L 266.413393 84.649534 
L 266.521138 84.769912 
L 266.736628 84.554951 
L 266.844374 84.675329 
L 267.059864 84.468967 
L 267.167609 84.658132 
L 267.383099 84.554951 
L 267.490844 84.606542 
L 267.598589 84.529156 
L 267.81408 84.761313 
L 267.921825 84.683927 
L 268.02957 84.898888 
L 268.24506 84.649534 
L 268.352805 84.838699 
L 268.46055 84.769912 
L 268.67604 84.984872 
L 268.891531 84.993471 
L 268.999276 85.122447 
L 269.107021 85.045061 
L 269.322511 85.199833 
L 269.430256 85.036463 
L 269.645747 85.225628 
L 269.753492 85.208432 
L 269.861237 85.440589 
L 270.076727 85.397597 
L 270.184472 85.621156 
L 270.399962 85.535172 
L 270.507707 85.732936 
L 270.615453 85.578164 
L 270.830943 85.9307 
L 271.369668 85.801723 
L 271.477414 85.595361 
L 271.585159 85.65555 
L 271.692904 85.9307 
L 271.800649 85.836117 
L 272.123884 85.896306 
L 272.231629 85.793125 
L 272.339374 85.879109 
L 272.44712 85.801723 
L 272.66261 86.016684 
L 272.770355 85.81892 
L 272.985845 85.81892 
L 273.09359 85.827518 
L 273.30908 86.09407 
L 273.416826 86.008085 
L 273.524571 86.102668 
L 273.740061 85.9307 
L 273.847806 86.171456 
L 274.063296 86.025282 
L 274.171041 86.119865 
L 274.278787 85.939298 
L 274.494277 86.042479 
L 274.602022 85.9307 
L 274.817512 86.059676 
L 274.925257 85.9307 
L 275.033002 86.085471 
L 275.248493 85.990889 
L 275.356238 86.042479 
L 275.571728 85.999487 
L 275.679473 86.102668 
L 275.787218 85.973692 
L 276.002708 86.171456 
L 276.110454 85.913503 
L 276.325944 86.128463 
L 276.433689 85.879109 
L 276.649179 86.068274 
L 276.756924 86.025282 
L 276.864669 86.128463 
L 276.972414 85.956495 
L 277.187905 86.154259 
L 277.29565 85.999487 
L 277.51114 86.119865 
L 277.618885 85.990889 
L 277.834375 86.154259 
L 277.94212 86.008085 
L 278.157611 86.059676 
L 278.265356 85.922101 
L 278.373101 86.033881 
L 278.588591 85.913503 
L 278.696336 85.965093 
L 278.911827 85.844715 
L 279.019572 86.008085 
L 279.127317 85.844715 
L 279.342807 86.016684 
L 279.450552 85.922101 
L 279.666042 85.98229 
L 279.881533 85.758731 
L 280.204768 85.836117 
L 280.635748 85.354605 
L 280.743494 85.397597 
L 280.851239 85.560967 
L 281.066729 85.32881 
L 281.389964 85.251424 
L 281.7132 85.294416 
L 281.92869 85.027865 
L 282.036435 85.174038 
L 282.251925 84.967676 
L 282.35967 85.045061 
L 282.57516 84.77851 
L 282.682906 84.94188 
L 282.790651 84.795707 
L 283.006141 84.959077 
L 283.113886 84.812904 
L 283.329376 84.976274 
L 283.437121 84.769912 
L 283.544867 84.933282 
L 283.760357 84.709723 
L 283.868102 84.847298 
L 284.083592 84.744116 
L 284.191337 84.821502 
L 284.299082 84.580746 
L 284.514573 84.72692 
L 284.730063 84.61514 
L 284.837808 84.718321 
L 284.945553 84.486164 
L 285.161043 84.675329 
L 285.268788 84.61514 
L 285.376534 84.787109 
L 285.592024 84.692526 
L 285.699769 84.907487 
L 285.915259 84.701124 
L 286.023004 84.933282 
L 286.238494 84.666731 
L 286.34624 84.838699 
L 286.453985 84.701124 
L 286.669475 84.744116 
L 286.77722 84.597943 
L 286.884965 84.761313 
L 287.100455 84.572148 
L 287.2082 84.855896 
L 287.423691 84.649534 
L 287.531436 84.881691 
L 287.639181 84.735518 
L 287.746926 84.77851 
L 287.854671 84.959077 
L 287.962416 84.769912 
L 288.177907 84.916085 
L 288.285652 84.666731 
L 288.501142 84.881691 
L 288.608887 84.769912 
L 288.716632 84.933282 
L 288.932122 84.675329 
L 289.039867 84.838699 
L 289.147613 84.718321 
L 289.363103 85.002069 
L 289.470848 84.812904 
L 290.009574 85.191235 
L 290.117319 84.864494 
L 290.225064 84.933282 
L 290.440554 84.735518 
L 290.548299 84.916085 
L 290.97928 84.666731 
L 291.19477 84.795707 
L 291.302515 84.692526 
L 291.518005 84.855896 
L 291.62575 84.675329 
L 291.84124 84.89029 
L 291.948986 84.787109 
L 292.164476 84.94188 
L 292.272221 84.838699 
L 292.379966 84.933282 
L 292.595456 84.838699 
L 292.703201 84.959077 
L 292.918692 84.864494 
L 293.026437 84.898888 
L 293.134182 84.72692 
L 293.349672 84.898888 
L 293.457417 84.795707 
L 293.672907 84.933282 
L 293.780653 84.847298 
L 293.888398 85.05366 
L 294.103888 84.984872 
L 294.211633 85.113849 
L 294.319378 84.976274 
L 294.534868 85.070857 
L 294.642614 84.916085 
L 294.858104 85.019266 
L 295.073594 84.924683 
L 295.181339 85.002069 
L 295.289084 84.916085 
L 295.396829 85.019266 
L 295.61232 84.933282 
L 295.82781 85.062258 
L 295.935555 84.950479 
L 296.0433 85.113849 
L 296.25879 84.976274 
L 296.366535 85.079455 
L 296.47428 84.950479 
L 296.689771 85.070857 
L 296.905261 85.010668 
L 297.013006 85.045061 
L 297.120751 84.855896 
L 297.767222 85.397597 
L 298.090457 85.208432 
L 298.305947 85.397597 
L 298.521438 85.500778 
L 298.629183 85.268621 
L 298.844673 85.371802 
L 298.952418 85.277219 
L 299.167908 85.388999 
L 299.275654 85.285817 
L 299.383399 85.414794 
L 299.491144 85.260022 
L 299.706634 85.388999 
L 299.814379 85.285817 
L 300.029869 85.509377 
L 300.24536 85.191235 
L 300.353105 85.32881 
L 300.46085 85.062258 
L 300.67634 85.225628 
L 300.784085 85.019266 
L 300.89183 85.156841 
L 301.10732 85.079455 
L 301.215066 85.208432 
L 301.430556 85.096652 
L 301.538301 85.165439 
L 301.753791 85.036463 
L 301.861536 85.165439 
L 301.969281 84.984872 
L 302.184772 85.165439 
L 302.292517 84.967676 
L 302.400262 85.113849 
L 302.615752 84.967676 
L 302.723497 85.05366 
L 302.938987 84.959077 
L 303.046733 85.088054 
L 303.262223 84.993471 
L 303.369968 85.122447 
L 303.477713 85.036463 
L 303.693203 85.148243 
L 303.800948 85.036463 
L 304.016439 85.191235 
L 304.124184 85.10525 
L 304.231929 85.251424 
L 304.447419 85.096652 
L 304.8784 85.225628 
L 304.986145 85.010668 
L 305.201635 85.174038 
L 305.30938 85.139644 
L 305.52487 85.354605 
L 305.632615 85.225628 
L 305.74036 85.337408 
L 305.955851 85.268621 
L 306.171341 85.251424 
L 306.279086 85.174038 
L 306.386831 85.268621 
L 306.602321 85.148243 
L 306.710067 85.148243 
L 306.817812 85.027865 
L 307.033302 85.363203 
L 307.248792 85.251424 
L 307.356537 85.346006 
L 307.464282 85.139644 
L 307.895263 85.517975 
L 308.110753 85.311613 
L 308.218498 85.423392 
L 308.326243 85.260022 
L 308.433988 85.320211 
L 308.541734 85.535172 
L 308.757224 85.440589 
L 308.864969 85.483581 
L 308.972714 85.294416 
L 309.403694 85.65555 
L 309.619185 85.474983 
L 309.72693 85.586762 
L 309.834675 85.449188 
L 309.94242 85.49218 
L 310.050165 85.672747 
L 310.265655 85.414794 
L 310.3734 85.466384 
L 310.481146 85.311613 
L 310.696636 85.578164 
L 310.804381 85.440589 
L 311.019871 85.595361 
L 311.127616 85.466384 
L 311.343107 85.681345 
L 311.450852 85.560967 
L 311.558597 85.698542 
L 311.666342 85.560967 
L 311.881832 85.767329 
L 312.097322 85.569566 
L 312.205067 85.621156 
L 312.312813 85.423392 
L 312.528303 85.853314 
L 312.636048 85.612558 
L 312.743793 85.750133 
L 312.851538 85.698542 
L 312.959283 85.363203 
L 313.174774 85.664148 
L 313.282519 85.586762 
L 313.390264 85.732936 
L 313.498009 85.560967 
L 313.713499 85.904904 
L 313.821244 85.70714 
L 314.036734 85.879109 
L 314.14448 85.672747 
L 314.35997 85.801723 
L 314.467715 85.621156 
L 314.57546 85.827518 
L 314.683205 85.672747 
L 314.898695 85.767329 
L 315.114186 85.646951 
L 315.221931 85.784526 
L 315.329676 85.65555 
L 315.545166 85.810322 
L 315.652911 85.517975 
L 315.976147 85.664148 
L 316.191637 85.664148 
L 316.299382 85.569566 
L 316.622617 85.724337 
L 317.161343 85.225628 
L 317.592323 85.346006 
L 317.700068 85.363203 
L 317.807814 85.260022 
L 317.915559 85.388999 
L 318.131049 85.208432 
L 318.238794 85.406195 
L 318.454284 85.234227 
L 318.669774 85.191235 
L 318.77752 85.156841 
L 318.885265 85.303014 
L 319.100755 85.251424 
L 319.2085 85.285817 
L 319.42399 85.21703 
L 319.854971 85.294416 
L 319.962716 85.199833 
L 320.070461 85.363203 
L 320.501441 85.113849 
L 320.609187 85.122447 
L 320.716932 85.294416 
L 320.932422 85.122447 
L 321.040167 85.139644 
L 321.147912 85.002069 
L 321.363402 85.303014 
L 321.794383 85.079455 
L 321.902128 85.225628 
L 322.117618 85.182636 
L 322.225363 85.251424 
L 322.440854 85.070857 
L 322.548599 85.113849 
L 322.656344 84.967676 
L 322.871834 85.148243 
L 322.979579 85.019266 
L 323.195069 85.122447 
L 323.302814 85.002069 
L 323.41056 85.165439 
L 323.62605 85.019266 
L 323.733795 85.199833 
L 323.949285 84.94188 
L 324.05703 85.070857 
L 324.164775 84.881691 
L 324.380266 84.94188 
L 324.488011 84.623738 
L 324.703501 84.606542 
L 324.811246 84.554951 
L 324.918991 84.812904 
L 325.134481 84.735518 
L 325.349972 84.847298 
L 325.565462 84.967676 
L 325.673207 84.718321 
L 325.888697 84.804305 
L 325.996442 84.494762 
L 326.211933 84.675329 
L 326.319678 84.408778 
L 326.535168 84.649534 
L 326.642913 84.623738 
L 326.858403 84.907487 
L 326.966148 84.898888 
L 327.181639 84.967676 
L 327.397129 85.079455 
L 327.504874 84.924683 
L 327.720364 85.062258 
L 327.828109 85.010668 
L 328.0436 85.088054 
L 328.151345 84.950479 
L 328.366835 85.088054 
L 328.47458 85.027865 
L 328.582325 85.122447 
L 328.797815 85.027865 
L 328.90556 85.182636 
L 329.121051 85.096652 
L 329.228796 85.165439 
L 329.444286 85.122447 
L 329.875267 85.070857 
L 330.198502 84.967676 
L 330.521737 85.010668 
L 330.952718 84.907487 
L 331.060463 84.924683 
L 331.168208 84.821502 
L 331.383698 84.898888 
L 331.814679 84.769912 
L 332.030169 84.838699 
L 332.137914 84.769912 
L 332.245659 84.855896 
L 332.461149 84.701124 
L 332.67664 84.735518 
L 333.215365 84.658132 
L 333.5386 84.632337 
L 333.646346 84.494762 
L 333.861836 84.675329 
L 333.969581 84.511959 
L 334.400561 84.666731 
L 334.616052 84.623738 
L 334.723797 84.675329 
L 334.831542 84.511959 
L 335.047032 84.787109 
L 335.154777 84.61514 
L 335.370267 84.666731 
L 335.693503 84.589345 
L 336.016738 84.61514 
L 336.124483 84.554951 
L 336.232228 84.752715 
L 336.339974 84.580746 
L 336.878699 84.77851 
L 336.986444 84.649534 
L 337.094189 84.718321 
L 337.201934 84.640935 
L 337.417425 84.812904 
L 337.632915 84.597943 
L 337.74066 84.72692 
L 337.95615 84.597943 
L 338.063895 84.701124 
L 338.17164 84.50336 
L 338.387131 84.658132 
L 338.494876 84.554951 
L 338.602621 84.838699 
L 338.818111 84.675329 
L 338.925856 84.804305 
L 339.033601 84.701124 
L 339.249092 84.864494 
L 339.464582 84.769912 
L 339.895562 84.77851 
L 340.003307 84.72692 
L 340.218798 84.838699 
L 340.542033 84.864494 
L 340.649778 84.718321 
L 341.080759 84.907487 
L 341.296249 84.812904 
L 341.403994 84.924683 
L 341.511739 84.838699 
L 341.619484 84.967676 
L 341.834974 84.761313 
L 342.050465 84.916085 
L 342.15821 84.821502 
L 342.265955 84.94188 
L 342.481445 84.838699 
L 342.58919 84.907487 
L 342.80468 84.881691 
L 342.912426 84.933282 
L 343.127916 84.795707 
L 343.343406 84.821502 
L 343.666641 84.718321 
L 343.882132 84.838699 
L 344.313112 84.72692 
L 344.420857 84.873093 
L 344.636347 84.718321 
L 344.744093 84.873093 
L 344.959583 84.666731 
L 345.067328 84.77851 
L 345.390563 84.675329 
L 345.713799 84.718321 
L 345.821544 84.606542 
L 346.037034 84.77851 
L 346.144779 84.606542 
L 346.252524 84.761313 
L 346.683505 84.666731 
L 348.299681 84.830101 
L 348.407427 84.94188 
L 348.515172 84.709723 
L 348.730662 84.993471 
L 348.946152 84.916085 
L 349.484878 84.933282 
L 349.592623 85.070857 
L 350.131348 84.881691 
L 350.239094 84.950479 
L 350.346839 84.838699 
L 350.562329 85.079455 
L 350.777819 85.062258 
L 350.885564 85.10525 
L 350.993309 85.002069 
L 351.101054 85.122447 
L 351.2088 85.002069 
L 351.42429 85.251424 
L 351.532035 85.045061 
L 351.747525 85.251424 
L 351.963015 85.113849 
L 352.178506 85.045061 
L 352.286251 85.251424 
L 352.501741 85.079455 
L 352.609486 85.191235 
L 352.717231 85.036463 
L 352.932721 85.182636 
L 353.148212 84.993471 
L 353.255957 85.191235 
L 353.471447 85.165439 
L 353.579192 85.225628 
L 353.686937 85.036463 
L 353.902427 85.139644 
L 354.010173 84.993471 
L 354.117918 85.191235 
L 354.333408 85.010668 
L 354.441153 85.208432 
L 354.656643 85.10525 
L 354.764388 85.225628 
L 354.979879 85.113849 
L 355.303114 85.148243 
L 355.626349 85.122447 
L 356.27282 85.027865 
L 356.596055 85.122447 
L 356.703801 84.976274 
L 356.919291 85.165439 
L 357.134781 85.036463 
L 357.242526 85.10525 
L 357.350271 84.993471 
L 357.565761 85.122447 
L 357.673507 84.984872 
L 357.888997 85.05366 
L 357.996742 84.967676 
L 358.104487 85.122447 
L 358.643213 84.950479 
L 358.750958 85.045061 
L 358.966448 84.916085 
L 359.074193 84.967676 
L 359.181938 84.830101 
L 359.289683 85.010668 
L 359.828409 84.72692 
L 359.936154 84.933282 
L 360.151644 84.812904 
L 360.259389 84.94188 
L 360.47488 84.804305 
L 360.582625 84.881691 
L 360.69037 84.787109 
L 360.90586 84.873093 
L 361.013605 84.804305 
L 361.229095 84.924683 
L 361.336841 84.812904 
L 361.444586 84.916085 
L 361.660076 84.744116 
L 361.767821 84.950479 
L 361.875566 84.864494 
L 361.983311 84.924683 
L 362.091056 85.113849 
L 362.306547 84.898888 
L 362.414292 84.933282 
L 362.522037 84.735518 
L 362.737527 84.812904 
L 362.845272 84.623738 
L 363.060762 84.795707 
L 363.168507 84.61514 
L 363.276253 84.821502 
L 363.383998 84.709723 
L 363.599488 84.94188 
L 363.707233 84.812904 
L 363.922723 84.976274 
L 364.030468 84.881691 
L 364.245959 85.070857 
L 364.353704 84.950479 
L 364.569194 85.010668 
L 364.676939 84.976274 
L 364.892429 85.088054 
L 365.000174 84.984872 
L 365.10792 85.174038 
L 365.215665 85.002069 
L 365.431155 85.156841 
L 365.646645 85.079455 
L 365.75439 85.208432 
L 365.862135 85.079455 
L 366.077626 85.122447 
L 366.508606 85.096652 
L 366.616351 85.21703 
L 366.831841 85.036463 
L 367.047332 85.139644 
L 367.262822 85.174038 
L 367.478312 85.139644 
L 368.124783 85.156841 
L 368.340273 85.045061 
L 368.448018 85.191235 
L 368.663508 85.027865 
L 368.878999 85.096652 
L 369.202234 85.002069 
L 369.417724 85.199833 
L 369.633214 85.191235 
L 369.95645 85.139644 
L 370.279685 85.139644 
L 370.602921 85.251424 
L 371.141646 85.191235 
L 371.249391 85.311613 
L 371.464881 85.156841 
L 371.788117 85.260022 
L 372.326842 85.148243 
L 372.434587 85.285817 
L 372.650078 85.21703 
L 372.757823 85.242825 
L 372.865568 85.070857 
L 373.081058 85.234227 
L 373.296548 85.199833 
L 373.512039 85.10525 
L 373.619784 85.337408 
L 373.835274 85.139644 
L 373.943019 85.208432 
L 374.158509 85.070857 
L 374.374 85.199833 
L 374.58949 85.234227 
L 374.697235 85.096652 
L 374.80498 85.208432 
L 375.02047 84.993471 
L 375.235961 85.10525 
L 375.343706 84.967676 
L 375.451451 85.122447 
L 375.666941 84.984872 
L 375.774686 85.079455 
L 375.882431 84.916085 
L 376.097921 85.027865 
L 376.205667 84.89029 
L 376.421157 84.959077 
L 376.528902 84.907487 
L 376.636647 85.010668 
L 376.852137 84.830101 
L 377.283118 85.070857 
L 377.390863 84.821502 
L 377.606353 84.94188 
L 377.714098 84.77851 
L 377.929588 84.950479 
L 378.037334 84.838699 
L 378.360569 84.993471 
L 378.576059 84.959077 
L 378.683804 84.864494 
L 378.791549 85.010668 
L 379.00704 84.950479 
L 379.114785 85.010668 
L 379.22253 84.916085 
L 379.43802 85.088054 
L 379.545765 84.924683 
L 379.761255 85.096652 
L 379.869001 84.993471 
L 379.976746 85.070857 
L 380.192236 85.019266 
L 380.299981 85.131046 
L 380.515471 85.019266 
L 380.623216 85.113849 
L 380.838707 85.036463 
L 380.946452 85.10525 
L 381.054197 85.010668 
L 381.377432 85.088054 
L 381.592922 85.174038 
L 381.700667 85.131046 
L 381.808413 85.21703 
L 382.023903 85.070857 
L 382.239393 85.165439 
L 382.347138 85.096652 
L 382.454883 85.242825 
L 382.885864 85.113849 
L 383.316844 85.260022 
L 383.532334 85.088054 
L 383.747825 85.234227 
L 383.85557 85.131046 
L 384.07106 85.165439 
L 384.178805 85.156841 
L 384.28655 85.260022 
L 384.502041 85.156841 
L 384.609786 85.21703 
L 384.717531 85.10525 
L 384.933021 85.242825 
L 385.148511 85.199833 
L 385.256256 85.208432 
L 385.364001 85.088054 
L 385.579492 85.182636 
L 385.902727 85.191235 
L 386.010472 85.122447 
L 386.118217 85.337408 
L 386.225962 85.131046 
L 386.764688 85.320211 
L 386.872433 85.156841 
L 387.303414 85.346006 
L 387.518904 85.199833 
L 387.626649 85.268621 
L 387.842139 85.21703 
L 387.949884 85.311613 
L 388.380865 84.967676 
L 388.596355 85.148243 
L 388.811845 84.967676 
L 389.027335 84.804305 
L 389.135081 84.916085 
L 389.350571 84.761313 
L 389.889296 85.002069 
L 390.104787 85.182636 
L 390.212532 85.191235 
L 390.320277 85.423392 
L 390.535767 85.225628 
L 390.643512 85.3804 
L 391.505473 85.036463 
L 391.613218 85.096652 
L 391.720963 84.976274 
L 391.936454 85.208432 
L 392.044199 85.174038 
L 392.259689 85.423392 
L 393.12165 85.65555 
L 393.33714 85.526573 
L 393.444885 85.500778 
L 393.55263 85.337408 
L 393.768121 85.397597 
L 393.875866 85.285817 
L 394.091356 85.371802 
L 394.199101 85.388999 
L 394.414591 85.595361 
L 394.737827 85.698542 
L 394.845572 85.689944 
L 394.953317 85.861912 
L 395.168807 85.715739 
L 395.276552 85.715739 
L 395.492042 85.535172 
L 395.707533 85.431991 
L 396.030768 85.156841 
L 396.138513 85.320211 
L 396.354003 85.199833 
L 396.569494 85.354605 
L 396.677239 85.320211 
L 396.784984 85.54377 
L 396.892729 85.474983 
L 397.108219 85.629755 
L 397.215964 85.535172 
L 397.431454 85.603959 
L 397.646945 85.483581 
L 397.862435 85.3804 
L 397.97018 85.517975 
L 398.18567 85.457786 
L 398.293415 85.578164 
L 398.508906 85.431991 
L 398.616651 85.423392 
L 398.724396 85.10525 
L 398.832141 85.242825 
L 399.155376 85.208432 
L 399.370867 85.242825 
L 399.694102 85.526573 
L 399.801847 85.664148 
L 400.017337 85.578164 
L 400.125082 85.724337 
L 400.340573 85.535172 
L 400.448318 85.646951 
L 400.663808 85.388999 
L 401.202534 85.156841 
L 401.310279 85.346006 
L 401.525769 85.346006 
L 401.633514 85.586762 
L 401.849004 85.49218 
L 401.956749 85.689944 
L 402.17224 85.65555 
L 402.279985 85.741534 
L 402.38773 85.509377 
L 402.495475 85.569566 
L 402.710965 85.406195 
L 402.81871 85.474983 
L 403.034201 85.156841 
L 403.141946 85.260022 
L 403.249691 85.148243 
L 404.111652 85.500778 
L 404.219397 85.457786 
L 404.434887 85.629755 
L 404.542632 85.483581 
L 404.758122 85.517975 
L 405.189103 85.199833 
L 405.296848 85.225628 
L 405.404593 85.113849 
L 405.512338 85.208432 
L 405.727828 85.122447 
L 405.943319 85.363203 
L 406.051064 85.268621 
L 406.697534 85.689944 
L 406.913025 85.672747 
L 407.882731 85.32881 
L 408.313711 85.54377 
L 408.421456 85.509377 
L 408.636947 85.724337 
L 408.852437 85.65555 
L 408.960182 85.724337 
L 409.175672 85.431991 
L 409.498907 85.277219 
L 409.714398 85.122447 
L 409.822143 85.199833 
L 410.037633 85.088054 
L 410.145378 85.268621 
L 410.360868 85.234227 
L 410.576359 85.423392 
L 410.684104 85.397597 
L 410.791849 85.509377 
L 411.007339 85.449188 
L 411.115084 85.449188 
L 411.330574 85.337408 
L 411.43832 85.311613 
L 411.546065 85.096652 
L 411.65381 85.131046 
L 411.8693 84.94188 
L 412.300281 85.036463 
L 412.515771 85.002069 
L 412.839006 85.320211 
L 413.054496 85.242825 
L 413.485477 85.354605 
L 413.593222 85.156841 
L 413.700967 85.21703 
L 414.239693 84.795707 
L 414.455183 84.933282 
L 414.562928 84.864494 
L 414.886163 85.156841 
L 415.317144 85.346006 
L 415.424889 85.285817 
L 415.640379 85.363203 
L 415.748124 85.225628 
L 415.855869 85.268621 
L 415.855869 85.268621 
" style="fill:none;stroke:#1f77b4;stroke-linecap:square;stroke-width:1.5;"/>
   </g>
   <g id="patch_3">
    <path d="M 57.6 150.582857 
L 57.6 42.1632 
" style="fill:none;stroke:#000000;stroke-linecap:square;stroke-linejoin:miter;stroke-width:0.8;"/>
   </g>
   <g id="patch_4">
    <path d="M 415.817143 150.582857 
L 415.817143 42.1632 
" style="fill:none;stroke:#000000;stroke-linecap:square;stroke-linejoin:miter;stroke-width:0.8;"/>
   </g>
   <g id="patch_5">
    <path d="M 57.6 150.582857 
L 415.817143 150.582857 
" style="fill:none;stroke:#000000;stroke-linecap:square;stroke-linejoin:miter;stroke-width:0.8;"/>
   </g>
   <g id="patch_6">
    <path d="M 57.6 42.1632 
L 415.817143 42.1632 
" style="fill:none;stroke:#000000;stroke-linecap:square;stroke-linejoin:miter;stroke-width:0.8;"/>
   </g>
  </g>
 </g>
 <defs>
  <clipPath id="p9415bad14c">
   <rect height="108.419657" width="358.217143" x="57.6" y="42.1632"/>
  </clipPath>
 </defs>
</svg>
