<?xml version="1.0" encoding="UTF-8" standalone="no"?>
<!-- Created with Inkscape (http://www.inkscape.org/) -->

<svg
   xmlns:dc="http://purl.org/dc/elements/1.1/"
   xmlns:cc="http://creativecommons.org/ns#"
   xmlns:rdf="http://www.w3.org/1999/02/22-rdf-syntax-ns#"
   xmlns:svg="http://www.w3.org/2000/svg"
   xmlns="http://www.w3.org/2000/svg"
   xmlns:sodipodi="http://sodipodi.sourceforge.net/DTD/sodipodi-0.dtd"
   xmlns:inkscape="http://www.inkscape.org/namespaces/inkscape"
   width="131.2803mm"
   height="95.751945mm"
   viewBox="0 0 465.16643 339.27855"
   id="svg4714"
   version="1.1"
   inkscape:version="0.91 r13725"
   sodipodi:docname="oscillator_raw.svg">
  <defs
     id="defs4716">
    <marker
       inkscape:stockid="Arrow1Lstart"
       orient="auto"
       refY="0.0"
       refX="0.0"
       id="Arrow1Lstart"
       style="overflow:visible"
       inkscape:isstock="true">
      <path
         id="path21035"
         d="M 0.0,0.0 L 5.0,-5.0 L -12.5,0.0 L 5.0,5.0 L 0.0,0.0 z "
         style="fill-rule:evenodd;stroke:#000000;stroke-width:1pt;stroke-opacity:1;fill:#000000;fill-opacity:1"
         transform="scale(0.8) translate(12.5,0)" />
    </marker>
    <marker
       inkscape:stockid="Arrow1Lend"
       orient="auto"
       refY="0.0"
       refX="0.0"
       id="marker34600"
       style="overflow:visible;"
       inkscape:isstock="true">
      <path
         id="path34602"
         d="M 0.0,0.0 L 5.0,-5.0 L -12.5,0.0 L 5.0,5.0 L 0.0,0.0 z "
         style="fill-rule:evenodd;stroke:#000000;stroke-width:1pt;stroke-opacity:1;fill:#000000;fill-opacity:1"
         transform="scale(0.8) rotate(180) translate(12.5,0)" />
    </marker>
    <marker
       inkscape:stockid="Arrow1Lend"
       orient="auto"
       refY="0.0"
       refX="0.0"
       id="marker34596"
       style="overflow:visible;"
       inkscape:isstock="true">
      <path
         id="path34598"
         d="M 0.0,0.0 L 5.0,-5.0 L -12.5,0.0 L 5.0,5.0 L 0.0,0.0 z "
         style="fill-rule:evenodd;stroke:#000000;stroke-width:1pt;stroke-opacity:1;fill:#000000;fill-opacity:1"
         transform="scale(0.8) rotate(180) translate(12.5,0)" />
    </marker>
    <marker
       inkscape:stockid="Arrow1Lend"
       orient="auto"
       refY="0.0"
       refX="0.0"
       id="marker34592"
       style="overflow:visible;"
       inkscape:isstock="true">
      <path
         id="path34594"
         d="M 0.0,0.0 L 5.0,-5.0 L -12.5,0.0 L 5.0,5.0 L 0.0,0.0 z "
         style="fill-rule:evenodd;stroke:#000000;stroke-width:1pt;stroke-opacity:1;fill:#000000;fill-opacity:1"
         transform="scale(0.8) rotate(180) translate(12.5,0)" />
    </marker>
    <marker
       inkscape:stockid="Arrow1Mend"
       orient="auto"
       refY="0.0"
       refX="0.0"
       id="Arrow1Mend"
       style="overflow:visible;"
       inkscape:isstock="true">
      <path
         id="path21044"
         d="M 0.0,0.0 L 5.0,-5.0 L -12.5,0.0 L 5.0,5.0 L 0.0,0.0 z "
         style="fill-rule:evenodd;stroke:#000000;stroke-width:1pt;stroke-opacity:1;fill:#000000;fill-opacity:1"
         transform="scale(0.4) rotate(180) translate(10,0)" />
    </marker>
    <marker
       inkscape:stockid="Arrow1Lend"
       orient="auto"
       refY="0.0"
       refX="0.0"
       id="Arrow1Lend"
       style="overflow:visible;"
       inkscape:isstock="true">
      <path
         id="path21038"
         d="M 0.0,0.0 L 5.0,-5.0 L -12.5,0.0 L 5.0,5.0 L 0.0,0.0 z "
         style="fill-rule:evenodd;stroke:#000000;stroke-width:1pt;stroke-opacity:1;fill:#000000;fill-opacity:1"
         transform="scale(0.8) rotate(180) translate(12.5,0)" />
    </marker>
  </defs>
  <sodipodi:namedview
     id="base"
     pagecolor="#ffffff"
     bordercolor="#666666"
     borderopacity="1.0"
     inkscape:pageopacity="0.0"
     inkscape:pageshadow="2"
     inkscape:zoom="2.8"
     inkscape:cx="200.07868"
     inkscape:cy="167.14259"
     inkscape:document-units="px"
     inkscape:current-layer="layer1"
     showgrid="false"
     fit-margin-top="0"
     fit-margin-left="0"
     fit-margin-right="0"
     fit-margin-bottom="0"
     inkscape:window-width="1873"
     inkscape:window-height="1056"
     inkscape:window-x="47"
     inkscape:window-y="24"
     inkscape:window-maximized="1" />
  <metadata
     id="metadata4719">
    <rdf:RDF>
      <cc:Work
         rdf:about="">
        <dc:format>image/svg+xml</dc:format>
        <dc:type
           rdf:resource="http://purl.org/dc/dcmitype/StillImage" />
        <dc:title />
      </cc:Work>
    </rdf:RDF>
  </metadata>
  <g
     inkscape:label="Layer 1"
     inkscape:groupmode="layer"
     id="layer1"
     transform="translate(-83.438225,-88.147506)">
    <path
       style="fill:#000000;stroke-width:0.60000002;stroke-miterlimit:4;stroke-dasharray:none"
       d="m 432.26257,333.21769 c -17.96594,-1.87878 -34.53933,-9.77288 -45.90259,-21.86393 -8.41127,-8.94999 -13.18152,-17.34636 -16.8983,-29.74358 -2.02825,-6.76518 -2.34003,-9.3991 -2.34003,-19.7687 0,-10.36959 0.31178,-13.00352 2.34003,-19.7687 7.43872,-24.81163 24.22538,-41.59611 49.01397,-49.00755 10.51662,-3.14433 27.15396,-3.35208 37.82766,-0.47235 23.23949,6.26994 41.72232,23.32241 49.35233,45.53304 5.39836,15.71438 5.35574,32.00355 -0.12465,47.64274 -1.45179,4.14295 -2.7292,7.90878 -2.83868,8.36851 -0.10947,0.45972 2.19367,1.8296 5.1181,3.04416 7.10337,2.95013 16.94167,3.11021 22.1548,0.36049 6.8659,-3.6215 11.0228,-9.57108 14.41746,-20.63507 7.67368,-25.01023 -2.35145,-59.08649 -19.79535,-67.28608 -2.55761,-1.20222 -5.67175,-1.8322 -9.01307,-1.82332 -6.24385,0.0166 -7.87823,0.83366 -6.56729,3.28319 0.87801,1.64056 0.45506,1.83585 -6.77648,3.12899 -4.24212,0.75857 -7.77736,1.31794 -7.85609,1.24305 -0.0787,-0.0749 2.2064,-2.72828 5.07805,-5.89642 4.24758,-4.68611 5.38372,-5.51237 6.09276,-4.43096 0.66482,1.01396 2.71859,1.33037 8.65792,1.33384 9.37471,0.005 12.68067,1.37394 19.24081,7.96454 10.61727,10.66659 16.9857,32.9171 14.69574,51.34514 -1.63676,13.17158 -6.82906,25.47893 -12.54915,29.74536 -5.34714,3.98826 -7.30979,4.67442 -14.48723,5.06493 -6.75009,0.36727 -10.8205,-0.44906 -18.31122,-3.6723 -1.12902,-0.48582 -2.36008,0.67617 -5.26522,4.96979 -12.05431,17.81563 -30.46934,28.65405 -53.11633,31.26236 l -4.91121,0.56563 c -2.40437,0.11654 -4.83215,-0.23534 -7.23674,-0.4868 z m 19.97665,-2.77088 c 32.4381,-6.66668 56.01428,-35.54238 56.01428,-68.60533 0,-23.00785 -11.00549,-43.8686 -30.40419,-57.63075 -12.48691,-8.85867 -27.10229,-12.93189 -43.54696,-12.13628 -30.5055,1.47587 -55.89783,22.10668 -64.05459,52.0432 -2.18472,8.01823 -2.18472,27.42943 0,35.44767 2.17059,7.96637 7.55276,18.86082 12.64209,25.58979 9.38611,12.41004 26.02381,22.57238 42.12824,25.73201 6.48155,1.27165 19.95135,1.05377 27.22113,-0.44031 z m -269.21815,2.19897 c -8.61553,-1.30687 -19.44965,-5.34748 -27.06514,-10.094 -7.01471,-4.37208 -17.65343,-14.26227 -20.46923,-19.02905 -0.88496,-1.49812 -2.01686,-2.53911 -2.51534,-2.31332 -10.03374,4.54493 -12.7434,5.2855 -19.51635,5.33399 -6.25718,0.0448 -7.64765,-0.25835 -11.84326,-2.58219 -7.843494,-4.34429 -12.660221,-11.4979 -16.233595,-24.10947 -1.563633,-5.51856 -1.959229,-9.19265 -1.939218,-18.01026 0.02854,-12.55649 1.416232,-19.31452 5.821775,-28.35105 5.357642,-10.98945 13.930508,-16.84473 24.662818,-16.84473 3.34745,0 4.29298,-0.35476 4.96607,-1.8632 0.7875,-1.76486 1.18043,-1.5776 7.4465,3.54892 6.04449,4.94524 6.71119,5.27796 7.72863,3.85712 13.00036,-18.1547 29.60989,-28.38744 50.72726,-31.25183 4.14214,-0.56184 7.67918,-1.16955 7.86009,-1.35046 2.33957,-0.2023 4.65158,0.65289 6.98509,0.91598 25.79335,2.88438 46.74836,17.01593 57.82124,38.99325 5.42921,10.77582 7.31699,19.12111 7.31699,32.346 0,8.44729 -0.44459,12.76067 -1.87252,18.16694 -6.54759,24.78963 -26.5364,44.77362 -50.95806,50.94577 -8.44688,2.1348 -21.11686,2.8758 -28.92375,1.69159 z m 24.97555,-2.15854 c 32.31348,-6.79735 55.6555,-35.5875 55.6555,-68.64576 0,-38.54169 -31.30556,-70.00916 -69.64894,-70.00916 -49.89582,0 -83.9911,50.63758 -65.03961,96.59542 7.02354,17.03226 21.67341,31.58082 38.81414,38.54572 11.63463,4.72758 27.75397,6.13586 40.21891,3.51378 z m -81.02718,-28.24976 c 3.04628,-1.39248 5.5387,-2.60096 5.5387,-2.6855 0,-0.0845 -1.41156,-3.01898 -3.1368,-6.52096 -5.03283,-10.21598 -6.80447,-18.3366 -6.80447,-31.18954 0,-12.85316 1.77164,-20.97355 6.80481,-31.1902 2.36201,-4.79456 2.86335,-6.54177 2.02905,-7.07152 -0.60944,-0.38697 -4.2419,-0.70969 -8.07213,-0.71715 l -6.96406,-0.0136 0.55605,-2.21548 c 0.54444,-2.1692 0.45048,-2.21548 -4.49819,-2.21548 -16.069671,0 -27.73785,18.26644 -27.73785,43.4234 0,19.7277 7.262493,35.61401 19.03396,41.63574 5.31708,2.71997 15.81268,2.16035 23.25093,-1.23974 z"
       id="path5273"
       inkscape:connector-curvature="0"
       sodipodi:nodetypes="csssssssscssssssscsscsssssssccsssssssssssssssssssssssccssssssssssscsssssscsssscc" />
    <path
       style="fill:none;fill-rule:evenodd;stroke:#000000;stroke-width:1.00000012;stroke-linecap:butt;stroke-linejoin:miter;stroke-miterlimit:4;stroke-dasharray:none;stroke-opacity:1;marker-end:url(#marker34592)"
       d="m 193.79533,190.2832 c 54.64286,-33.92857 185.71427,-36.07143 245.71429,0.35714"
       id="path34584"
       inkscape:connector-curvature="0"
       sodipodi:nodetypes="cc" />
    <path
       style="fill:none;fill-rule:evenodd;stroke:#000000;stroke-width:1px;stroke-linecap:butt;stroke-linejoin:miter;stroke-opacity:1;marker-start:url(#Arrow1Lstart)"
       d="m 187.7239,332.06891 c 68.2143,54.64286 207.14285,43.21429 254.28572,0.35715"
       id="path34586"
       inkscape:connector-curvature="0"
       sodipodi:nodetypes="cc" />
  </g>
</svg>
