<?xml version="1.0" encoding="UTF-8" standalone="no"?>
<!-- Created with Inkscape (http://www.inkscape.org/) -->

<svg
   xmlns:dc="http://purl.org/dc/elements/1.1/"
   xmlns:cc="http://creativecommons.org/ns#"
   xmlns:rdf="http://www.w3.org/1999/02/22-rdf-syntax-ns#"
   xmlns:svg="http://www.w3.org/2000/svg"
   xmlns="http://www.w3.org/2000/svg"
   xmlns:sodipodi="http://sodipodi.sourceforge.net/DTD/sodipodi-0.dtd"
   xmlns:inkscape="http://www.inkscape.org/namespaces/inkscape"
   width="175.05627mm"
   height="50.044338mm"
   viewBox="0 0 620.27814 177.32246"
   id="svg2"
   version="1.1"
   inkscape:version="0.91 r13725"
   sodipodi:docname="teaser_image.svg">
  <defs
     id="defs4">
    <inkscape:perspective
       sodipodi:type="inkscape:persp3d"
       inkscape:vp_x="152.69822 : 1075.2241 : 1"
       inkscape:vp_y="0 : 543.44242 : 0"
       inkscape:vp_z="889.06577 : 967.54455 : 1"
       inkscape:persp3d-origin="364.31343 : 581.82614 : 1"
       id="perspective4496" />
  </defs>
  <sodipodi:namedview
     id="base"
     pagecolor="#ffffff"
     bordercolor="#666666"
     borderopacity="1.0"
     inkscape:pageopacity="0.0"
     inkscape:pageshadow="2"
     inkscape:zoom="1.28"
     inkscape:cx="320.7253"
     inkscape:cy="43.259992"
     inkscape:document-units="px"
     inkscape:current-layer="layer1"
     showgrid="false"
     inkscape:window-width="1920"
     inkscape:window-height="1056"
     inkscape:window-x="1920"
     inkscape:window-y="24"
     inkscape:window-maximized="1"
     fit-margin-top="0"
     fit-margin-left="0"
     fit-margin-right="0"
     fit-margin-bottom="0" />
  <metadata
     id="metadata7">
    <rdf:RDF>
      <cc:Work
         rdf:about="">
        <dc:format>image/svg+xml</dc:format>
        <dc:type
           rdf:resource="http://purl.org/dc/dcmitype/StillImage" />
        <dc:title></dc:title>
      </cc:Work>
    </rdf:RDF>
  </metadata>
  <g
     inkscape:label="Layer 1"
     inkscape:groupmode="layer"
     id="layer1"
     transform="translate(-62.330302,-88.379328)">
    <path
       style="fill:#8a7500;fill-opacity:1;fill-rule:evenodd;stroke:#4a3700;stroke-width:0.81287628px;stroke-linecap:butt;stroke-linejoin:miter;stroke-opacity:1"
       d="m 561.1931,183.62135 13.19718,2.17543 9.11799,3.58165 c 0.50177,0.1971 1.58821,2.32314 1.58821,2.32314 l 5.40325,7.38482 4.86828,6.79405 3.69133,5.95709 4.01232,5.85862 3.26335,5.31708 3.79833,6.00632 1.33744,3.34779 c 0,0 1.17695,0.44309 1.49793,0.59078 0.32098,0.14771 2.94236,-0.93541 3.20985,-0.83694 0.26749,0.0984 0.48148,1.13234 0.48148,1.13234 0,0 -1.65843,0.19692 -1.87241,0.24615 -0.214,0.0492 -2.56788,0.24617 -2.56788,0.24617 l -1.71193,-1.18158 -0.90946,-2.65854 -5.99173,-9.99412 -6.90119,-10.53569 -6.4197,-9.5018 -6.15222,-8.32024 -1.14351,-0.60924 -3.51746,-1.9539 -2.30374,-1.14158 c 0,0 -8.10822,-1.79697 -8.91068,-1.35388 -0.80247,0.4431 -7.15196,-0.85233 -7.15196,-0.85233 z"
       id="path4328-4"
       inkscape:connector-curvature="0"
       sodipodi:nodetypes="ccsccccccccscccccccccccccscc" />
    <path
       style="fill:#8a7500;fill-opacity:1;fill-rule:evenodd;stroke:#4a3700;stroke-width:1px;stroke-linecap:butt;stroke-linejoin:miter;stroke-opacity:1"
       d="m 511.92055,212.0946 -12.87944,-11.30108 -7.26047,-6.06091 -0.63135,0.3788 -0.56821,5.87151 -1.19955,7.82869 -0.82075,2.90418 -3.21986,11.36422 -1.19956,2.90419 -3.34613,1.70463 -3.09359,1.32583 -4.79823,-1.8309 1.70464,-1.76777 3.21986,2.27284 1.13642,-0.44194 4.41941,-2.27284 1.6415,-4.41942 0.56821,-0.88388 3.4724,-13.95274 0.75762,-6.43972 0.44194,-5.24016 0.82075,-1.6415 1.07328,0.1894 2.33598,2.14658 6.31346,5.42957 5.80837,5.11389 5.87151,4.9245 1.95718,1.64149 z"
       id="path4322-6"
       inkscape:connector-curvature="0" />
    <path
       style="fill:#818181;fill-opacity:1;fill-rule:evenodd;stroke:#000000;stroke-width:1px;stroke-linecap:butt;stroke-linejoin:miter;stroke-opacity:1"
       d="m 641.99357,183.60688 40.00358,74.64469 -0.93222,-99.64406"
       id="path4524-6-4"
       inkscape:connector-curvature="0"
       sodipodi:nodetypes="cc" />
    <path
       style="fill:#818181;fill-opacity:1;fill-rule:evenodd;stroke:#000000;stroke-width:1px;stroke-linecap:butt;stroke-linejoin:miter;stroke-opacity:1"
       d="m 642.04976,183.88105 0.82864,-73.74902 38.15098,48.6471"
       id="path4526-0-3"
       inkscape:connector-curvature="0"
       sodipodi:nodetypes="ccc" />
    <path
       style="fill:#818181;fill-opacity:1;fill-rule:evenodd;stroke:#000000;stroke-width:1px;stroke-linecap:butt;stroke-linejoin:miter;stroke-opacity:1"
       d="m 656.22488,258.23634 25.87891,-0.29297 -0.92774,-99.31641 -26.02539,0.19531 z"
       id="path4548-5"
       inkscape:connector-curvature="0" />
    <path
       style="fill:#c7c7c7;fill-opacity:1;fill-rule:evenodd;stroke:#000000;stroke-width:1px;stroke-linecap:butt;stroke-linejoin:miter;stroke-opacity:1"
       d="m 655.25623,159.01319 -38.39369,-49.02792 26.03313,-0.20716 38.04842,48.88981 z"
       id="path4550-1"
       inkscape:connector-curvature="0" />
    <path
       style="fill:#d7d7d7;fill-opacity:1;fill-rule:evenodd;stroke:#000000;stroke-width:1px;stroke-linecap:butt;stroke-linejoin:miter;stroke-opacity:1"
       d="m 616.11582,183.87445 40.00358,74.64469 -0.93222,-99.64406"
       id="path4524-7"
       inkscape:connector-curvature="0"
       sodipodi:nodetypes="cc" />
    <path
       style="fill:#d7d7d7;fill-opacity:1;fill-rule:evenodd;stroke:#000000;stroke-width:1px;stroke-linecap:butt;stroke-linejoin:miter;stroke-opacity:1"
       d="m 616.17201,184.14862 0.82864,-73.74902 38.15098,48.6471"
       id="path4526-4"
       inkscape:connector-curvature="0"
       sodipodi:nodetypes="ccc" />
    <path
       style="fill:#818181;fill-opacity:1;fill-rule:evenodd;stroke:#000000;stroke-width:1px;stroke-linecap:butt;stroke-linejoin:miter;stroke-opacity:1"
       d="m 302.51088,182.70931 40.00358,74.64468 -0.93222,-99.64405"
       id="path4524-6"
       inkscape:connector-curvature="0"
       sodipodi:nodetypes="cc" />
    <path
       style="fill:#818181;fill-opacity:1;fill-rule:evenodd;stroke:#000000;stroke-width:1px;stroke-linecap:butt;stroke-linejoin:miter;stroke-opacity:1"
       d="m 302.56707,182.98348 0.82864,-73.74902 38.15098,48.6471"
       id="path4526-0"
       inkscape:connector-curvature="0"
       sodipodi:nodetypes="ccc" />
    <path
       style="fill:none;fill-rule:evenodd;stroke:#000000;stroke-width:1px;stroke-linecap:butt;stroke-linejoin:miter;stroke-opacity:1"
       d="m 206.84904,184.13609 c 0,0 28.78935,-62.50319 44.82552,-77.90801 16.03617,-15.404831 18.18274,-20.455594 25.50635,-15.5311"
       id="path4334"
       inkscape:connector-curvature="0" />
    <path
       style="fill:#818181;fill-opacity:1;fill-rule:evenodd;stroke:#000000;stroke-width:1px;stroke-linecap:butt;stroke-linejoin:miter;stroke-opacity:1"
       d="m 316.74219,257.33876 25.87891,-0.29297 -0.92774,-99.3164 -26.02539,0.19531 z"
       id="path4548"
       inkscape:connector-curvature="0" />
    <path
       style="fill:#8a7500;fill-opacity:1;fill-rule:evenodd;stroke:#4a3700;stroke-width:1px;stroke-linecap:butt;stroke-linejoin:miter;stroke-opacity:1"
       d="m 167.62219,198.15196 c 0.0631,-0.31568 -0.56821,-3.15673 0.25254,-3.21986 0.82075,-0.0631 1.64149,0.12626 1.64149,0.12626 l 1.89404,2.39912 3.34613,4.67195 6.18719,7.57615 c 0,0 5.4927,7.19733 5.80837,7.3236 0.31567,0.12627 2.65165,3.4724 2.65165,3.4724 l 2.65165,4.54569 1.8309,-0.44194 c 0,0 0.63135,-1.38896 0.88389,-1.26269 0.25254,0.12626 1.51523,1.32582 1.51523,1.32582 l -1.19956,0.56821 c 0,0 -1.45209,0.25254 -1.6415,0.63135 -0.1894,0.3788 -1.01015,0.94702 -1.01015,0.94702 l -1.07329,-1.38896 -0.88388,-0.82075 -0.88388,-2.20971 -2.33598,-2.90419 -6.7554,-8.83884 -5.87151,-7.26047 -1.13642,-1.07328 c 0,0 -3.59867,-4.79823 -3.85121,-4.67196 -0.25253,0.12627 -1.95717,0.75761 -1.95717,0.75761 z"
       id="path4326"
       inkscape:connector-curvature="0" />
    <path
       style="fill:#8a7500;fill-opacity:1;fill-rule:evenodd;stroke:#4a3700;stroke-width:1px;stroke-linecap:butt;stroke-linejoin:miter;stroke-opacity:1"
       d="m 200.07334,190.19701 c 0,0 8.7757,-6.69227 9.91212,-8.3969 1.13642,-1.70463 6.12405,-9.34391 6.7554,-9.21764 0.63134,0.12627 2.84105,2.84105 2.84105,2.84105 l 6.37659,9.47018 5.74524,8.71257 4.35628,7.63928 4.73509,7.51301 3.85121,6.81853 4.48255,7.70241 1.57837,4.29315 c 0,0 1.38896,0.56821 1.76776,0.75761 0.37881,0.18941 3.4724,-1.19955 3.78807,-1.07328 0.31568,0.12627 0.56822,1.45209 0.56822,1.45209 0,0 -1.95718,0.25254 -2.20971,0.31567 -0.25254,0.0631 -3.03046,0.31568 -3.03046,0.31568 l -2.02031,-1.51523 -1.07328,-3.40927 -7.07107,-12.81631 -8.14436,-13.51079 -7.57614,-12.18496 -7.26047,-10.66974 -1.07329,-0.50508 -1.38896,0.94702 -5.61897,7.51301 c 0,0 -2.52538,3.21986 -3.4724,3.78807 -0.94702,0.56822 -2.77792,2.08344 -2.77792,2.08344 z"
       id="path4328"
       inkscape:connector-curvature="0" />
    <path
       style="fill:#8a7500;fill-opacity:1;fill-rule:evenodd;stroke:#4a3700;stroke-width:1px;stroke-linecap:butt;stroke-linejoin:miter;stroke-opacity:1"
       d="m 63.134534,208.37975 c 1.010153,-0.25254 8.081221,-2.77792 8.081221,-2.77792 l 4.798224,2.27285 7.071068,2.0203 6.200668,-0.0328 c 0,0 9.285714,-0.35714 9.642857,-0.26785 0.357143,0.0893 11.249998,-1.16072 11.249998,-1.16072 0,0 10,-1.78571 10.44643,-1.69643 0.44643,0.0893 10.80357,-2.05357 10.80357,-2.05357 l 10.35714,-1.25 c 0,0 17.32143,-2.23214 20.26786,-3.125 2.94643,-0.89286 8.48214,-2.85714 11.78572,-3.125 3.30357,-0.26786 26.51785,-7.05357 26.51785,-7.05357 l 3.4375,-3.79464 2.54465,-2.63393 3.83928,0.58036 2.18751,4.64286 3.25892,0.75892 c 0,0 3.39286,1.60714 1.60715,3.48214 l -2.76787,2.67858 c -1.54761,1.01191 -4.39785,3.45398 -8.48213,10e-6 l -2.09822,-1.16072 -1.29465,-0.13393 -2.85714,0.31249 -3.21428,-0.17857 L 180,198.79077 c 0,0 -2.94643,1.33929 -3.30357,1.42858 -0.35714,0.0893 -1.69643,0.98214 -1.69643,0.98214 l -1.33929,0.26786 -1.33928,1.42857 -1.51786,1.60714 -0.26786,1.96429 -1.42857,2.94642 -0.35714,1.60715 -1.78571,0.44643 -0.625,-1.69643 1.875,-3.57143 -0.44643,-2.76786 -2.58929,0.35714 -6.07143,1.16072 -8.66071,1.69643 -3.48214,0.98214 -4.375,2.85714 -1.69643,-0.53571 -0.17857,-2.23214 c 0,0 -10.35715,0.71428 -10.71429,0.80357 -0.35714,0.0893 -9.10714,1.78571 -9.10714,1.78571 0,0 -1.16072,-0.17857 -1.78572,0.0893 -0.625,0.26785 -7.58928,1.25 -7.58928,1.25 l -6.69643,0.71428 -5.089287,0.44643 -3.75,0.0893 -6.607143,0.17857 -3.482143,-0.26786 -5.714285,-0.26786 L 77.5,212.71935 75,212.9872 72.321429,210.75506 68.75,209.8622 l -4.642857,0 z"
       id="path4318"
       inkscape:connector-curvature="0"
       sodipodi:nodetypes="ccccccccccssccccccccccccccccccccccccccccccccccccccccccccccccc" />
    <path
       style="fill:#8a7500;fill-opacity:1;fill-rule:evenodd;stroke:#4a3700;stroke-width:1px;stroke-linecap:butt;stroke-linejoin:miter;stroke-opacity:1"
       d="m 141.16882,208.75856 c -0.25254,0.0631 -3.34613,-0.50508 -3.34613,-0.50508 l -7.32361,-1.26269 -5.1139,-1.01015 c 0,0 -6.18718,-1.32583 -6.69226,-1.32583 -0.50507,0 -3.40926,-0.69448 -4.10374,-0.82075 -0.69448,-0.12626 -2.52538,0.31568 -2.52538,0.31568 l -1.89404,3.91434 -4.48255,7.57614 -7.449875,12.0587 -4.04061,5.99778 c 0,0 -4.482552,6.06091 -4.798225,6.50286 -0.315672,0.44194 -5.429569,6.69226 -5.429569,6.69226 l -4.16688,4.16688 -3.788072,3.40926 -8.460027,1.32583 -0.252539,1.45209 c 0,0 0.947018,0 1.325826,0.0631 0.378807,0.0631 2.209708,-0.50508 2.209708,-0.50508 l 5.808378,-1.07329 0.694479,-1.26269 6.376588,-6.06091 1.010153,-0.25254 12.81631,-18.18275 7.639275,-10.92227 4.35629,-7.76555 3.40926,-5.42957 2.20971,0.0631 2.20971,0.18941 14.39467,2.77792 5.68211,0.88388 3.283,0.12627 z"
       id="path4320"
       inkscape:connector-curvature="0" />
    <path
       style="fill:#8a7500;fill-opacity:1;fill-rule:evenodd;stroke:#4a3700;stroke-width:1px;stroke-linecap:butt;stroke-linejoin:miter;stroke-opacity:1"
       d="m 136.37059,204.21287 -12.87944,-11.30108 -7.26047,-6.06091 -0.63135,0.3788 -0.56821,5.87151 -1.19955,7.82869 -0.82075,2.90418 -3.21986,11.36422 -1.19956,2.90419 -3.34613,1.70463 -3.09359,1.32583 -4.798228,-1.8309 1.704632,-1.76777 3.219866,2.27284 1.13642,-0.44194 4.41941,-2.27284 1.6415,-4.41942 0.56821,-0.88388 3.4724,-13.95274 0.75762,-6.43972 0.44194,-5.24016 0.82075,-1.6415 1.07328,0.1894 2.33598,2.14658 6.31346,5.42957 5.80837,5.11389 5.87151,4.9245 1.95718,1.64149 z"
       id="path4322"
       inkscape:connector-curvature="0" />
    <path
       style="fill:#8a7500;fill-opacity:1;fill-rule:evenodd;stroke:#4a3700;stroke-width:1px;stroke-linecap:butt;stroke-linejoin:miter;stroke-opacity:1"
       d="m 166.99084,211.53648 1.07329,3.91434 3.40926,15.08915 3.15673,10.79601 1.32583,7.63928 0.44194,5.80837 -0.12627,3.03046 1.76777,-0.25254 0.3788,-1.13642 -0.82075,-1.70463 -0.1894,-3.03046 -1.57836,-9.34391 -2.33598,-8.71257 -2.58852,-11.17481 -1.95717,-9.09137 -0.56821,-2.58852 z"
       id="path4324"
       inkscape:connector-curvature="0" />
    <path
       style="fill:#8a7500;fill-opacity:1;fill-rule:nonzero;stroke:#000000;stroke-width:0.5;stroke-linecap:round;stroke-miterlimit:4;stroke-dasharray:none;stroke-dashoffset:0;stroke-opacity:1"
       id="path4422"
       d="m 213.00671,196.44333 c -0.0555,0.009 -0.11135,0.0149 -0.16739,0.0189 -0.0481,0.003 -0.0963,0.003 -0.14448,0.003 -0.0447,5e-5 -0.0894,-5e-5 -0.13408,-1e-4 -0.0385,-0.01 -0.0772,-0.0163 -0.11664,-0.0196 -0.0374,-0.005 -0.0778,-0.0117 -0.11315,-0.0258 -0.0344,-0.0122 -0.0697,-0.0179 -0.1043,-0.0295 -0.0354,-0.007 -0.0673,-0.0225 -0.10253,-0.0298 -0.0348,-0.01 -0.0725,-0.0161 -0.10606,-0.0301 -0.0337,-0.0165 -0.0718,-0.014 -0.1068,-0.0249 -0.0362,-0.0125 -0.0744,-0.0155 -0.11237,-0.0176 -0.0448,10e-4 -0.088,-0.0109 -0.13207,-0.017 -0.0463,-0.005 -0.0911,-0.0193 -0.13541,-0.033 -0.0413,-0.007 -0.0793,-0.0249 -0.12026,-0.0335 -0.0365,-0.008 -0.0711,-0.0205 -0.10846,-0.0253 -0.0402,-0.002 -0.0752,-0.0229 -0.11275,-0.035 -0.0425,-0.008 -0.0835,-0.0219 -0.12632,-0.0292 -0.0369,-0.0173 -0.0779,-0.0197 -0.11629,-0.0312 -0.0412,-0.007 -0.08,-0.0211 -0.12022,-0.032 -0.0375,-0.006 -0.0745,-0.0164 -0.10966,-0.031 -0.0404,-0.0152 -0.0829,-0.0253 -0.12213,-0.0431 -0.0371,-0.0113 -0.0695,-0.0324 -0.1039,-0.0495 -0.0302,-0.0194 -0.0607,-0.0402 -0.0942,-0.0536 -0.0285,-0.0193 -0.0616,-0.0285 -0.0931,-0.0415 -0.0405,-0.007 -0.0756,-0.0287 -0.11392,-0.0427 -0.0362,-0.0218 -0.0761,-0.0367 -0.11285,-0.0572 -0.031,-0.0169 -0.0603,-0.0365 -0.091,-0.054 -0.0254,-0.0214 -0.055,-0.0365 -0.0826,-0.0551 -0.033,-0.0155 -0.0579,-0.0432 -0.0901,-0.0598 -0.0276,-0.02 -0.0587,-0.0337 -0.0875,-0.0522 -0.0372,-0.0229 -0.0785,-0.0368 -0.11654,-0.0581 -0.0396,-0.0207 -0.0834,-0.03 -0.12132,-0.0541 -0.0324,-0.019 -0.0693,-0.0266 -0.1022,-0.0446 -0.0358,-0.0171 -0.0654,-0.0446 -0.0982,-0.0665 -0.0393,-0.0308 -0.082,-0.0561 -0.12456,-0.0819 -0.0384,-0.0221 -0.0763,-0.0443 -0.11706,-0.0619 -0.0331,-0.02 -0.0681,-0.0356 -0.10081,-0.0564 -0.0343,-0.0203 -0.0679,-0.042 -0.10183,-0.0632 -0.035,-0.0198 -0.0692,-0.0406 -0.10452,-0.0598 -0.0288,-0.0244 -0.0585,-0.0479 -0.0847,-0.075 -0.0274,-0.0208 -0.0472,-0.0479 -0.0681,-0.0746 -0.0199,-0.0262 -0.0379,-0.0534 -0.0549,-0.0815 -0.0145,-0.0332 -0.0293,-0.0664 -0.0389,-0.10141 -0.0116,-0.03 -0.0201,-0.0613 -0.0385,-0.088 -0.0194,-0.0274 -0.0273,-0.0605 -0.0458,-0.0885 -0.0148,-0.0288 -0.0328,-0.0551 -0.0514,-0.0815 -0.0171,-0.0339 -0.0376,-0.0659 -0.0539,-0.10018 -0.0153,-0.0334 -0.0258,-0.0685 -0.0388,-0.10281 -0.002,-0.005 -0.004,-0.0108 -0.006,-0.0161 0,0 0.28986,-0.16151 0.28986,-0.16151 l 0,0 c 0.002,0.005 0.004,0.0108 0.006,0.0162 0.0132,0.0333 0.0223,0.0683 0.0375,0.10095 0.0151,0.0326 0.0349,0.0628 0.0513,0.0948 0.0191,0.0266 0.0368,0.0538 0.0522,0.0828 0.0178,0.0282 0.0274,0.0601 0.0456,0.088 0.0197,0.0303 0.0309,0.0641 0.0436,0.0977 0.008,0.0323 0.0221,0.0622 0.0345,0.0928 0.0165,0.027 0.0339,0.0532 0.0531,0.0784 0.0196,0.026 0.0405,0.0501 0.0657,0.0711 0.025,0.0242 0.0513,0.0475 0.0799,0.0674 0.0348,0.0205 0.0698,0.0405 0.10452,0.0611 0.0344,0.0205 0.0674,0.0431 0.10219,0.0628 0.0324,0.0186 0.0656,0.0356 0.0984,0.0535 0.0408,0.0196 0.0797,0.0423 0.11851,0.0655 0.0433,0.0259 0.0854,0.0536 0.12621,0.0832 0.0311,0.022 0.0612,0.0462 0.096,0.0623 0.0346,0.0152 0.0717,0.0252 0.10352,0.0463 0.0389,0.0201 0.0815,0.0317 0.11973,0.0535 0.0396,0.0196 0.081,0.0356 0.11853,0.0592 0.0293,0.0169 0.0594,0.0324 0.0873,0.0516 0.0307,0.0198 0.0583,0.0442 0.0908,0.0611 0.0278,0.0173 0.0558,0.0343 0.082,0.0538 0.0295,0.0182 0.0591,0.0365 0.0896,0.0529 0.0369,0.018 0.0733,0.0367 0.11037,0.0544 0.038,0.0156 0.0757,0.0311 0.11521,0.0429 0.0316,0.0134 0.0645,0.0238 0.0937,0.0425 0.0325,0.0167 0.0635,0.0361 0.0947,0.055 0.0332,0.0177 0.0667,0.0345 0.10221,0.0473 0.0402,0.0148 0.0812,0.0275 0.12159,0.0419 0.0358,0.0113 0.0717,0.0213 0.10842,0.0291 0.0394,0.0122 0.0792,0.0218 0.11933,0.0312 0.0389,0.008 0.077,0.0182 0.11495,0.0297 0.0434,0.009 0.0865,0.0209 0.12928,0.0328 0.0358,0.0132 0.071,0.0279 0.10971,0.0302 0.0372,0.007 0.0727,0.0203 0.10988,0.0274 0.0404,0.0112 0.0798,0.026 0.1208,0.0354 0.0434,0.0131 0.0877,0.0236 0.13276,0.0289 0.0435,0.007 0.0866,0.0149 0.13087,0.0148 0.0393,0.004 0.078,0.0103 0.11589,0.0219 0.037,0.006 0.074,0.0122 0.10876,0.0274 0.0346,0.01 0.0689,0.0203 0.10412,0.0276 0.0348,0.01 0.0686,0.0232 0.10394,0.0316 0.0346,0.0108 0.0708,0.0157 0.10441,0.0297 0.0358,0.009 0.0718,0.0181 0.10872,0.0202 0.0383,0.005 0.0759,0.0145 0.11438,0.0171 0.0446,5e-5 0.0893,1.6e-4 0.13389,-5e-5 0.0475,-4e-4 0.0951,-0.001 0.14246,-0.005 0.0568,-0.005 0.11321,-0.0137 0.17008,-0.0177 0,0 -0.26826,0.1949 -0.26826,0.1949 z"
       inkscape:connector-curvature="0" />
    <path
       style="fill:#8a7500;fill-opacity:1;fill-rule:evenodd;stroke:#4a3700;stroke-width:1px;stroke-linecap:butt;stroke-linejoin:miter;stroke-opacity:1"
       d="m 197.13961,195.02976 7.19734,1.19955 12.31123,1.4521 16.28871,3.4724 9.97526,3.21986 2.46224,0.1894 24.18053,18.87723 c 0,0 12.75318,11.30108 13.00571,11.42735 0.25254,0.12627 8.3969,7.44987 8.64943,7.63928 0.25254,0.1894 4.86136,4.92449 5.1139,5.17703 0.25254,0.25254 5.05076,1.32582 5.05076,1.32582 l 1.51523,0.25254 1.57837,0.88388 0.63134,-0.82075 -0.37881,-1.57836 -2.2097,0.56821 -2.27285,-0.31567 -3.40926,-1.32583 -2.84106,-2.46224 -5.87151,-5.61898 -0.1894,-0.50507 -1.13642,-1.01015 -27.71606,-23.04411 -12.12183,-9.72272 -1.32583,-0.31567 -1.32582,-1.45209 -30.24145,-7.00794 -3.91434,-0.25254 -5.42957,0.0631 -6.56599,-1.19956 z"
       id="path4330"
       inkscape:connector-curvature="0" />
    <path
       style="fill:#c7c7c7;fill-opacity:1;fill-rule:evenodd;stroke:#000000;stroke-width:1px;stroke-linecap:butt;stroke-linejoin:miter;stroke-opacity:1"
       d="m 315.77354,158.11562 -38.39369,-49.02792 26.03313,-0.20716 38.04842,48.88981 z"
       id="path4550"
       inkscape:connector-curvature="0" />
    <path
       style="fill:#d7d7d7;fill-opacity:1;fill-rule:evenodd;stroke:#000000;stroke-width:1px;stroke-linecap:butt;stroke-linejoin:miter;stroke-opacity:1"
       d="m 276.63313,182.97688 40.00358,74.64468 -0.93222,-99.64405"
       id="path4524"
       inkscape:connector-curvature="0"
       sodipodi:nodetypes="cc" />
    <path
       style="fill:#d7d7d7;fill-opacity:1;fill-rule:evenodd;stroke:#000000;stroke-width:1px;stroke-linecap:butt;stroke-linejoin:miter;stroke-opacity:1"
       d="m 276.68932,183.25105 0.82864,-73.74902 38.15098,48.6471"
       id="path4526"
       inkscape:connector-curvature="0"
       sodipodi:nodetypes="ccc" />
    <path
       style="fill:none;fill-rule:evenodd;stroke:#000000;stroke-width:1px;stroke-linecap:butt;stroke-linejoin:miter;stroke-opacity:1"
       d="m 206.82873,184.55551 c 0,0 22.4759,-26.76904 61.2405,-33.84011 38.76461,-7.07107 44.82552,-4.04061 52.52793,3.40926"
       id="path4332"
       inkscape:connector-curvature="0" />
    <ellipse
       style="fill:#8a7500;fill-opacity:1;fill-rule:nonzero;stroke:#000000;stroke-width:0.69708049;stroke-linecap:round;stroke-miterlimit:4;stroke-dasharray:none;stroke-dashoffset:0;stroke-opacity:1"
       id="path4336"
       cx="209.23001"
       cy="187.05606"
       rx="4.1149211"
       ry="5.325192" />
    <path
       style="fill:#ffffff;fill-opacity:1;fill-rule:nonzero;stroke:#000000;stroke-width:0.6984188;stroke-linecap:round;stroke-miterlimit:4;stroke-dasharray:none;stroke-dashoffset:0;stroke-opacity:1"
       d="m 210.63185,186.39136 c -0.0724,0.007 -0.14545,0.0143 -0.21783,0.0218 -0.0266,0.003 -0.042,0.0229 -0.0844,0.019 -0.0167,-0.001 -0.035,-0.004 -0.0517,-0.005 l 0,-0.003 c -0.005,3.4e-4 -0.0109,0.002 -0.0163,0.003 -0.0163,7.4e-4 -0.0327,-5e-5 -0.049,0 -0.0305,0.0186 -0.0666,0.0549 -0.13344,0.0545 -0.016,-0.001 -0.13084,-0.009 -0.1307,-0.0136 2.2e-4,-0.01 0.0168,-0.005 0.0245,-0.0109 0.007,-0.005 0.0127,-0.0109 0.0191,-0.0163 -0.0554,0.0276 -0.10855,0.0592 -0.1661,0.0817 -0.0337,0.0125 -0.176,-0.01 -0.22056,0 -0.0881,1e-5 -0.1761,7e-5 -0.26412,0 -0.0887,0 -0.17553,4e-4 -0.26414,0 -0.0866,-7.3e-4 -0.17494,-0.001 -0.26141,0.003 -0.0522,-4e-4 -0.10351,-0.005 -0.15521,-0.0109 -0.004,-4.2e-4 -0.007,4.6e-4 -0.0109,0 -0.0155,0.001 -0.0308,0.002 -0.0463,0.003 -0.0837,0.0435 -0.17424,0.065 -0.26958,0.0381 0.003,-0.002 0.005,-0.005 0.008,-0.008 -0.002,3.2e-4 -0.003,-3.1e-4 -0.005,0 -0.0135,0.007 -0.0266,0.0169 -0.0408,0.0218 -0.1043,0.0361 -0.15711,0.0516 -0.25597,0.0354 -0.008,-0.001 -0.0196,0.003 -0.0218,-0.005 -0.001,-0.007 0.0135,-0.004 0.0191,-0.008 0.0114,-0.006 0.036,-0.0246 0.0327,-0.0218 -0.002,1e-5 -0.004,-3e-5 -0.005,0 -0.0619,0.0481 -0.14387,0.0906 -0.22329,0.0735 0.003,-0.001 0.005,-0.004 0.008,-0.005 -0.0539,0.0208 -0.1076,0.0395 -0.16337,0.0545 -0.006,0.001 -0.0154,-3.1e-4 -0.0191,-0.005 -0.003,-0.003 0.008,-0.005 0.0109,-0.008 0.0139,-0.0212 0.002,-0.002 -0.0354,0.0136 -0.10442,0.0411 -0.14299,0.0531 -0.24233,0.0517 -0.0208,-2.7e-4 -0.0391,-0.001 -0.0599,-0.003 -0.0308,-0.003 -0.0646,0.002 -0.0926,-0.0109 0.0566,-0.0393 0.13478,-0.10087 -0.0272,0.0354 -0.0314,0.0112 -0.24779,0.0949 -0.27502,0.0899 -0.0415,0.0125 -0.0802,0.0372 -0.12253,0.0463 -0.0158,0.003 0.0272,-0.0157 0.0408,-0.0245 0.001,-0.001 -0.004,-2.2e-4 -0.005,0 -0.0454,0.0237 -0.0907,0.0472 -0.13614,0.0708 -0.0234,0.0109 -0.0324,0.0148 -0.0409,0.019 -0.0105,0.0155 -0.0207,0.0319 -0.0327,0.0463 -0.008,0.0112 -0.0237,0.0141 -0.0354,0.0218 -0.21981,0.0694 -0.17795,0.0675 -0.10348,0.0163 0.0703,-0.0482 -0.21252,0.12988 -0.0844,0.049 -0.0665,0.0439 -0.0256,0.0189 -0.17155,0.0708 -0.004,0.001 0.009,-0.005 0.0136,-0.008 0.0111,-0.007 0.0288,-0.0345 0.0327,-0.0218 0.0183,0.0591 -0.32982,-0.008 -0.20422,0.0599 0.007,0.004 0.002,0.006 0.0136,0.0109 0.0115,-0.006 0.05,-0.0268 0.0381,-0.0191 -0.0346,0.0226 -0.0369,0.004 -0.0327,0.0218 -0.004,-0.002 -0.002,-9.6e-4 -0.005,-0.003 -0.0254,0.0131 -0.0558,0.0284 -0.0844,0.0409 -0.0267,0.012 0.0685,-0.0314 0.0708,-0.0517 -0.0682,0.0529 -0.10445,0.0967 -0.17155,0.1171 -0.0441,0.0139 -0.0907,0.0207 -0.13614,0.0272 -0.004,6.9e-4 -0.0149,-0.003 -0.0109,-0.005 0.0282,-0.0262 0.0615,-0.0454 0.0926,-0.0681 0.008,-0.0641 0.0239,-0.12869 0.0245,-0.19333 1.3e-4,-0.0126 -0.0161,-0.0408 -0.0218,-0.03 -0.0632,0.12004 -0.10275,0.25049 -0.16065,0.37304 -0.003,0.004 -0.0105,-0.003 -0.0163,-0.003 -0.0956,0.0126 -0.18078,0.0365 -0.27501,0.0599 -0.12195,0.0304 -0.20914,0.0127 -0.27503,-0.0245 a 4.1142521,5.3465276 0 0 0 4.10624,5.05928 4.1142521,5.3465276 0 0 0 4.11441,-5.3452 4.1142521,5.3465276 0 0 0 -0.0218,-0.48468 c -0.0606,0.0682 -0.5298,-0.13564 -0.4983,-0.0218 0.0377,0.005 0.10085,9.9e-4 0.0762,0.005 -0.0291,0.006 -0.0496,-8.9e-4 -0.0735,-0.003 0.006,0.0174 0.0179,0.037 0.049,0.0708 l 0.0871,0.0953 c 0.0245,0.006 0.0474,0.0132 0.0708,0.0218 0.0201,0.008 -0.0417,-0.009 -0.0626,-0.0136 l -0.008,-0.008 c -0.0282,-0.006 -0.0564,-0.0111 -0.0817,-0.0245 -0.0327,-0.0172 -0.0964,-0.10056 -0.13342,-0.15249 -0.0347,-0.014 -0.0701,-0.0319 -0.10893,-0.0572 -0.0122,-0.008 -0.0234,-0.0217 -0.0299,-0.0327 -0.009,0.006 0.0116,0.0225 -0.0871,-0.0354 -0.0233,-0.0136 -0.0403,-0.0357 -0.0572,-0.0572 -0.0389,-0.0276 -0.0812,-0.0591 0.03,0.008 -0.0159,-0.009 -0.0303,-0.0189 -0.0463,-0.0272 l -0.003,0 c -0.009,-0.005 -0.021,-0.0115 -0.0299,-0.0163 -0.0438,-0.007 -0.0861,-0.0147 -0.0599,0 -0.0789,-4e-5 -0.15801,-0.004 -0.23689,-0.003 -0.10694,0.0139 -0.19616,0.0167 -0.29954,-0.0218 -0.0135,-0.005 -0.039,-0.008 -0.0408,-0.0191 l -0.21512,0 c -0.0881,0 -0.17606,7e-5 -0.26413,0 -0.0883,-5e-5 -0.17593,-9e-5 -0.26413,0 -0.0848,-3.5e-4 -0.16853,-0.004 -0.25324,0 -0.006,2.5e-4 -0.0127,-1.7e-4 -0.0191,0 -0.0508,5.8e-4 -0.10185,-0.006 -0.15248,0 z m 2.66851,0.17972 c 0.003,0.004 0.005,0.007 0.008,0.0109 0.0219,0.0268 0.0254,0.0402 0.0327,0.0572 a 4.1142521,5.3465276 0 0 0 -0.008,-0.0681 c -0.011,5e-4 -0.0217,5.4e-4 -0.0327,0 z m -7.66788,0.30497 c -0.0182,0.01 -0.0363,0.02 -0.0545,0.03 -0.0611,0.0412 -0.1286,0.064 -0.20151,0.0653 -0.0193,0.0147 -0.034,0.0383 -0.0572,0.0463 -0.009,0.0135 -0.0146,0.0279 -0.0245,0.0409 0.002,-6.7e-4 0.003,-0.002 0.005,-0.003 l -0.003,0.008 c 0.0705,-0.0177 0.15266,-0.0358 0.23146,-0.0517 0.002,-0.008 0.003,-0.0164 0.005,-0.0245 0.0813,-0.0345 0.10325,-0.0334 0.13887,-0.0436 -0.005,-0.021 -0.005,-0.0433 -0.005,-0.0654 -0.012,-9.5e-4 -0.0235,-0.002 -0.0354,-0.003 z m 1.11096,0.003 c -0.0157,0.0188 -0.03,0.0395 -0.0436,0.0599 0.008,-0.006 0.0121,-0.007 0.0191,-0.0136 0.0125,-0.0126 0.0358,-0.0596 0.0245,-0.0463 z"
       id="path4336-3"
       inkscape:connector-curvature="0" />
    <path
       style="fill:#8a7500;fill-opacity:1;fill-rule:nonzero;stroke:#000000;stroke-width:0.69708049;stroke-linecap:round;stroke-miterlimit:4;stroke-dasharray:none;stroke-dashoffset:0;stroke-opacity:1"
       id="path4418"
       d="m 212.15375,187.05446 c -0.0126,0.003 -0.0264,0.006 -0.039,0.01 -0.0407,0.0126 -0.0403,0.0157 -0.0767,0.0358 -0.0111,0.007 -0.0463,0.0251 -0.0349,0.0185 0.38522,-0.22156 0.47778,-0.28862 0.33697,-0.18867 -0.0446,0.0343 -0.075,0.0802 -0.1054,0.12631 -0.0233,0.0413 -0.0461,0.0821 -0.0586,0.12812 -0.0125,0.0519 -0.0322,0.10178 -0.0491,0.15244 -0.0226,0.0565 -0.0356,0.11586 -0.0554,0.17316 -0.0192,0.0492 -0.0284,0.0986 -0.0156,0.15023 0.0125,0.0427 0.0408,0.0796 0.0729,0.11014 0.0275,0.0354 0.0691,0.0535 0.10247,0.0824 0.0374,0.0227 0.0788,0.042 0.1206,0.0553 0.0537,0.0171 0.10707,0.0322 0.16325,0.0395 0.0576,-2.5e-4 0.11154,0.0191 0.16782,0.0283 0.0243,0.003 0.0289,0.006 0.0527,-7.7e-4 0.0293,-0.008 0.0559,-0.0275 0.0828,-0.0409 -0.12283,0.07 -0.24575,0.14009 -0.36862,0.21015 0.0485,-0.0319 0.0937,-0.0692 0.13552,-0.10945 0.036,-0.0287 0.058,-0.0698 0.0867,-0.10498 0.0266,-0.0369 0.0502,-0.075 0.0632,-0.11878 0.0112,-0.0539 0.0156,-0.11 0.0112,-0.1649 -0.004,-0.0475 -0.0226,-0.087 -0.0473,-0.12659 -0.0282,-0.0467 -0.0715,-0.0804 -0.10888,-0.1192 -0.0307,-0.0438 -0.0562,-0.0915 -0.0803,-0.13914 -0.0229,-0.0425 -0.0555,-0.0777 -0.0856,-0.11474 -0.0307,-0.0312 -0.0761,-0.0428 -0.11836,-0.0342 -0.053,0.007 -0.10275,0.0255 -0.15462,0.0378 -0.0531,0.01 -0.10163,0.0329 -0.15002,0.0552 0,0 0.3623,-0.28761 0.3623,-0.28761 l 0,0 c 0.0492,-0.022 0.10177,-0.0361 0.15426,-0.0482 0.053,-0.0146 0.10666,-0.0291 0.16202,-0.0296 0.0547,0.008 0.10498,0.0247 0.14139,0.0686 0.0328,0.0393 0.0654,0.0786 0.0901,0.1238 0.0222,0.0434 0.0456,0.087 0.0732,0.12701 0.0403,0.0406 0.0838,0.0788 0.1146,0.12757 0.028,0.045 0.0502,0.0908 0.0562,0.14436 0.01,0.0593 0.003,0.12004 -0.003,0.1794 -0.01,0.0548 -0.0258,0.0895 -0.0548,0.1358 -0.0262,0.0392 -0.0579,0.0746 -0.0834,0.11446 -0.0463,0.0368 -0.0857,0.0817 -0.13384,0.11655 -0.14074,0.0813 -0.28091,0.16355 -0.42221,0.24384 -0.0475,0.027 -0.10094,0.0309 -0.15351,0.0192 -0.0554,-0.0112 -0.11,-0.0238 -0.16661,-0.0276 -0.0577,-0.0111 -0.11362,-0.0277 -0.16936,-0.0464 -0.0449,-0.0187 -0.091,-0.0374 -0.12924,-0.068 -0.0362,-0.0275 -0.0765,-0.0505 -0.10512,-0.0868 -0.0354,-0.0381 -0.0679,-0.0803 -0.0838,-0.1305 -0.0181,-0.059 -0.0183,-0.11711 0.003,-0.17569 0.0206,-0.0567 0.0337,-0.11516 0.0565,-0.1713 0.0139,-0.0506 0.0326,-0.0994 0.0502,-0.14877 0.008,-0.0535 0.0265,-0.0948 0.052,-0.14184 0.0282,-0.0514 0.0606,-0.0988 0.10066,-0.14189 0.16915,-0.15292 0.38773,-0.26387 0.60745,-0.3285 0,0 -0.36615,0.28192 -0.36615,0.28192 z"
       inkscape:connector-curvature="0" />
    <path
       style="fill:#8a7500;fill-opacity:1;fill-rule:nonzero;stroke:#000000;stroke-width:0.5;stroke-linecap:round;stroke-miterlimit:4;stroke-dasharray:none;stroke-dashoffset:0;stroke-opacity:1"
       id="path4424"
       d="m 207.70267,194.14382 c 0.0146,-0.0582 0.0333,-0.11529 0.0485,-0.17332 0.008,-0.041 0.0206,-0.0809 0.0314,-0.12126 0.0136,-0.0357 0.0284,-0.0713 0.0453,-0.10569 0.0176,-0.0356 0.0299,-0.0734 0.046,-0.10964 0.0116,-0.0337 0.029,-0.064 0.0489,-0.0934 0.0925,-0.097 0.2772,-0.17834 0.35895,-0.22605 0.005,-0.003 0.0211,-0.0119 0.0158,-0.009 -0.0893,0.0515 -0.1784,0.10356 -0.26816,0.15436 -0.005,0.003 0.01,-0.008 0.0151,-0.0112 0.0995,-0.0587 0.20195,-0.11245 0.29938,-0.17449 0.0871,-0.0555 -0.17868,0.10358 -0.26838,0.15475 -0.005,0.003 0.01,-0.007 0.0147,-0.01 0.10297,-0.0736 0.21403,-0.12152 0.32526,-0.19302 0.0874,-0.0562 -0.17977,0.10428 -0.27004,0.15575 -0.011,0.006 0.0205,-0.0149 0.0303,-0.023 0.0327,-0.029 0.0638,-0.0599 0.10006,-0.0845 0.12269,-0.0844 0.24479,-0.187 0.3933,-0.21243 0.0427,-0.008 0.0873,2.8e-4 0.12936,-0.0103 0.0242,-0.01 0.0513,-0.007 0.0761,-0.0132 0.0115,-0.003 0.0221,-0.008 0.0333,-0.012 0.0397,-0.008 0.0773,-0.0221 0.11741,-0.0291 0.0451,-0.003 0.0881,-0.0163 0.13275,-0.023 0.045,-0.006 0.0903,-0.006 0.13559,-0.007 0.0443,0.002 0.0894,-0.005 0.13297,0.004 0.0313,0.009 0.0634,0.0126 0.0957,0.0153 0,0 -0.27004,0.19193 -0.27004,0.19193 l 0,0 c -0.0324,-0.004 -0.0643,-0.0104 -0.0964,-0.0161 -0.0431,-0.002 -0.0864,-5.1e-4 -0.12962,-4.4e-4 -0.0444,0.001 -0.0889,0.003 -0.13261,0.0108 -0.044,0.008 -0.0878,0.0175 -0.1321,0.0241 -0.039,0.01 -0.0774,0.0216 -0.11621,0.0318 -0.0366,0.01 -0.0748,0.0135 -0.112,0.0212 -0.0426,0.002 -0.0858,0.002 -0.12746,0.0125 -0.0172,0.005 -0.0219,0.006 -0.0381,0.0139 -0.006,0.003 -0.0233,0.013 -0.0175,0.01 0.46067,-0.26921 0.32994,-0.19532 0.23371,-0.1343 -0.0336,0.0271 -0.0723,0.0484 -0.10138,0.0817 -0.0979,0.0953 -0.14175,0.0905 -0.32516,0.20095 -0.0889,0.0535 0.17892,-0.10504 0.26865,-0.15711 0.01,-0.006 -0.0402,0.0248 -0.0265,0.0215 -0.10544,0.0601 -0.20588,0.11736 -0.31339,0.18387 -0.0876,0.0542 0.17764,-0.10423 0.2668,-0.15578 0.005,-0.003 -0.0101,0.007 -0.0154,0.0104 -0.26185,0.15619 -0.19973,0.12088 -0.31407,0.18562 0.0897,-0.0525 0.17943,-0.10508 0.26915,-0.15762 -0.004,0.003 -0.009,0.005 -0.0131,0.009 -0.0123,0.0101 -0.0239,0.0212 -0.0371,0.0302 -0.004,0.003 -0.009,0.005 -0.0138,0.007 -0.0249,0.0222 -0.0426,0.0533 -0.0533,0.0847 -0.0161,0.0366 -0.0311,0.0733 -0.0455,0.11066 -0.0162,0.0339 -0.0322,0.0675 -0.0467,0.10221 -0.0168,0.037 -0.0223,0.0803 -0.0341,0.1191 -0.0139,0.0585 -0.0368,0.11432 -0.0469,0.17381 0,0 -0.2994,0.1422 -0.2994,0.1422 z"
       inkscape:connector-curvature="0" />
    <path
       style="fill:none;fill-rule:evenodd;stroke:#000000;stroke-width:1px;stroke-linecap:butt;stroke-linejoin:miter;stroke-opacity:1"
       d="m 569.11775,173.07251 c 0,0 36.60185,-45.12038 52.63802,-60.5252 16.03617,-15.404829 21.69837,-6.97902 29.02198,-2.05453"
       id="path4334-6"
       inkscape:connector-curvature="0"
       sodipodi:nodetypes="csc" />
    <path
       style="fill:#8a7500;fill-opacity:1;fill-rule:evenodd;stroke:#4a3700;stroke-width:1.09857953px;stroke-linecap:butt;stroke-linejoin:miter;stroke-opacity:1"
       d="m 538.81419,202.16819 c 0.061,-0.39395 -0.54951,-3.93945 0.24423,-4.01823 0.79373,-0.0787 1.58746,0.15756 1.58746,0.15756 l 1.83169,2.994 3.236,5.83037 5.98353,9.45469 c 0,0 5.31191,8.98194 5.61719,9.13952 0.30528,0.15758 2.56437,4.33339 2.56437,4.33339 l 2.56437,5.67282 1.77063,-0.55153 c 0,0 0.61057,-1.73336 0.8548,-1.57578 0.24423,0.15757 1.46536,1.65456 1.46536,1.65456 l -1.16008,0.70911 c 0,0 -1.40429,0.31515 -1.58747,0.78789 -0.18317,0.47272 -0.9769,1.18184 -0.9769,1.18184 l -1.03796,-1.73336 -0.85479,-1.02426 -0.85479,-2.75761 -2.25909,-3.6243 -6.53304,-11.03047 -5.67825,-9.06073 -1.09901,-1.3394 c 0,0 -3.48022,-5.98797 -3.72444,-5.83039 -0.24423,0.15758 -1.89275,0.94547 -1.89275,0.94547 z"
       id="path4326-7"
       inkscape:connector-curvature="0" />
    <path
       style="fill:#8a7500;fill-opacity:1;fill-rule:evenodd;stroke:#4a3700;stroke-width:1px;stroke-linecap:butt;stroke-linejoin:miter;stroke-opacity:1"
       d="m 440.72126,240.45989 c 0.88036,-0.55602 6.80574,-5.16768 6.80574,-5.16768 l 5.26852,0.65686 7.34813,-0.29437 5.87886,-1.97189 c 0,0 8.70738,-3.24553 9.07453,-3.2725 0.36715,-0.027 10.32147,-4.62353 10.32147,-4.62353 0,0 8.93866,-4.82588 9.3906,-4.88081 0.45195,-0.0549 9.61802,-5.33179 9.61802,-5.33179 l 9.44553,-4.42887 c 0,0 15.75251,-7.54141 18.27144,-9.31161 2.51894,-1.7702 7.16172,-5.3684 10.21548,-6.65679 3.05375,-1.28838 22.97782,-14.99897 22.97782,-14.99897 l 2.07711,-4.67988 1.5924,-3.29804 3.82803,-0.65045 3.53077,3.72492 3.33271,-0.29922 c 0,0 3.72541,0.46446 2.61628,2.80417 l -1.79044,3.41031 c -1.15314,1.44545 -3.09583,4.65692 -8.05596,2.65482 l -2.35609,-0.44568 -1.27152,0.27801 -2.61578,1.19104 -3.10868,0.83644 -14.40245,9.07071 c 0,0 -2.37921,2.1942 -2.69046,2.39078 -0.31124,0.1966 -1.30379,1.46376 -1.30379,1.46376 l -1.18817,0.67359 -0.82486,1.77597 -0.93858,2.00147 0.3604,1.94943 -0.4346,3.24551 0.16382,1.63818 -1.55626,0.98291 -1.12456,-1.41558 0.66298,-3.97884 -1.29031,-2.48907 -2.34742,1.14962 -5.40309,3.00269 -7.6946,4.3219 -2.99979,2.02267 -3.26093,4.08291 -1.77887,0.0222 -0.86823,-2.0641 c 0,0 -9.61321,3.92007 -9.92446,4.11665 -0.31125,0.1966 -8.09066,4.54643 -8.09066,4.54643 0,0 -1.15829,0.19369 -1.66805,0.64372 -0.50977,0.45001 -6.81674,3.56256 -6.81674,3.56256 l -6.13641,2.7743 -4.69385,2.01689 -3.53364,1.25852 -6.2193,2.23756 -3.39102,0.83547 -5.51102,1.53411 -2.48811,1.00795 -2.29055,1.03687 -3.24263,-1.28163 -3.67144,0.26982 -4.40958,1.45316 z"
       id="path4318-3"
       inkscape:connector-curvature="0"
       sodipodi:nodetypes="ccccccccccssccccccccccccccccccccccccccccccccccccccccccccccccc" />
    <path
       style="fill:#8a7500;fill-opacity:1;fill-rule:evenodd;stroke:#4a3700;stroke-width:1px;stroke-linecap:butt;stroke-linejoin:miter;stroke-opacity:1"
       d="m 516.71878,216.64029 c -0.25254,0.0631 -3.34613,-0.50508 -3.34613,-0.50508 l -7.32361,-1.26269 -5.1139,-1.01015 c 0,0 -6.18718,-1.32583 -6.69226,-1.32583 -0.50507,0 -3.40926,-0.69448 -4.10374,-0.82075 -0.69448,-0.12626 -2.52538,0.31568 -2.52538,0.31568 l -1.89404,3.91434 -4.48255,7.57614 -7.44987,12.0587 -4.04061,5.99778 c 0,0 -4.48255,6.06091 -4.79823,6.50286 -0.31567,0.44194 -5.42957,6.69226 -5.42957,6.69226 l -4.16688,4.16688 -3.78807,3.40926 -8.46003,1.32583 -0.25253,1.45209 c 0,0 0.94701,0 1.32582,0.0631 0.37881,0.0631 2.20971,-0.50508 2.20971,-0.50508 l 5.80838,-1.07329 0.69448,-1.26269 6.37658,-6.06091 1.01016,-0.25254 12.81631,-18.18275 7.63927,-10.92227 4.35629,-7.76555 3.40926,-5.42957 2.20971,0.0631 2.20971,0.18941 14.39467,2.77792 5.68211,0.88388 3.283,0.12627 z"
       id="path4320-5"
       inkscape:connector-curvature="0" />
    <path
       style="fill:#8a7500;fill-opacity:1;fill-rule:evenodd;stroke:#4a3700;stroke-width:1.07874763px;stroke-linecap:butt;stroke-linejoin:miter;stroke-opacity:1"
       d="m 539.8272,210.23197 1.06413,4.5943 3.38018,17.71029 3.12979,12.67139 1.31452,8.9663 0.43817,6.81734 -0.12519,3.55688 1.75269,-0.2964 0.37557,-1.33383 -0.81375,-2.00074 -0.18779,-3.55689 -1.56489,-10.96704 -2.31605,-10.22603 -2.56643,-13.11599 -1.94048,-10.67064 -0.56336,-3.03817 z"
       id="path4324-2"
       inkscape:connector-curvature="0" />
    <path
       style="fill:#8a7500;fill-opacity:1;fill-rule:nonzero;stroke:#000000;stroke-width:0.5;stroke-linecap:round;stroke-miterlimit:4;stroke-dasharray:none;stroke-dashoffset:0;stroke-opacity:1"
       id="path4422-9"
       d="m 578.71315,182.70572 c -0.0555,0.009 -0.11135,0.0149 -0.16739,0.0189 -0.0481,0.003 -0.0963,0.003 -0.14448,0.003 -0.0447,5e-5 -0.0894,-5e-5 -0.13408,-1e-4 -0.0385,-0.01 -0.0772,-0.0163 -0.11664,-0.0196 -0.0374,-0.005 -0.0778,-0.0117 -0.11315,-0.0258 -0.0344,-0.0122 -0.0697,-0.0179 -0.1043,-0.0295 -0.0354,-0.007 -0.0673,-0.0225 -0.10253,-0.0298 -0.0348,-0.01 -0.0725,-0.0161 -0.10606,-0.0301 -0.0337,-0.0165 -0.0718,-0.014 -0.1068,-0.0249 -0.0362,-0.0125 -0.0744,-0.0155 -0.11237,-0.0176 -0.0448,0.001 -0.088,-0.0109 -0.13207,-0.017 -0.0463,-0.005 -0.0911,-0.0193 -0.13541,-0.033 -0.0413,-0.007 -0.0793,-0.0249 -0.12026,-0.0335 -0.0365,-0.008 -0.0711,-0.0205 -0.10846,-0.0253 -0.0402,-0.002 -0.0752,-0.0229 -0.11275,-0.035 -0.0425,-0.008 -0.0835,-0.0219 -0.12632,-0.0292 -0.0369,-0.0173 -0.0779,-0.0197 -0.11629,-0.0312 -0.0412,-0.007 -0.08,-0.0211 -0.12022,-0.032 -0.0375,-0.006 -0.0745,-0.0164 -0.10966,-0.031 -0.0404,-0.0152 -0.0829,-0.0253 -0.12213,-0.0431 -0.0371,-0.0113 -0.0695,-0.0324 -0.1039,-0.0495 -0.0302,-0.0194 -0.0607,-0.0402 -0.0942,-0.0536 -0.0285,-0.0193 -0.0616,-0.0285 -0.0931,-0.0415 -0.0405,-0.007 -0.0756,-0.0287 -0.11392,-0.0427 -0.0362,-0.0218 -0.0761,-0.0367 -0.11285,-0.0572 -0.031,-0.0169 -0.0603,-0.0365 -0.091,-0.054 -0.0254,-0.0214 -0.055,-0.0365 -0.0826,-0.0551 -0.033,-0.0155 -0.0579,-0.0432 -0.0901,-0.0598 -0.0276,-0.02 -0.0587,-0.0337 -0.0875,-0.0522 -0.0372,-0.0229 -0.0785,-0.0368 -0.11654,-0.0581 -0.0396,-0.0207 -0.0834,-0.03 -0.12132,-0.0541 -0.0324,-0.019 -0.0693,-0.0266 -0.1022,-0.0446 -0.0358,-0.0171 -0.0654,-0.0446 -0.0982,-0.0665 -0.0393,-0.0308 -0.082,-0.0561 -0.12456,-0.0819 -0.0384,-0.0221 -0.0763,-0.0443 -0.11706,-0.0619 -0.0331,-0.02 -0.0681,-0.0356 -0.10081,-0.0564 -0.0343,-0.0203 -0.0679,-0.042 -0.10183,-0.0632 -0.035,-0.0198 -0.0692,-0.0406 -0.10452,-0.0598 -0.0288,-0.0244 -0.0585,-0.0479 -0.0847,-0.075 -0.0274,-0.0208 -0.0472,-0.0479 -0.0681,-0.0746 -0.0199,-0.0262 -0.0379,-0.0534 -0.0549,-0.0815 -0.0145,-0.0332 -0.0293,-0.0664 -0.0389,-0.10141 -0.0116,-0.03 -0.0201,-0.0613 -0.0385,-0.088 -0.0194,-0.0274 -0.0273,-0.0605 -0.0458,-0.0885 -0.0148,-0.0288 -0.0328,-0.0551 -0.0514,-0.0815 -0.0171,-0.0339 -0.0376,-0.0659 -0.0539,-0.10018 -0.0153,-0.0334 -0.0258,-0.0685 -0.0388,-0.10281 -0.002,-0.005 -0.004,-0.0108 -0.006,-0.0161 0,0 0.28986,-0.16151 0.28986,-0.16151 l 0,0 c 0.002,0.005 0.004,0.0108 0.006,0.0162 0.0132,0.0333 0.0223,0.0683 0.0375,0.10095 0.0151,0.0326 0.0349,0.0628 0.0513,0.0948 0.0191,0.0266 0.0368,0.0538 0.0522,0.0828 0.0178,0.0282 0.0274,0.0601 0.0456,0.088 0.0197,0.0303 0.0309,0.0641 0.0436,0.0977 0.008,0.0323 0.0221,0.0622 0.0345,0.0928 0.0165,0.027 0.0339,0.0532 0.0531,0.0784 0.0196,0.026 0.0405,0.0501 0.0657,0.0711 0.025,0.0242 0.0513,0.0475 0.0799,0.0674 0.0348,0.0205 0.0698,0.0405 0.10452,0.0611 0.0344,0.0205 0.0674,0.0431 0.10219,0.0628 0.0324,0.0186 0.0656,0.0356 0.0984,0.0535 0.0408,0.0196 0.0797,0.0423 0.11851,0.0655 0.0433,0.0259 0.0854,0.0536 0.12621,0.0832 0.0311,0.022 0.0612,0.0462 0.096,0.0623 0.0346,0.0152 0.0717,0.0252 0.10352,0.0463 0.0389,0.0201 0.0815,0.0317 0.11973,0.0535 0.0396,0.0196 0.081,0.0356 0.11853,0.0592 0.0293,0.0169 0.0594,0.0324 0.0873,0.0516 0.0307,0.0198 0.0583,0.0442 0.0908,0.0611 0.0278,0.0173 0.0558,0.0343 0.082,0.0538 0.0295,0.0182 0.0591,0.0365 0.0896,0.0529 0.0369,0.018 0.0733,0.0367 0.11037,0.0544 0.038,0.0156 0.0757,0.0311 0.11521,0.0429 0.0316,0.0134 0.0645,0.0238 0.0937,0.0425 0.0325,0.0167 0.0635,0.0361 0.0947,0.055 0.0332,0.0177 0.0667,0.0345 0.10221,0.0473 0.0402,0.0148 0.0812,0.0275 0.12159,0.0419 0.0358,0.0113 0.0717,0.0213 0.10842,0.0291 0.0394,0.0122 0.0792,0.0218 0.11933,0.0312 0.0389,0.008 0.077,0.0182 0.11495,0.0297 0.0434,0.009 0.0865,0.0209 0.12928,0.0328 0.0358,0.0132 0.071,0.0279 0.10971,0.0302 0.0372,0.007 0.0727,0.0203 0.10988,0.0274 0.0404,0.0112 0.0798,0.026 0.1208,0.0354 0.0434,0.0131 0.0877,0.0236 0.13276,0.0289 0.0435,0.007 0.0866,0.0149 0.13087,0.0148 0.0393,0.004 0.078,0.0103 0.11589,0.0219 0.037,0.006 0.074,0.0122 0.10876,0.0274 0.0346,0.01 0.0689,0.0203 0.10412,0.0276 0.0348,0.01 0.0686,0.0232 0.10394,0.0316 0.0346,0.0108 0.0708,0.0157 0.10441,0.0297 0.0358,0.009 0.0718,0.0181 0.10872,0.0202 0.0383,0.005 0.0759,0.0145 0.11438,0.0171 0.0446,5e-5 0.0893,1.6e-4 0.13389,-5e-5 0.0475,-4e-4 0.0951,-0.001 0.14246,-0.005 0.0568,-0.005 0.11321,-0.0137 0.17008,-0.0177 0,0 -0.26826,0.1949 -0.26826,0.1949 z"
       inkscape:connector-curvature="0" />
    <path
       style="fill:none;fill-rule:evenodd;stroke:#000000;stroke-width:1px;stroke-linecap:butt;stroke-linejoin:miter;stroke-opacity:1"
       d="m 568.31619,172.90599 c 0,0 23.84309,-13.87841 62.60769,-20.94948 38.76461,-7.07107 36.23177,-3.06405 43.93418,4.38582"
       id="path4332-2"
       inkscape:connector-curvature="0"
       sodipodi:nodetypes="csc" />
    <ellipse
       style="fill:#8a7500;fill-opacity:1;fill-rule:nonzero;stroke:#000000;stroke-width:0.5;stroke-linecap:round;stroke-miterlimit:4;stroke-dasharray:none;stroke-dashoffset:0;stroke-opacity:1"
       id="path4336-7"
       cx="573.45905"
       cy="173.95544"
       rx="2.9515395"
       ry="3.8196392" />
    <path
       inkscape:connector-curvature="0"
       style="fill:#ffffff;fill-opacity:1;fill-rule:nonzero;stroke:#000000;stroke-width:0.50095993;stroke-linecap:round;stroke-miterlimit:4;stroke-dasharray:none;stroke-dashoffset:0;stroke-opacity:1"
       d="m 574.46449,173.47864 c -0.052,0.005 -0.10433,0.0103 -0.15625,0.0156 -0.0191,0.002 -0.0301,0.0164 -0.0605,0.0137 -0.012,-0.001 -0.0251,-0.003 -0.0371,-0.004 l 0,-0.002 c -0.004,2.4e-4 -0.008,0.002 -0.0117,0.002 -0.0117,5.3e-4 -0.0235,-4e-5 -0.0352,0 -0.0219,0.0133 -0.0478,0.0394 -0.0957,0.0391 -0.0115,-7.4e-4 -0.0939,-0.007 -0.0937,-0.01 1.6e-4,-0.007 0.0121,-0.004 0.0176,-0.008 0.005,-0.003 0.009,-0.008 0.0137,-0.0117 -0.0397,0.0198 -0.0779,0.0424 -0.11914,0.0586 -0.0242,0.009 -0.12624,-0.007 -0.1582,0 -0.0632,10e-6 -0.12631,5e-5 -0.18945,0 -0.0636,0 -0.1259,2.9e-4 -0.18946,0 -0.0621,-5.2e-4 -0.12548,-0.001 -0.1875,0.002 -0.0375,-2.9e-4 -0.0742,-0.003 -0.11133,-0.008 -0.003,-3e-4 -0.005,3.3e-4 -0.008,0 -0.0111,10e-4 -0.0221,10e-4 -0.0332,0.002 -0.0601,0.0312 -0.12498,0.0466 -0.19336,0.0273 0.002,-10e-4 0.004,-0.003 0.006,-0.006 -0.002,2.3e-4 -0.002,-2.2e-4 -0.004,0 -0.01,0.005 -0.0191,0.0121 -0.0293,0.0156 -0.0748,0.0259 -0.11269,0.037 -0.1836,0.0254 -0.006,-8.4e-4 -0.014,0.002 -0.0156,-0.004 -0.001,-0.005 0.01,-0.003 0.0137,-0.006 0.008,-0.005 0.0258,-0.0177 0.0234,-0.0156 -0.001,1e-5 -0.003,-2e-5 -0.004,0 -0.0444,0.0345 -0.10319,0.065 -0.16016,0.0527 0.002,-0.001 0.004,-0.003 0.006,-0.004 -0.0387,0.0149 -0.0772,0.0283 -0.11718,0.0391 -0.004,0.001 -0.0111,-2.2e-4 -0.0137,-0.004 -0.002,-0.002 0.006,-0.004 0.008,-0.006 0.01,-0.0152 10e-4,-0.001 -0.0254,0.01 -0.0749,0.0295 -0.10256,0.0381 -0.17382,0.0371 -0.0149,-1.9e-4 -0.0281,-9.6e-4 -0.043,-0.002 -0.0221,-0.002 -0.0463,0.001 -0.0664,-0.008 0.0406,-0.0282 0.0967,-0.0724 -0.0195,0.0254 -0.0225,0.008 -0.17774,0.068 -0.19727,0.0644 -0.0298,0.009 -0.0575,0.0267 -0.0879,0.0332 -0.0113,0.002 0.0195,-0.0113 0.0293,-0.0176 10e-4,-7.4e-4 -0.003,-1.6e-4 -0.004,0 -0.0326,0.017 -0.0651,0.0339 -0.0977,0.0508 -0.0168,0.008 -0.0232,0.0107 -0.0293,0.0137 -0.008,0.0111 -0.0148,0.0229 -0.0234,0.0332 -0.006,0.008 -0.017,0.0101 -0.0254,0.0156 -0.15766,0.0498 -0.12764,0.0484 -0.0742,0.0117 0.0504,-0.0346 -0.15244,0.0932 -0.0605,0.0352 -0.0477,0.0315 -0.0183,0.0136 -0.12305,0.0508 -0.003,10e-4 0.007,-0.004 0.01,-0.006 0.008,-0.005 0.0206,-0.0247 0.0234,-0.0156 0.0131,0.0424 -0.23657,-0.005 -0.14648,0.043 0.005,0.003 0.002,0.004 0.01,0.008 0.008,-0.004 0.0359,-0.0192 0.0273,-0.0137 -0.0248,0.0162 -0.0264,0.003 -0.0234,0.0156 -0.003,-0.001 -10e-4,-6.9e-4 -0.004,-0.002 -0.0182,0.009 -0.04,0.0204 -0.0606,0.0293 -0.0192,0.009 0.0491,-0.0225 0.0508,-0.0371 -0.0489,0.038 -0.0749,0.0693 -0.12305,0.084 -0.0316,0.01 -0.065,0.0148 -0.0976,0.0195 -0.003,4.9e-4 -0.0107,-0.002 -0.008,-0.004 0.0202,-0.0188 0.0441,-0.0325 0.0664,-0.0488 0.006,-0.046 0.0172,-0.0923 0.0176,-0.13867 9e-5,-0.009 -0.0115,-0.0293 -0.0156,-0.0215 -0.0453,0.0861 -0.0737,0.17967 -0.11523,0.26757 -0.002,0.003 -0.008,-0.002 -0.0117,-0.002 -0.0686,0.009 -0.12967,0.0262 -0.19726,0.043 -0.0875,0.0218 -0.15001,0.009 -0.19727,-0.0176 a 2.9510596,3.8349428 0 0 0 2.94531,3.62891 2.9510596,3.8349428 0 0 0 2.95117,-3.83399 2.9510596,3.8349428 0 0 0 -0.0156,-0.34765 c -0.0435,0.0489 -0.38001,-0.0973 -0.35742,-0.0156 0.0271,0.004 0.0723,7.1e-4 0.0547,0.004 -0.0208,0.004 -0.0356,-6.4e-4 -0.0527,-0.002 0.004,0.0125 0.0128,0.0265 0.0352,0.0508 l 0.0625,0.0684 c 0.0175,0.004 0.034,0.009 0.0508,0.0156 0.0144,0.005 -0.0299,-0.007 -0.0449,-0.01 l -0.006,-0.006 c -0.0202,-0.005 -0.0404,-0.008 -0.0586,-0.0176 -0.0234,-0.0124 -0.0692,-0.0721 -0.0957,-0.10938 -0.0249,-0.0101 -0.0503,-0.0229 -0.0781,-0.041 -0.009,-0.006 -0.0168,-0.0156 -0.0215,-0.0234 -0.006,0.004 0.008,0.0161 -0.0625,-0.0254 -0.0167,-0.01 -0.0289,-0.0256 -0.041,-0.041 -0.0279,-0.0198 -0.0582,-0.0424 0.0215,0.006 -0.0114,-0.006 -0.0217,-0.0135 -0.0332,-0.0195 l -0.002,0 c -0.007,-0.003 -0.015,-0.008 -0.0215,-0.0117 -0.0314,-0.005 -0.0617,-0.0105 -0.043,0 -0.0566,-3e-5 -0.11334,-0.003 -0.16992,-0.002 -0.0767,0.01 -0.1407,0.012 -0.21485,-0.0156 -0.01,-0.004 -0.028,-0.006 -0.0293,-0.0137 l -0.1543,0 c -0.0632,0 -0.12628,5e-5 -0.18945,0 -0.0633,-3e-5 -0.12619,-6e-5 -0.18946,0 -0.0608,-2.5e-4 -0.12088,-0.003 -0.18164,0 -0.005,1.8e-4 -0.009,-1.2e-4 -0.0137,0 -0.0364,4.2e-4 -0.0731,-0.004 -0.10937,0 z m 1.91406,0.12891 c 0.002,0.003 0.004,0.005 0.006,0.008 0.0157,0.0192 0.0182,0.0288 0.0234,0.041 a 2.9510596,3.8349428 0 0 0 -0.006,-0.0488 c -0.008,3.6e-4 -0.0156,3.9e-4 -0.0234,0 z m -5.5,0.21875 c -0.0131,0.007 -0.026,0.0143 -0.0391,0.0215 -0.0438,0.0296 -0.0922,0.0459 -0.14454,0.0469 -0.0139,0.0106 -0.0244,0.0274 -0.041,0.0332 -0.006,0.01 -0.0105,0.02 -0.0176,0.0293 0.002,-4.8e-4 0.002,-0.001 0.004,-0.002 l -0.002,0.006 c 0.0506,-0.0127 0.1095,-0.0257 0.16602,-0.0371 0.002,-0.006 0.002,-0.0118 0.004,-0.0176 0.0583,-0.0247 0.0741,-0.024 0.0996,-0.0312 -0.004,-0.015 -0.004,-0.031 -0.004,-0.0469 -0.009,-6.8e-4 -0.0169,-10e-4 -0.0254,-0.002 z m 0.79687,0.002 c -0.0112,0.0135 -0.0215,0.0283 -0.0312,0.043 0.005,-0.004 0.009,-0.005 0.0137,-0.01 0.009,-0.009 0.0257,-0.0427 0.0176,-0.0332 z"
       id="path4336-3-0" />
    <path
       style="fill:#8a7500;fill-opacity:1;fill-rule:nonzero;stroke:#000000;stroke-width:0.5;stroke-linecap:round;stroke-miterlimit:4;stroke-dasharray:none;stroke-dashoffset:0;stroke-opacity:1"
       id="path4418-9"
       d="m 575.55611,173.95427 c -0.009,0.002 -0.0189,0.004 -0.028,0.007 -0.0292,0.009 -0.0289,0.0113 -0.055,0.0257 -0.008,0.005 -0.0332,0.018 -0.025,0.0133 0.27631,-0.15892 0.3427,-0.20702 0.2417,-0.13533 -0.032,0.0246 -0.0538,0.0575 -0.0756,0.0906 -0.0167,0.0296 -0.0331,0.0589 -0.042,0.0919 -0.009,0.0372 -0.0231,0.073 -0.0352,0.10934 -0.0162,0.0405 -0.0255,0.0831 -0.0397,0.1242 -0.0138,0.0353 -0.0204,0.0707 -0.0112,0.10776 0.009,0.0306 0.0293,0.0571 0.0523,0.079 0.0197,0.0254 0.0496,0.0384 0.0735,0.0591 0.0268,0.0163 0.0565,0.0301 0.0865,0.0397 0.0385,0.0123 0.0768,0.0231 0.1171,0.0283 0.0413,-1.8e-4 0.08,0.0137 0.12037,0.0203 0.0174,0.002 0.0207,0.004 0.0378,-5.5e-4 0.021,-0.006 0.0401,-0.0197 0.0594,-0.0293 -0.0881,0.0502 -0.17627,0.10048 -0.2644,0.15073 0.0348,-0.0229 0.0672,-0.0496 0.0972,-0.0785 0.0258,-0.0206 0.0416,-0.0501 0.0622,-0.0753 0.0191,-0.0265 0.036,-0.0538 0.0453,-0.0852 0.008,-0.0387 0.0112,-0.0789 0.008,-0.11828 -0.003,-0.0341 -0.0162,-0.0624 -0.0339,-0.0908 -0.0202,-0.0335 -0.0513,-0.0577 -0.0781,-0.0855 -0.022,-0.0314 -0.0403,-0.0656 -0.0576,-0.0998 -0.0164,-0.0305 -0.0398,-0.0557 -0.0614,-0.0823 -0.022,-0.0224 -0.0546,-0.0307 -0.0849,-0.0245 -0.038,0.005 -0.0737,0.0183 -0.1109,0.0271 -0.0381,0.007 -0.0729,0.0236 -0.10761,0.0396 0,0 0.25987,-0.20629 0.25987,-0.20629 l 0,0 c 0.0353,-0.0158 0.073,-0.0259 0.11065,-0.0346 0.038,-0.0105 0.0765,-0.0209 0.11621,-0.0212 0.0392,0.006 0.0753,0.0177 0.10142,0.0492 0.0235,0.0282 0.0469,0.0564 0.0646,0.0888 0.0159,0.0311 0.0327,0.0624 0.0525,0.0911 0.0289,0.0291 0.0601,0.0565 0.0822,0.0915 0.0201,0.0323 0.036,0.0651 0.0403,0.10355 0.007,0.0425 0.002,0.0861 -0.002,0.12868 -0.007,0.0393 -0.0185,0.0642 -0.0393,0.0974 -0.0188,0.0281 -0.0415,0.0535 -0.0598,0.0821 -0.0332,0.0264 -0.0615,0.0586 -0.096,0.0836 -0.10095,0.0583 -0.20149,0.11731 -0.30284,0.1749 -0.0341,0.0194 -0.0724,0.0222 -0.11011,0.0138 -0.0397,-0.008 -0.0789,-0.0171 -0.1195,-0.0198 -0.0414,-0.008 -0.0815,-0.0199 -0.12148,-0.0333 -0.0322,-0.0134 -0.0653,-0.0268 -0.0927,-0.0488 -0.026,-0.0197 -0.0549,-0.0362 -0.0754,-0.0623 -0.0254,-0.0273 -0.0487,-0.0576 -0.0601,-0.0936 -0.013,-0.0423 -0.0131,-0.084 0.002,-0.12602 0.0148,-0.0407 0.0242,-0.0826 0.0405,-0.12287 0.01,-0.0363 0.0234,-0.0713 0.036,-0.10671 0.006,-0.0384 0.019,-0.068 0.0373,-0.10174 0.0202,-0.0369 0.0435,-0.0709 0.0722,-0.10177 0.12133,-0.10969 0.27811,-0.18927 0.43571,-0.23563 0,0 -0.26263,0.20222 -0.26263,0.20222 z"
       inkscape:connector-curvature="0" />
    <path
       style="fill:#8a7500;fill-opacity:1;fill-rule:nonzero;stroke:#000000;stroke-width:0.5;stroke-linecap:round;stroke-miterlimit:4;stroke-dasharray:none;stroke-dashoffset:0;stroke-opacity:1"
       id="path4424-3"
       d="m 573.40911,180.40621 c 0.0146,-0.0582 0.0333,-0.11529 0.0485,-0.17332 0.008,-0.041 0.0206,-0.0809 0.0314,-0.12126 0.0136,-0.0357 0.0284,-0.0713 0.0453,-0.10569 0.0176,-0.0356 0.0299,-0.0734 0.046,-0.10964 0.0116,-0.0337 0.029,-0.064 0.0489,-0.0934 0.0925,-0.097 0.2772,-0.17834 0.35895,-0.22605 0.005,-0.003 0.0211,-0.0119 0.0158,-0.009 -0.0893,0.0515 -0.1784,0.10356 -0.26816,0.15436 -0.005,0.003 0.01,-0.008 0.0151,-0.0112 0.0995,-0.0587 0.20195,-0.11245 0.29938,-0.17449 0.0871,-0.0555 -0.17868,0.10358 -0.26838,0.15475 -0.005,0.003 0.01,-0.007 0.0147,-0.01 0.10297,-0.0736 0.21403,-0.12152 0.32526,-0.19302 0.0874,-0.0562 -0.17977,0.10428 -0.27004,0.15575 -0.011,0.006 0.0205,-0.0149 0.0303,-0.023 0.0327,-0.029 0.0638,-0.0599 0.10006,-0.0845 0.12269,-0.0844 0.24479,-0.187 0.3933,-0.21243 0.0427,-0.008 0.0873,2.8e-4 0.12936,-0.0103 0.0242,-0.01 0.0513,-0.007 0.0761,-0.0132 0.0115,-0.003 0.0221,-0.008 0.0333,-0.012 0.0397,-0.008 0.0773,-0.0221 0.11741,-0.0291 0.0451,-0.003 0.0881,-0.0163 0.13275,-0.023 0.045,-0.006 0.0903,-0.006 0.13559,-0.007 0.0443,0.002 0.0894,-0.005 0.13297,0.004 0.0313,0.009 0.0634,0.0126 0.0957,0.0153 0,0 -0.27004,0.19193 -0.27004,0.19193 l 0,0 c -0.0324,-0.004 -0.0643,-0.0104 -0.0964,-0.0161 -0.0431,-0.002 -0.0864,-5.1e-4 -0.12962,-4.4e-4 -0.0444,0.001 -0.0889,0.003 -0.13261,0.0108 -0.044,0.008 -0.0878,0.0175 -0.1321,0.0241 -0.039,0.01 -0.0774,0.0216 -0.11621,0.0318 -0.0366,0.01 -0.0748,0.0135 -0.112,0.0212 -0.0426,0.002 -0.0858,0.002 -0.12746,0.0125 -0.0172,0.005 -0.0219,0.006 -0.0381,0.0139 -0.006,0.003 -0.0233,0.013 -0.0175,0.01 0.46067,-0.26921 0.32994,-0.19532 0.23371,-0.1343 -0.0336,0.0271 -0.0723,0.0484 -0.10138,0.0817 -0.0979,0.0953 -0.14175,0.0905 -0.32516,0.20095 -0.0889,0.0535 0.17892,-0.10504 0.26865,-0.15711 0.01,-0.006 -0.0402,0.0248 -0.0265,0.0215 -0.10544,0.0601 -0.20588,0.11736 -0.31339,0.18387 -0.0876,0.0542 0.17764,-0.10423 0.2668,-0.15578 0.005,-0.003 -0.0101,0.007 -0.0154,0.0104 -0.26185,0.15619 -0.19973,0.12088 -0.31407,0.18562 0.0897,-0.0525 0.17943,-0.10508 0.26915,-0.15762 -0.004,0.003 -0.009,0.005 -0.0131,0.009 -0.0123,0.0101 -0.0239,0.0212 -0.0371,0.0302 -0.004,0.003 -0.009,0.005 -0.0138,0.007 -0.0249,0.0222 -0.0426,0.0533 -0.0533,0.0847 -0.0161,0.0366 -0.0311,0.0733 -0.0455,0.11066 -0.0162,0.0339 -0.0322,0.0675 -0.0467,0.10221 -0.0168,0.037 -0.0223,0.0803 -0.0341,0.1191 -0.0139,0.0585 -0.0368,0.11432 -0.0469,0.17381 0,0 -0.2994,0.1422 -0.2994,0.1422 z"
       inkscape:connector-curvature="0" />
    <path
       style="fill:none;fill-rule:evenodd;stroke:#000000;stroke-width:1px;stroke-linecap:butt;stroke-linejoin:miter;stroke-opacity:1"
       d="m 314.45313,154.70595 -10.35157,-2.92969 11.32813,0 -6.05469,-11.91406 8.59375,10.15625 c 0.2389,-0.58716 0.19531,-1.1499 0.19531,-1.75781 l 4.49219,-9.96094 -0.97656,12.10938 11.52344,-8.98438 -9.57032,11.52344"
       id="path4585"
       inkscape:connector-curvature="0" />
    <path
       style="fill:none;fill-rule:evenodd;stroke:#000000;stroke-width:1px;stroke-linecap:butt;stroke-linejoin:miter;stroke-opacity:1"
       d="m 324.21875,153.53408 6.44531,1.36718 -8.78906,1.17188"
       id="path4587"
       inkscape:connector-curvature="0" />
    <path
       style="fill:#ffffff;fill-opacity:1;fill-rule:nonzero;stroke:none;stroke-width:0.5;stroke-linecap:round;stroke-miterlimit:4;stroke-dasharray:none;stroke-dashoffset:0;stroke-opacity:1"
       id="path4589"
       d="m 191.03005,175.39189 c -1.04365,-0.25427 -2.04805,-0.62321 -3.1256,-0.68851 -0.11327,0.0246 -0.23368,0.0272 -0.33982,0.0738 -0.17714,0.0778 -0.63593,0.43923 -0.46776,0.34359 1.58706,-0.90258 3.15667,-1.83574 4.74705,-2.73246 0.14671,-0.0827 -0.24037,0.23917 -0.3338,0.3793 -0.25417,0.53352 -0.47577,1.07997 -0.7129,1.62101 -0.26602,0.57579 -0.20502,1.08562 -0.0133,1.66432 0.25575,0.49903 0.54125,1.01064 1.0222,1.31991 0.43508,0.33997 0.93301,0.63581 1.45345,0.82858 0.57465,0.21444 1.1246,0.4242 1.739,0.51098 0.73021,0.0992 1.34209,0.0955 2.05319,-0.082 1.74788,-0.41076 5.8998,-3.16664 -4.17776,2.4824 -0.0729,0.0409 0.14679,-0.083 0.20792,-0.13996 0.16265,-0.15156 0.18294,-0.25874 0.26991,-0.45969 0.13076,-0.63716 -0.20152,-1.2602 -0.56925,-1.76087 -0.16181,-0.26412 -0.38443,-0.47658 -0.58016,-0.7145 0,0 4.97961,-2.98731 4.97961,-2.98731 l 0,0 c 0.20541,0.24684 0.4282,0.48093 0.59714,0.7557 0.45151,0.65902 0.80524,1.40935 0.81846,2.22169 -0.50575,2.60533 -3.68291,3.64472 -6.1756,4.10036 -0.72421,0.0963 -1.45944,0.0246 -2.17815,-0.0919 -0.62968,-0.14098 -1.21744,-0.38597 -1.81862,-0.61609 -0.53826,-0.26344 -1.07004,-0.55826 -1.53002,-0.94531 -0.51968,-0.44221 -0.89522,-1.00492 -1.18991,-1.61863 -0.2403,-0.67503 -0.4176,-1.31075 -0.17394,-2.01992 0.18452,-0.56871 0.46202,-1.10168 0.69878,-1.64847 0.66745,-2.31776 2.29467,-1.88656 5.39351,-3.70836 0.30171,-0.17737 0.66274,-0.14821 0.99472,-0.12467 1.0849,0.16521 2.12261,0.54038 3.19737,0.75944 0,0 -4.78574,3.27753 -4.78574,3.27753 z"
       inkscape:connector-curvature="0" />
    <ellipse
       style="fill:#ffffff;fill-opacity:1;fill-rule:nonzero;stroke:#000000;stroke-width:0.5;stroke-linecap:round;stroke-miterlimit:4;stroke-dasharray:none;stroke-dashoffset:0;stroke-opacity:1"
       id="path4595"
       cx="192.79709"
       cy="181.11549"
       rx="5.8004851"
       ry="4.488471" />
    <ellipse
       style="fill:#ffffff;fill-opacity:1;fill-rule:nonzero;stroke:#000000;stroke-width:1;stroke-linecap:round;stroke-miterlimit:4;stroke-dasharray:none;stroke-dashoffset:0;stroke-opacity:1"
       id="path4597"
       cx="173.87645"
       cy="166.61938"
       rx="14.915534"
       ry="7.3887134" />
    <ellipse
       style="fill:#ffffff;fill-opacity:1;fill-rule:nonzero;stroke:#000000;stroke-width:1.29999995;stroke-linecap:round;stroke-miterlimit:4;stroke-dasharray:none;stroke-dashoffset:0;stroke-opacity:1"
       id="path4599"
       cx="150.5466"
       cy="124.50191"
       rx="53.033009"
       ry="29.347694" />
    <text
       xml:space="preserve"
       style="font-style:normal;font-variant:normal;font-weight:normal;font-stretch:normal;font-size:78.80999756px;line-height:125%;font-family:'Abyssinica SIL';-inkscape-font-specification:'Abyssinica SIL, Normal';text-align:start;letter-spacing:0px;word-spacing:0px;writing-mode:lr-tb;text-anchor:start;fill:#000000;fill-opacity:1;stroke:none;stroke-width:1px;stroke-linecap:butt;stroke-linejoin:miter;stroke-opacity:1"
       x="99.527817"
       y="182.43785"
       id="text4601"
       sodipodi:linespacing="125%"
       transform="scale(1.267758,0.78879408)"><tspan
         sodipodi:role="line"
         id="tspan4603"
         x="99.527817"
         y="182.43785">!</tspan></text>
    <path
       style="fill:#8a7500;fill-opacity:1;fill-rule:evenodd;stroke:#4a3700;stroke-width:0.96142739px;stroke-linecap:butt;stroke-linejoin:miter;stroke-opacity:1"
       d="m 563.68489,186.62793 2.09142,-3.3264 7.82073,-9.06166 6.32464,-13.41192 7.5626,-14.625 1.48906,-1.87231 32.74102,2.55808 c 0,0 15.3835,-3.56925 15.61564,-3.69783 0.23214,-0.12859 10.13548,-2.34467 10.41455,-2.43576 0.27907,-0.0911 6.61534,0.86111 6.94134,0.80751 0.326,-0.0536 4.53243,-0.54969 4.53243,-0.54969 l 1.40804,0.003 1.32596,-0.5521 -0.069,-1.19164 -1.38063,0.4423 -1.17825,-0.0298 -2.65109,0.0822 -2.46171,0.78897 -3.67886,-1.02747 -7.39172,1.39623 -0.47914,-0.14726 -21.39266,4.51541 -13.45784,-1.40132 -18.16147,-0.98285 -0.96064,0.88128 -1.80533,0.20643 -16.29988,31.05566 -2.33113,3.00536 -2.92622,4.4142 -4.48703,4.58044 z"
       id="path4330-1"
       inkscape:connector-curvature="0"
       sodipodi:nodetypes="ccccccccccccccccccccccccccccccc" />
  </g>
</svg>
