<?xml version="1.0" encoding="UTF-8" standalone="no"?>
<svg
   xmlns:dc="http://purl.org/dc/elements/1.1/"
   xmlns:cc="http://creativecommons.org/ns#"
   xmlns:rdf="http://www.w3.org/1999/02/22-rdf-syntax-ns#"
   xmlns:svg="http://www.w3.org/2000/svg"
   xmlns="http://www.w3.org/2000/svg"
   xmlns:sodipodi="http://sodipodi.sourceforge.net/DTD/sodipodi-0.dtd"
   xmlns:inkscape="http://www.inkscape.org/namespaces/inkscape"
   width="463.16699"
   height="347.83301"
   id="svg10286"
   sodipodi:version="0.32"
   inkscape:version="0.91 r13725"
   sodipodi:docname="hann.svg"
   inkscape:output_extension="org.inkscape.output.svg.inkscape"
   version="1.0">
  <metadata
     id="metadata10859">
    <rdf:RDF>
      <cc:Work
         rdf:about="">
        <dc:format>image/svg+xml</dc:format>
        <dc:type
           rdf:resource="http://purl.org/dc/dcmitype/StillImage" />
        <dc:title></dc:title>
      </cc:Work>
    </rdf:RDF>
  </metadata>
  <defs
     id="defs10857" />
  <sodipodi:namedview
     inkscape:window-height="1176"
     inkscape:window-width="1855"
     inkscape:pageshadow="2"
     inkscape:pageopacity="0.0"
     guidetolerance="10.0"
     gridtolerance="10.0"
     objecttolerance="10.0"
     borderopacity="1.0"
     bordercolor="#666666"
     pagecolor="#ffffff"
     id="base"
     inkscape:zoom="0.66541609"
     inkscape:cx="476.90499"
     inkscape:cy="-5.0797639"
     inkscape:window-x="65"
     inkscape:window-y="24"
     inkscape:current-layer="svg10286"
     showgrid="false"
     fit-margin-left="1"
     fit-margin-top="1"
     fit-margin-right="1"
     fit-margin-bottom="1"
     inkscape:window-maximized="1" />
  <g
     id="g19926"
     transform="translate(1,1)">
    <g
       id="g10288"
       style="fill:none;stroke:none;stroke-width:0.0833333pt;stroke-linecap:butt;stroke-linejoin:miter;stroke-dasharray:none">
      <path
         id="path10290"
         d="m 0,0 c 0,0 461.167,0 461.167,0 0,0 0,345.833 0,345.833 0,0 -461.167,0 -461.167,0 C 0,345.833 0,0 0,0"
         inkscape:connector-curvature="0" />
    </g>
    <g
       id="g10292"
       style="fill:#ffffff;fill-rule:evenodd;stroke:#ffffff;stroke-width:0.5pt;stroke-linecap:butt;stroke-linejoin:round;stroke-dasharray:none"
       transform="translate(59.917,25.917)">
      <path
         id="path10294"
         d="M 0,281.833 C 0,281.833 0,0 0,0 c 0,0 357.333,0 357.333,0 0,0 0,281.833 0,281.833 0,0 -357.333,0 -357.333,0 z"
         inkscape:connector-curvature="0" />
    </g>
    <g
       id="g10296"
       style="fill:none;stroke:#000000;stroke-width:0.33333299pt;stroke-linecap:butt;stroke-linejoin:round;stroke-dasharray:0, 4;stroke-dashoffset:0"
       transform="translate(59.917,25.917)">
      <path
         id="path10298"
         d="M 0,281.833 C 0,281.833 0,0 0,0"
         inkscape:connector-curvature="0" />
    </g>
    <g
       id="g10300"
       style="fill:none;stroke:#000000;stroke-width:0.33333299pt;stroke-linecap:butt;stroke-linejoin:round;stroke-dasharray:0, 4;stroke-dashoffset:0"
       transform="translate(104.583,25.917)">
      <path
         id="path10302"
         d="M 0,281.833 C 0,281.833 0,0 0,0"
         inkscape:connector-curvature="0" />
    </g>
    <g
       id="g10304"
       style="fill:none;stroke:#000000;stroke-width:0.33333299pt;stroke-linecap:butt;stroke-linejoin:round;stroke-dasharray:0, 4;stroke-dashoffset:0"
       transform="translate(149.25,25.917)">
      <path
         id="path10306"
         d="M 0,281.833 C 0,281.833 0,0 0,0"
         inkscape:connector-curvature="0" />
    </g>
    <g
       id="g10308"
       style="fill:none;stroke:#000000;stroke-width:0.33333299pt;stroke-linecap:butt;stroke-linejoin:round;stroke-dasharray:0, 4;stroke-dashoffset:0"
       transform="translate(193.917,25.917)">
      <path
         id="path10310"
         d="M 0,281.833 C 0,281.833 0,0 0,0"
         inkscape:connector-curvature="0" />
    </g>
    <g
       id="g10312"
       style="fill:none;stroke:#000000;stroke-width:0.33333299pt;stroke-linecap:butt;stroke-linejoin:round;stroke-dasharray:0, 4;stroke-dashoffset:0"
       transform="translate(238.583,25.917)">
      <path
         id="path10314"
         d="M 0,281.833 C 0,281.833 0,0 0,0"
         inkscape:connector-curvature="0" />
    </g>
    <g
       id="g10316"
       style="fill:none;stroke:#000000;stroke-width:0.33333299pt;stroke-linecap:butt;stroke-linejoin:round;stroke-dasharray:0, 4;stroke-dashoffset:0"
       transform="translate(283.25,25.917)">
      <path
         id="path10318"
         d="M 0,281.833 C 0,281.833 0,0 0,0"
         inkscape:connector-curvature="0" />
    </g>
    <g
       id="g10320"
       style="fill:none;stroke:#000000;stroke-width:0.33333299pt;stroke-linecap:butt;stroke-linejoin:round;stroke-dasharray:0, 4;stroke-dashoffset:0"
       transform="translate(327.917,25.917)">
      <path
         id="path10322"
         d="M 0,281.833 C 0,281.833 0,0 0,0"
         inkscape:connector-curvature="0" />
    </g>
    <g
       id="g10324"
       style="fill:none;stroke:#000000;stroke-width:0.33333299pt;stroke-linecap:butt;stroke-linejoin:round;stroke-dasharray:0, 4;stroke-dashoffset:0"
       transform="translate(372.583,25.917)">
      <path
         id="path10326"
         d="M 0,281.833 C 0,281.833 0,0 0,0"
         inkscape:connector-curvature="0" />
    </g>
    <g
       id="g10328"
       style="fill:none;stroke:#000000;stroke-width:0.33333299pt;stroke-linecap:butt;stroke-linejoin:round;stroke-dasharray:0, 4;stroke-dashoffset:0"
       transform="translate(417.25,25.917)">
      <path
         id="path10330"
         d="M 0,281.833 C 0,281.833 0,0 0,0"
         inkscape:connector-curvature="0" />
    </g>
    <g
       id="g10332"
       style="fill:none;stroke:#000000;stroke-width:0.33333299pt;stroke-linecap:butt;stroke-linejoin:round;stroke-dasharray:0, 4;stroke-dashoffset:0"
       transform="translate(59.917,307.75)">
      <path
         id="path10334"
         d="M 0,0 C 0,0 357.333,0 357.333,0"
         inkscape:connector-curvature="0" />
    </g>
    <g
       id="g10336"
       style="fill:none;stroke:#000000;stroke-width:0.33333299pt;stroke-linecap:butt;stroke-linejoin:round;stroke-dasharray:0, 4;stroke-dashoffset:0"
       transform="translate(59.917,279.5)">
      <path
         id="path10338"
         d="M 0,0 C 0,0 357.333,0 357.333,0"
         inkscape:connector-curvature="0" />
    </g>
    <g
       id="g10340"
       style="fill:none;stroke:#000000;stroke-width:0.33333299pt;stroke-linecap:butt;stroke-linejoin:round;stroke-dasharray:0, 4;stroke-dashoffset:0"
       transform="translate(59.917,251.333)">
      <path
         id="path10342"
         d="M 0,0 C 0,0 357.333,0 357.333,0"
         inkscape:connector-curvature="0" />
    </g>
    <g
       id="g10344"
       style="fill:none;stroke:#000000;stroke-width:0.33333299pt;stroke-linecap:butt;stroke-linejoin:round;stroke-dasharray:0, 4;stroke-dashoffset:0"
       transform="translate(59.917,223.167)">
      <path
         id="path10346"
         d="M 0,0 C 0,0 357.333,0 357.333,0"
         inkscape:connector-curvature="0" />
    </g>
    <g
       id="g10348"
       style="fill:none;stroke:#000000;stroke-width:0.33333299pt;stroke-linecap:butt;stroke-linejoin:round;stroke-dasharray:0, 4;stroke-dashoffset:0"
       transform="translate(59.917,195)">
      <path
         id="path10350"
         d="M 0,0 C 0,0 357.333,0 357.333,0"
         inkscape:connector-curvature="0" />
    </g>
    <g
       id="g10352"
       style="fill:none;stroke:#000000;stroke-width:0.33333299pt;stroke-linecap:butt;stroke-linejoin:round;stroke-dasharray:0, 4;stroke-dashoffset:0"
       transform="translate(59.917,166.833)">
      <path
         id="path10354"
         d="M 0,0 C 0,0 357.333,0 357.333,0"
         inkscape:connector-curvature="0" />
    </g>
    <g
       id="g10356"
       style="fill:none;stroke:#000000;stroke-width:0.33333299pt;stroke-linecap:butt;stroke-linejoin:round;stroke-dasharray:0, 4;stroke-dashoffset:0"
       transform="translate(59.917,138.583)">
      <path
         id="path10358"
         d="M 0,0 C 0,0 357.333,0 357.333,0"
         inkscape:connector-curvature="0" />
    </g>
    <g
       id="g10360"
       style="fill:none;stroke:#000000;stroke-width:0.33333299pt;stroke-linecap:butt;stroke-linejoin:round;stroke-dasharray:0, 4;stroke-dashoffset:0"
       transform="translate(59.917,110.417)">
      <path
         id="path10362"
         d="M 0,0 C 0,0 357.333,0 357.333,0"
         inkscape:connector-curvature="0" />
    </g>
    <g
       id="g10364"
       style="fill:none;stroke:#000000;stroke-width:0.33333299pt;stroke-linecap:butt;stroke-linejoin:round;stroke-dasharray:0, 4;stroke-dashoffset:0"
       transform="translate(59.917,82.25)">
      <path
         id="path10366"
         d="M 0,0 C 0,0 357.333,0 357.333,0"
         inkscape:connector-curvature="0" />
    </g>
    <g
       id="g10368"
       style="fill:none;stroke:#000000;stroke-width:0.33333299pt;stroke-linecap:butt;stroke-linejoin:round;stroke-dasharray:0, 4;stroke-dashoffset:0"
       transform="translate(59.917,54.083)">
      <path
         id="path10370"
         d="M 0,0 C 0,0 357.333,0 357.333,0"
         inkscape:connector-curvature="0" />
    </g>
    <g
       id="g10372"
       style="fill:none;stroke:#000000;stroke-width:0.33333299pt;stroke-linecap:butt;stroke-linejoin:round;stroke-dasharray:0, 4;stroke-dashoffset:0"
       transform="translate(59.917,25.917)">
      <path
         id="path10374"
         d="M 0,0 C 0,0 357.333,0 357.333,0"
         inkscape:connector-curvature="0" />
    </g>
    <g
       id="g10376"
       style="fill:none;stroke:#000000;stroke-width:0.5pt;stroke-linecap:butt;stroke-linejoin:round;stroke-dasharray:none"
       transform="translate(59.917,307.75)">
      <path
         id="path10378"
         d="M 0,0 C 0,0 357.333,0 357.333,0"
         inkscape:connector-curvature="0" />
    </g>
    <g
       id="g10380"
       style="fill:none;stroke:#000000;stroke-width:0.5pt;stroke-linecap:butt;stroke-linejoin:round;stroke-dasharray:none"
       transform="translate(59.917,25.917)">
      <path
         id="path10382"
         d="M 0,0 C 0,0 357.333,0 357.333,0"
         inkscape:connector-curvature="0" />
    </g>
    <g
       id="g10384"
       style="fill:none;stroke:#000000;stroke-width:0.5pt;stroke-linecap:butt;stroke-linejoin:round;stroke-dasharray:none"
       transform="translate(59.917,25.917)">
      <path
         id="path10386"
         d="M 0,281.833 C 0,281.833 0,0 0,0"
         inkscape:connector-curvature="0" />
    </g>
    <g
       id="g10388"
       style="fill:none;stroke:#000000;stroke-width:0.5pt;stroke-linecap:butt;stroke-linejoin:round;stroke-dasharray:none"
       transform="translate(417.25,25.917)">
      <path
         id="path10390"
         d="M 0,281.833 C 0,281.833 0,0 0,0"
         inkscape:connector-curvature="0" />
    </g>
    <g
       id="g10392"
       style="fill:none;stroke:#000000;stroke-width:0.5pt;stroke-linecap:butt;stroke-linejoin:round;stroke-dasharray:none"
       transform="translate(59.917,307.75)">
      <path
         id="path10394"
         d="M 0,0 C 0,0 357.333,0 357.333,0"
         inkscape:connector-curvature="0" />
    </g>
    <g
       id="g10396"
       style="fill:none;stroke:#000000;stroke-width:0.5pt;stroke-linecap:butt;stroke-linejoin:round;stroke-dasharray:none"
       transform="translate(59.917,25.917)">
      <path
         id="path10398"
         d="M 0,281.833 C 0,281.833 0,0 0,0"
         inkscape:connector-curvature="0" />
    </g>
    <g
       id="g10400"
       style="fill:none;stroke:#000000;stroke-width:0.5pt;stroke-linecap:butt;stroke-linejoin:round;stroke-dasharray:none"
       transform="translate(59.917,304.167)">
      <path
         id="path10402"
         d="M 0,3.583 C 0,3.583 0,0 0,0"
         inkscape:connector-curvature="0" />
    </g>
    <g
       id="g10404"
       style="fill:none;stroke:#000000;stroke-width:0.5pt;stroke-linecap:butt;stroke-linejoin:round;stroke-dasharray:none"
       transform="translate(59.917,25.917)">
      <path
         id="path10406"
         d="M 0,0 C 0,0 0,3.5 0,3.5"
         inkscape:connector-curvature="0" />
    </g>
    <g
       id="g10408"
       style="fill:#000000;fill-rule:evenodd;stroke:none;stroke-width:0.5pt;stroke-linecap:butt;stroke-linejoin:miter;stroke-dasharray:none"
       transform="translate(57.6797,312.66)">
      <path
         id="path10410"
         d="M 2.3203,0 C 1.6601,0 1.0605,0.29 0.6904,0.78 0.2305,1.4 0,2.35 0,3.66 c 0,2.39 0.8008,3.66 2.3203,3.66 1.5,0 2.3203,-1.27 2.3203,-3.6 0,-1.38 -0.2207,-2.3 -0.6904,-2.94 C 3.5801,0.28 2.9902,0 2.3203,0 Z m 0,0.78 c 0.9502,0 1.4199,0.96 1.4199,2.86 0,2.01 -0.4599,2.95 -1.4394,2.95 -0.9307,0 -1.4004,-0.98 -1.4004,-2.92 0,-1.94 0.4697,-2.89 1.4199,-2.89 z"
         inkscape:connector-curvature="0" />
    </g>
    <g
       id="g10412"
       style="fill:none;stroke:#000000;stroke-width:0.5pt;stroke-linecap:butt;stroke-linejoin:round;stroke-dasharray:none"
       transform="translate(104.583,304.167)">
      <path
         id="path10414"
         d="M 0,3.583 C 0,3.583 0,0 0,0"
         inkscape:connector-curvature="0" />
    </g>
    <g
       id="g10416"
       style="fill:none;stroke:#000000;stroke-width:0.5pt;stroke-linecap:butt;stroke-linejoin:round;stroke-dasharray:none"
       transform="translate(104.583,25.917)">
      <path
         id="path10418"
         d="M 0,0 C 0,0 0,3.5 0,3.5"
         inkscape:connector-curvature="0" />
    </g>
    <g
       id="g10420"
       style="fill:none;stroke:#000000;stroke-width:0.5pt;stroke-linecap:butt;stroke-linejoin:round;stroke-dasharray:none"
       transform="translate(149.25,304.167)">
      <path
         id="path10422"
         d="M 0,3.583 C 0,3.583 0,0 0,0"
         inkscape:connector-curvature="0" />
    </g>
    <g
       id="g10424"
       style="fill:none;stroke:#000000;stroke-width:0.5pt;stroke-linecap:butt;stroke-linejoin:round;stroke-dasharray:none"
       transform="translate(149.25,25.917)">
      <path
         id="path10426"
         d="M 0,0 C 0,0 0,3.5 0,3.5"
         inkscape:connector-curvature="0" />
    </g>
    <g
       id="g10428"
       style="fill:none;stroke:#000000;stroke-width:0.5pt;stroke-linecap:butt;stroke-linejoin:round;stroke-dasharray:none"
       transform="translate(193.917,304.167)">
      <path
         id="path10430"
         d="M 0,3.583 C 0,3.583 0,0 0,0"
         inkscape:connector-curvature="0" />
    </g>
    <g
       id="g10432"
       style="fill:none;stroke:#000000;stroke-width:0.5pt;stroke-linecap:butt;stroke-linejoin:round;stroke-dasharray:none"
       transform="translate(193.917,25.917)">
      <path
         id="path10434"
         d="M 0,0 C 0,0 0,3.5 0,3.5"
         inkscape:connector-curvature="0" />
    </g>
    <g
       id="g10436"
       style="fill:none;stroke:#000000;stroke-width:0.5pt;stroke-linecap:butt;stroke-linejoin:round;stroke-dasharray:none"
       transform="translate(238.583,304.167)">
      <path
         id="path10438"
         d="M 0,3.583 C 0,3.583 0,0 0,0"
         inkscape:connector-curvature="0" />
    </g>
    <g
       id="g10440"
       style="fill:none;stroke:#000000;stroke-width:0.5pt;stroke-linecap:butt;stroke-linejoin:round;stroke-dasharray:none"
       transform="translate(238.583,25.917)">
      <path
         id="path10442"
         d="M 0,0 C 0,0 0,3.5 0,3.5"
         inkscape:connector-curvature="0" />
    </g>
    <g
       id="g10444"
       style="fill:none;stroke:#000000;stroke-width:0.5pt;stroke-linecap:butt;stroke-linejoin:round;stroke-dasharray:none"
       transform="translate(283.25,304.167)">
      <path
         id="path10446"
         d="M 0,3.583 C 0,3.583 0,0 0,0"
         inkscape:connector-curvature="0" />
    </g>
    <g
       id="g10448"
       style="fill:none;stroke:#000000;stroke-width:0.5pt;stroke-linecap:butt;stroke-linejoin:round;stroke-dasharray:none"
       transform="translate(283.25,25.917)">
      <path
         id="path10450"
         d="M 0,0 C 0,0 0,3.5 0,3.5"
         inkscape:connector-curvature="0" />
    </g>
    <g
       id="g10452"
       style="fill:none;stroke:#000000;stroke-width:0.5pt;stroke-linecap:butt;stroke-linejoin:round;stroke-dasharray:none"
       transform="translate(327.917,304.167)">
      <path
         id="path10454"
         d="M 0,3.583 C 0,3.583 0,0 0,0"
         inkscape:connector-curvature="0" />
    </g>
    <g
       id="g10456"
       style="fill:none;stroke:#000000;stroke-width:0.5pt;stroke-linecap:butt;stroke-linejoin:round;stroke-dasharray:none"
       transform="translate(327.917,25.917)">
      <path
         id="path10458"
         d="M 0,0 C 0,0 0,3.5 0,3.5"
         inkscape:connector-curvature="0" />
    </g>
    <g
       id="g10460"
       style="fill:none;stroke:#000000;stroke-width:0.5pt;stroke-linecap:butt;stroke-linejoin:round;stroke-dasharray:none"
       transform="translate(372.583,304.167)">
      <path
         id="path10462"
         d="M 0,3.583 C 0,3.583 0,0 0,0"
         inkscape:connector-curvature="0" />
    </g>
    <g
       id="g10464"
       style="fill:none;stroke:#000000;stroke-width:0.5pt;stroke-linecap:butt;stroke-linejoin:round;stroke-dasharray:none"
       transform="translate(372.583,25.917)">
      <path
         id="path10466"
         d="M 0,0 C 0,0 0,3.5 0,3.5"
         inkscape:connector-curvature="0" />
    </g>
    <g
       id="g10468"
       style="fill:none;stroke:#000000;stroke-width:0.5pt;stroke-linecap:butt;stroke-linejoin:round;stroke-dasharray:none"
       transform="translate(417.25,304.167)">
      <path
         id="path10470"
         d="M 0,3.583 C 0,3.583 0,0 0,0"
         inkscape:connector-curvature="0" />
    </g>
    <g
       id="g10472"
       style="fill:none;stroke:#000000;stroke-width:0.5pt;stroke-linecap:butt;stroke-linejoin:round;stroke-dasharray:none"
       transform="translate(417.25,25.917)">
      <path
         id="path10474"
         d="M 0,0 C 0,0 0,3.5 0,3.5"
         inkscape:connector-curvature="0" />
    </g>
    <g
       id="g10476"
       style="fill:#000000;fill-rule:evenodd;stroke:none;stroke-width:0.5pt;stroke-linecap:butt;stroke-linejoin:miter;stroke-dasharray:none"
       transform="translate(408.76,312.46)">
      <path
         id="path10478"
         d="m 5.7,0 c 0,0 -0.88,0 -0.88,0 0,0 0,5.96 0,5.96 C 4.82,5.96 1.01,0 1.01,0 1.01,0 0,0 0,0 c 0,0 0,7.29 0,7.29 0,0 0.88,0 0.88,0 0,0 0,-5.91 0,-5.91 0,0 3.77,5.91 3.77,5.91 0,0 1.05,0 1.05,0 0,0 0,-7.29 0,-7.29 z"
         inkscape:connector-curvature="0" />
    </g>
    <g
       id="g10480"
       style="fill:#000000;fill-rule:evenodd;stroke:none;stroke-width:0.5pt;stroke-linecap:butt;stroke-linejoin:miter;stroke-dasharray:none"
       transform="translate(415.65,317.08)">
      <path
         id="path10482"
         d="M 5.04,0 C 5.04,0 0,0 0,0 c 0,0 0,0.7 0,0.7 0,0 5.04,0 5.04,0 0,0 0,-0.7 0,-0.7 z"
         inkscape:connector-curvature="0" />
    </g>
    <g
       id="g10484"
       style="fill:#000000;fill-rule:evenodd;stroke:none;stroke-width:0.5pt;stroke-linecap:butt;stroke-linejoin:miter;stroke-dasharray:none"
       transform="translate(422.02,312.66)">
      <path
         id="path10486"
         d="m 1.57,2.04 c 0,0 0,5.05 0,5.05 0,0 0.88,0 0.88,0 0,0 0,-7.09 0,-7.09 0,0 -0.58,0 -0.58,0 C 1.56,1.09 1.36,1.24 0,1.41 c 0,0 0,0.63 0,0.63 0,0 1.57,0 1.57,0 z"
         inkscape:connector-curvature="0" />
    </g>
    <g
       id="g10488"
       style="fill:none;stroke:#000000;stroke-width:0.5pt;stroke-linecap:butt;stroke-linejoin:round;stroke-dasharray:none"
       transform="translate(59.917,307.75)">
      <path
         id="path10490"
         d="M 0,0 C 0,0 3.5,0 3.5,0"
         inkscape:connector-curvature="0" />
    </g>
    <g
       id="g10492"
       style="fill:none;stroke:#000000;stroke-width:0.5pt;stroke-linecap:butt;stroke-linejoin:round;stroke-dasharray:none"
       transform="translate(413.667,307.75)">
      <path
         id="path10494"
         d="M 3.583,0 C 3.583,0 0,0 0,0"
         inkscape:connector-curvature="0" />
    </g>
    <g
       id="g10496"
       style="fill:#000000;fill-rule:evenodd;stroke:none;stroke-width:0.5pt;stroke-linecap:butt;stroke-linejoin:miter;stroke-dasharray:none"
       transform="translate(51.9297,304.41)">
      <path
         id="path10498"
         d="M 2.3203,0 C 1.6601,0 1.0605,0.29 0.6904,0.78 0.2305,1.4 0,2.35 0,3.66 c 0,2.39 0.8008,3.66 2.3203,3.66 1.5,0 2.3203,-1.27 2.3203,-3.6 0,-1.38 -0.2207,-2.3 -0.6904,-2.94 C 3.5801,0.28 2.9902,0 2.3203,0 Z m 0,0.78 c 0.9502,0 1.4199,0.96 1.4199,2.86 0,2.01 -0.4599,2.95 -1.4394,2.95 -0.9307,0 -1.4004,-0.98 -1.4004,-2.92 0,-1.94 0.4697,-2.89 1.4199,-2.89 z"
         inkscape:connector-curvature="0" />
    </g>
    <g
       id="g10500"
       style="fill:none;stroke:#000000;stroke-width:0.5pt;stroke-linecap:butt;stroke-linejoin:round;stroke-dasharray:none"
       transform="translate(59.917,279.5)">
      <path
         id="path10502"
         d="M 0,0 C 0,0 3.5,0 3.5,0"
         inkscape:connector-curvature="0" />
    </g>
    <g
       id="g10504"
       style="fill:none;stroke:#000000;stroke-width:0.5pt;stroke-linecap:butt;stroke-linejoin:round;stroke-dasharray:none"
       transform="translate(413.667,279.5)">
      <path
         id="path10506"
         d="M 3.583,0 C 3.583,0 0,0 0,0"
         inkscape:connector-curvature="0" />
    </g>
    <g
       id="g10508"
       style="fill:#000000;fill-rule:evenodd;stroke:none;stroke-width:0.5pt;stroke-linecap:butt;stroke-linejoin:miter;stroke-dasharray:none"
       transform="translate(43.6797,276.16)">
      <path
         id="path10510"
         d="M 2.3203,0 C 1.6601,0 1.0605,0.29 0.6904,0.78 0.2305,1.4 0,2.35 0,3.66 c 0,2.39 0.8008,3.66 2.3203,3.66 1.5,0 2.3203,-1.27 2.3203,-3.6 0,-1.38 -0.2207,-2.3 -0.6904,-2.94 C 3.5801,0.28 2.9902,0 2.3203,0 Z m 0,0.78 c 0.9502,0 1.4199,0.96 1.4199,2.86 0,2.01 -0.4599,2.95 -1.4394,2.95 -0.9307,0 -1.4004,-0.98 -1.4004,-2.92 0,-1.94 0.4697,-2.89 1.4199,-2.89 z"
         inkscape:connector-curvature="0" />
    </g>
    <g
       id="g10512"
       style="fill:#000000;fill-rule:evenodd;stroke:none;stroke-width:0.5pt;stroke-linecap:butt;stroke-linejoin:miter;stroke-dasharray:none"
       transform="translate(49.6201,282.21)">
      <path
         id="path10514"
         d="M 1.0401,0 C 1.0401,0 0,0 0,0 c 0,0 0,1.04 0,1.04 0,0 1.0401,0 1.0401,0 0,0 0,-1.04 0,-1.04 z"
         inkscape:connector-curvature="0" />
    </g>
    <g
       id="g10516"
       style="fill:#000000;fill-rule:evenodd;stroke:none;stroke-width:0.5pt;stroke-linecap:butt;stroke-linejoin:miter;stroke-dasharray:none"
       transform="translate(52.5195,276.16)">
      <path
         id="path10518"
         d="m 1.5703,2.04 c 0,0 0,5.05 0,5.05 0,0 0.8799,0 0.8799,0 0,0 0,-7.09 0,-7.09 0,0 -0.5801,0 -0.5801,0 C 1.5606,1.09 1.3604,1.24 0,1.41 c 0,0 0,0.63 0,0.63 0,0 1.5703,0 1.5703,0 z"
         inkscape:connector-curvature="0" />
    </g>
    <g
       id="g10520"
       style="fill:none;stroke:#000000;stroke-width:0.5pt;stroke-linecap:butt;stroke-linejoin:round;stroke-dasharray:none"
       transform="translate(59.917,251.333)">
      <path
         id="path10522"
         d="M 0,0 C 0,0 3.5,0 3.5,0"
         inkscape:connector-curvature="0" />
    </g>
    <g
       id="g10524"
       style="fill:none;stroke:#000000;stroke-width:0.5pt;stroke-linecap:butt;stroke-linejoin:round;stroke-dasharray:none"
       transform="translate(413.667,251.333)">
      <path
         id="path10526"
         d="M 3.583,0 C 3.583,0 0,0 0,0"
         inkscape:connector-curvature="0" />
    </g>
    <g
       id="g10528"
       style="fill:#000000;fill-rule:evenodd;stroke:none;stroke-width:0.5pt;stroke-linecap:butt;stroke-linejoin:miter;stroke-dasharray:none"
       transform="translate(43.6797,247.91)">
      <path
         id="path10530"
         d="M 2.3203,0 C 1.6601,0 1.0605,0.29 0.6904,0.78 0.2305,1.4 0,2.35 0,3.66 c 0,2.39 0.8008,3.66 2.3203,3.66 1.5,0 2.3203,-1.27 2.3203,-3.6 0,-1.38 -0.2207,-2.3 -0.6904,-2.94 C 3.5801,0.28 2.9902,0 2.3203,0 Z m 0,0.78 c 0.9502,0 1.4199,0.96 1.4199,2.86 0,2.01 -0.4599,2.95 -1.4394,2.95 -0.9307,0 -1.4004,-0.98 -1.4004,-2.92 0,-1.94 0.4697,-2.89 1.4199,-2.89 z"
         inkscape:connector-curvature="0" />
    </g>
    <g
       id="g10532"
       style="fill:#000000;fill-rule:evenodd;stroke:none;stroke-width:0.5pt;stroke-linecap:butt;stroke-linejoin:miter;stroke-dasharray:none"
       transform="translate(49.6201,253.96)">
      <path
         id="path10534"
         d="M 1.0401,0 C 1.0401,0 0,0 0,0 c 0,0 0,1.04 0,1.04 0,0 1.0401,0 1.0401,0 0,0 0,-1.04 0,-1.04 z"
         inkscape:connector-curvature="0" />
    </g>
    <g
       id="g10536"
       style="fill:#000000;fill-rule:evenodd;stroke:none;stroke-width:0.5pt;stroke-linecap:butt;stroke-linejoin:miter;stroke-dasharray:none"
       transform="translate(51.8398,247.91)">
      <path
         id="path10538"
         d="m 4.7198,6.22 c 0,0 -3.7295,0 -3.7295,0 0.0898,-0.58 0.4101,-0.95 1.2803,-1.46 0,0 1,-0.54 1,-0.54 0.9892,-0.54 1.5,-1.27 1.5,-2.14 C 4.7706,1.49 4.5303,0.94 4.1104,0.56 3.6905,0.18 3.17,0 2.5,0 1.6006,0 0.9297,0.32 0.5401,0.92 0.2901,1.3 0.1797,1.74 0.1602,2.46 c 0,0 0.8799,0 0.8799,0 C 1.0704,1.98 1.1299,1.69 1.25,1.46 1.4805,1.03 1.9405,0.77 2.4698,0.77 c 0.8008,0 1.4004,0.57 1.4004,1.33 0,0.56 -0.3301,1.04 -0.96,1.4 0,0 -0.9199,0.52 -0.9199,0.52 C 0.5098,4.86 0.0801,5.53 0,7.09 c 0,0 4.7198,0 4.7198,0 0,0 0,-0.87 0,-0.87 z"
         inkscape:connector-curvature="0" />
    </g>
    <g
       id="g10540"
       style="fill:none;stroke:#000000;stroke-width:0.5pt;stroke-linecap:butt;stroke-linejoin:round;stroke-dasharray:none"
       transform="translate(59.917,223.167)">
      <path
         id="path10542"
         d="M 0,0 C 0,0 3.5,0 3.5,0"
         inkscape:connector-curvature="0" />
    </g>
    <g
       id="g10544"
       style="fill:none;stroke:#000000;stroke-width:0.5pt;stroke-linecap:butt;stroke-linejoin:round;stroke-dasharray:none"
       transform="translate(413.667,223.167)">
      <path
         id="path10546"
         d="M 3.583,0 C 3.583,0 0,0 0,0"
         inkscape:connector-curvature="0" />
    </g>
    <g
       id="g10548"
       style="fill:#000000;fill-rule:evenodd;stroke:none;stroke-width:0.5pt;stroke-linecap:butt;stroke-linejoin:miter;stroke-dasharray:none"
       transform="translate(43.6797,219.66)">
      <path
         id="path10550"
         d="M 2.3203,0 C 1.6601,0 1.0605,0.29 0.6904,0.78 0.2305,1.4 0,2.35 0,3.66 c 0,2.39 0.8008,3.66 2.3203,3.66 1.5,0 2.3203,-1.27 2.3203,-3.6 0,-1.38 -0.2207,-2.3 -0.6904,-2.94 C 3.5801,0.28 2.9902,0 2.3203,0 Z m 0,0.78 c 0.9502,0 1.4199,0.96 1.4199,2.86 0,2.01 -0.4599,2.95 -1.4394,2.95 -0.9307,0 -1.4004,-0.98 -1.4004,-2.92 0,-1.94 0.4697,-2.89 1.4199,-2.89 z"
         inkscape:connector-curvature="0" />
    </g>
    <g
       id="g10552"
       style="fill:#000000;fill-rule:evenodd;stroke:none;stroke-width:0.5pt;stroke-linecap:butt;stroke-linejoin:miter;stroke-dasharray:none"
       transform="translate(49.6201,225.71)">
      <path
         id="path10554"
         d="M 1.0401,0 C 1.0401,0 0,0 0,0 c 0,0 0,1.04 0,1.04 0,0 1.0401,0 1.0401,0 0,0 0,-1.04 0,-1.04 z"
         inkscape:connector-curvature="0" />
    </g>
    <g
       id="g10556"
       style="fill:#000000;fill-rule:evenodd;stroke:none;stroke-width:0.5pt;stroke-linecap:butt;stroke-linejoin:miter;stroke-dasharray:none"
       transform="translate(51.8203,219.66)">
      <path
         id="path10558"
         d="m 1.8897,3.84 c 0,0 0.1103,0 0.1103,0 0,0 0.3701,-0.01 0.3701,-0.01 0.9698,0 1.4698,0.44 1.4698,1.29 0,0.89 -0.5498,1.42 -1.4698,1.42 -0.9599,0 -1.4306,-0.48 -1.4902,-1.51 0,0 -0.8799,0 -0.8799,0 0.0401,0.57 0.1397,0.94 0.3096,1.26 0.3603,0.68 1.0605,1.03 2.0303,1.03 1.4599,0 2.3994,-0.87 2.3994,-2.21 0,-0.9 -0.3496,-1.4 -1.1992,-1.69 C 4.1992,3.16 4.5293,2.66 4.5293,1.95 4.5293,0.73 3.7197,0 2.3701,0 0.9395,0 0.1797,0.78 0.1494,2.29 c 0,0 0.8799,0 0.8799,0 C 1.0401,1.861 1.0801,1.62 1.1895,1.4 1.3897,1.01 1.8301,0.77 2.3799,0.77 c 0.7803,0 1.25,0.46 1.25,1.21 0,0.5 -0.1807,0.8 -0.5703,0.96 -0.2403,0.1 -0.5498,0.14 -1.1699,0.15 0,0 0,0.75 0,0.75 z"
         inkscape:connector-curvature="0" />
    </g>
    <g
       id="g10560"
       style="fill:none;stroke:#000000;stroke-width:0.5pt;stroke-linecap:butt;stroke-linejoin:round;stroke-dasharray:none"
       transform="translate(59.917,195)">
      <path
         id="path10562"
         d="M 0,0 C 0,0 3.5,0 3.5,0"
         inkscape:connector-curvature="0" />
    </g>
    <g
       id="g10564"
       style="fill:none;stroke:#000000;stroke-width:0.5pt;stroke-linecap:butt;stroke-linejoin:round;stroke-dasharray:none"
       transform="translate(413.667,195)">
      <path
         id="path10566"
         d="M 3.583,0 C 3.583,0 0,0 0,0"
         inkscape:connector-curvature="0" />
    </g>
    <g
       id="g10568"
       style="fill:#000000;fill-rule:evenodd;stroke:none;stroke-width:0.5pt;stroke-linecap:butt;stroke-linejoin:miter;stroke-dasharray:none"
       transform="translate(43.6797,191.66)">
      <path
         id="path10570"
         d="M 2.3203,0 C 1.6601,0 1.0605,0.29 0.6904,0.78 0.2305,1.4 0,2.35 0,3.66 c 0,2.39 0.8008,3.66 2.3203,3.66 1.5,0 2.3203,-1.27 2.3203,-3.6 0,-1.38 -0.2207,-2.3 -0.6904,-2.94 C 3.5801,0.28 2.9902,0 2.3203,0 Z m 0,0.78 c 0.9502,0 1.4199,0.96 1.4199,2.86 0,2.01 -0.4599,2.95 -1.4394,2.95 -0.9307,0 -1.4004,-0.98 -1.4004,-2.92 0,-1.94 0.4697,-2.89 1.4199,-2.89 z"
         inkscape:connector-curvature="0" />
    </g>
    <g
       id="g10572"
       style="fill:#000000;fill-rule:evenodd;stroke:none;stroke-width:0.5pt;stroke-linecap:butt;stroke-linejoin:miter;stroke-dasharray:none"
       transform="translate(49.6201,197.71)">
      <path
         id="path10574"
         d="M 1.0401,0 C 1.0401,0 0,0 0,0 c 0,0 0,1.04 0,1.04 0,0 1.0401,0 1.0401,0 0,0 0,-1.04 0,-1.04 z"
         inkscape:connector-curvature="0" />
    </g>
    <g
       id="g10576"
       style="fill:#000000;fill-rule:evenodd;stroke:none;stroke-width:0.5pt;stroke-linecap:butt;stroke-linejoin:miter;stroke-dasharray:none"
       transform="translate(51.7803,191.66)">
      <path
         id="path10578"
         d="m 2.9892,5.39 c 0,0 0,1.7 0,1.7 0,0 0.8809,0 0.8809,0 0,0 0,-1.7 0,-1.7 0,0 1.0498,0 1.0498,0 0,0 0,-0.79 0,-0.79 0,0 -1.0498,0 -1.0498,0 0,0 0,-4.6 0,-4.6 0,0 -0.6504,0 -0.6504,0 C 3.2197,0 0,4.46 0,4.46 c 0,0 0,0.93 0,0.93 0,0 2.9892,0 2.9892,0 z m 0,-0.79 c 0,0 -2.2197,0 -2.2197,0 0,0 2.2197,-3.1 2.2197,-3.1 0,0 0,3.1 0,3.1 z"
         inkscape:connector-curvature="0" />
    </g>
    <g
       id="g10580"
       style="fill:none;stroke:#000000;stroke-width:0.5pt;stroke-linecap:butt;stroke-linejoin:round;stroke-dasharray:none"
       transform="translate(59.917,166.833)">
      <path
         id="path10582"
         d="M 0,0 C 0,0 3.5,0 3.5,0"
         inkscape:connector-curvature="0" />
    </g>
    <g
       id="g10584"
       style="fill:none;stroke:#000000;stroke-width:0.5pt;stroke-linecap:butt;stroke-linejoin:round;stroke-dasharray:none"
       transform="translate(413.667,166.833)">
      <path
         id="path10586"
         d="M 3.583,0 C 3.583,0 0,0 0,0"
         inkscape:connector-curvature="0" />
    </g>
    <g
       id="g10588"
       style="fill:#000000;fill-rule:evenodd;stroke:none;stroke-width:0.5pt;stroke-linecap:butt;stroke-linejoin:miter;stroke-dasharray:none"
       transform="translate(43.6797,163.41)">
      <path
         id="path10590"
         d="M 2.3203,0 C 1.6601,0 1.0605,0.29 0.6904,0.78 0.2305,1.4 0,2.35 0,3.66 c 0,2.39 0.8008,3.66 2.3203,3.66 1.5,0 2.3203,-1.27 2.3203,-3.6 0,-1.38 -0.2207,-2.3 -0.6904,-2.94 C 3.5801,0.28 2.9902,0 2.3203,0 Z m 0,0.78 c 0.9502,0 1.4199,0.96 1.4199,2.86 0,2.01 -0.4599,2.95 -1.4394,2.95 -0.9307,0 -1.4004,-0.98 -1.4004,-2.92 0,-1.94 0.4697,-2.89 1.4199,-2.89 z"
         inkscape:connector-curvature="0" />
    </g>
    <g
       id="g10592"
       style="fill:#000000;fill-rule:evenodd;stroke:none;stroke-width:0.5pt;stroke-linecap:butt;stroke-linejoin:miter;stroke-dasharray:none"
       transform="translate(49.6201,169.46)">
      <path
         id="path10594"
         d="M 1.0401,0 C 1.0401,0 0,0 0,0 c 0,0 0,1.04 0,1.04 0,0 1.0401,0 1.0401,0 0,0 0,-1.04 0,-1.04 z"
         inkscape:connector-curvature="0" />
    </g>
    <g
       id="g10596"
       style="fill:#000000;fill-rule:evenodd;stroke:none;stroke-width:0.5pt;stroke-linecap:butt;stroke-linejoin:miter;stroke-dasharray:none"
       transform="translate(51.8496,163.41)">
      <path
         id="path10598"
         d="m 4.4102,0 c 0,0 -3.6602,0 -3.6602,0 0,0 -0.5293,3.86 -0.5293,3.86 0,0 0.8096,0 0.8096,0 0.4101,-0.49 0.75,-0.66 1.2998,-0.66 0.9502,0 1.5508,0.65 1.5508,1.7 0,1.02 -0.5909,1.64 -1.5508,1.64 -0.7695,0 -1.2393,-0.39 -1.4492,-1.19 0,0 -0.8809,0 -0.8809,0 0.1201,0.58 0.2207,0.86 0.4307,1.12 0.3994,0.54 1.1201,0.85 1.9199,0.85 1.4297,0 2.4297,-1.04 2.4297,-2.54 0,-1.4 -0.9297,-2.36 -2.2901,-2.36 -0.5,0 -0.8994,0.13 -1.3095,0.43 0,0 0.2793,-1.98 0.2793,-1.98 0,0 2.9502,0 2.9502,0 0,0 0,-0.87 0,-0.87 z"
         inkscape:connector-curvature="0" />
    </g>
    <g
       id="g10600"
       style="fill:none;stroke:#000000;stroke-width:0.5pt;stroke-linecap:butt;stroke-linejoin:round;stroke-dasharray:none"
       transform="translate(59.917,138.583)">
      <path
         id="path10602"
         d="M 0,0 C 0,0 3.5,0 3.5,0"
         inkscape:connector-curvature="0" />
    </g>
    <g
       id="g10604"
       style="fill:none;stroke:#000000;stroke-width:0.5pt;stroke-linecap:butt;stroke-linejoin:round;stroke-dasharray:none"
       transform="translate(413.667,138.583)">
      <path
         id="path10606"
         d="M 3.583,0 C 3.583,0 0,0 0,0"
         inkscape:connector-curvature="0" />
    </g>
    <g
       id="g10608"
       style="fill:#000000;fill-rule:evenodd;stroke:none;stroke-width:0.5pt;stroke-linecap:butt;stroke-linejoin:miter;stroke-dasharray:none"
       transform="translate(43.6797,135.16)">
      <path
         id="path10610"
         d="M 2.3203,0 C 1.6601,0 1.0605,0.29 0.6904,0.78 0.2305,1.4 0,2.35 0,3.66 c 0,2.39 0.8008,3.66 2.3203,3.66 1.5,0 2.3203,-1.27 2.3203,-3.6 0,-1.38 -0.2207,-2.3 -0.6904,-2.94 C 3.5801,0.28 2.9902,0 2.3203,0 Z m 0,0.78 c 0.9502,0 1.4199,0.96 1.4199,2.86 0,2.01 -0.4599,2.95 -1.4394,2.95 -0.9307,0 -1.4004,-0.98 -1.4004,-2.92 0,-1.94 0.4697,-2.89 1.4199,-2.89 z"
         inkscape:connector-curvature="0" />
    </g>
    <g
       id="g10612"
       style="fill:#000000;fill-rule:evenodd;stroke:none;stroke-width:0.5pt;stroke-linecap:butt;stroke-linejoin:miter;stroke-dasharray:none"
       transform="translate(49.6201,141.21)">
      <path
         id="path10614"
         d="M 1.0401,0 C 1.0401,0 0,0 0,0 c 0,0 0,1.04 0,1.04 0,0 1.0401,0 1.0401,0 0,0 0,-1.04 0,-1.04 z"
         inkscape:connector-curvature="0" />
    </g>
    <g
       id="g10616"
       style="fill:#000000;fill-rule:evenodd;stroke:none;stroke-width:0.5pt;stroke-linecap:butt;stroke-linejoin:miter;stroke-dasharray:none"
       transform="translate(51.9297,135.16)">
      <path
         id="path10618"
         d="M 4.5508,1.85 C 4.3799,0.69 3.6201,0 2.54,0 1.7607,0 1.0605,0.38 0.6406,1.01 0.2002,1.7 0,2.57 0,3.86 c 0,1.19 0.1807,1.95 0.6006,2.58 0.3799,0.57 1,0.88 1.7793,0.88 1.3506,0 2.3203,-1 2.3203,-2.39 0,-1.32 -0.8994,-2.25 -2.1699,-2.25 -0.7002,0 -1.25,0.27 -1.6299,0.79 0.0097,-1.73 0.5703,-2.69 1.5801,-2.69 0.6201,0 1.0498,0.39 1.1894,1.07 0,0 0.8809,0 0.8809,0 z M 2.4199,3.46 c 0.8506,0 1.3809,0.59 1.3809,1.54 0,0.89 -0.6006,1.54 -1.4102,1.54 -0.8203,0 -1.4404,-0.68 -1.4404,-1.59 0,-0.88 0.6006,-1.49 1.4697,-1.49 z"
         inkscape:connector-curvature="0" />
    </g>
    <g
       id="g10620"
       style="fill:none;stroke:#000000;stroke-width:0.5pt;stroke-linecap:butt;stroke-linejoin:round;stroke-dasharray:none"
       transform="translate(59.917,110.417)">
      <path
         id="path10622"
         d="M 0,0 C 0,0 3.5,0 3.5,0"
         inkscape:connector-curvature="0" />
    </g>
    <g
       id="g10624"
       style="fill:none;stroke:#000000;stroke-width:0.5pt;stroke-linecap:butt;stroke-linejoin:round;stroke-dasharray:none"
       transform="translate(413.667,110.417)">
      <path
         id="path10626"
         d="M 3.583,0 C 3.583,0 0,0 0,0"
         inkscape:connector-curvature="0" />
    </g>
    <g
       id="g10628"
       style="fill:#000000;fill-rule:evenodd;stroke:none;stroke-width:0.5pt;stroke-linecap:butt;stroke-linejoin:miter;stroke-dasharray:none"
       transform="translate(43.6797,106.91)">
      <path
         id="path10630"
         d="M 2.3203,0 C 1.6601,0 1.0605,0.29 0.6904,0.78 0.2305,1.4 0,2.35 0,3.66 c 0,2.39 0.8008,3.66 2.3203,3.66 1.5,0 2.3203,-1.27 2.3203,-3.6 0,-1.38 -0.2207,-2.3 -0.6904,-2.94 C 3.5801,0.28 2.9902,0 2.3203,0 Z m 0,0.78 c 0.9502,0 1.4199,0.96 1.4199,2.86 0,2.01 -0.4599,2.95 -1.4394,2.95 -0.9307,0 -1.4004,-0.98 -1.4004,-2.92 0,-1.94 0.4697,-2.89 1.4199,-2.89 z"
         inkscape:connector-curvature="0" />
    </g>
    <g
       id="g10632"
       style="fill:#000000;fill-rule:evenodd;stroke:none;stroke-width:0.5pt;stroke-linecap:butt;stroke-linejoin:miter;stroke-dasharray:none"
       transform="translate(49.6201,112.96)">
      <path
         id="path10634"
         d="M 1.0401,0 C 1.0401,0 0,0 0,0 c 0,0 0,1.04 0,1.04 0,0 1.0401,0 1.0401,0 0,0 0,-1.04 0,-1.04 z"
         inkscape:connector-curvature="0" />
    </g>
    <g
       id="g10636"
       style="fill:#000000;fill-rule:evenodd;stroke:none;stroke-width:0.5pt;stroke-linecap:butt;stroke-linejoin:miter;stroke-dasharray:none"
       transform="translate(51.96,106.91)">
      <path
         id="path10638"
         d="M 4.7402,0 C 4.7402,0 0,0 0,0 c 0,0 0,0.87 0,0.87 0,0 3.83,0 3.83,0 -1.6904,2.41 -2.3798,3.89 -2.9101,6.22 0,0 0.9404,0 0.9404,0 C 2.25,4.82 3.1396,2.87 4.7402,0.74 c 0,0 0,-0.74 0,-0.74 z"
         inkscape:connector-curvature="0" />
    </g>
    <g
       id="g10640"
       style="fill:none;stroke:#000000;stroke-width:0.5pt;stroke-linecap:butt;stroke-linejoin:round;stroke-dasharray:none"
       transform="translate(59.917,82.25)">
      <path
         id="path10642"
         d="M 0,0 C 0,0 3.5,0 3.5,0"
         inkscape:connector-curvature="0" />
    </g>
    <g
       id="g10644"
       style="fill:none;stroke:#000000;stroke-width:0.5pt;stroke-linecap:butt;stroke-linejoin:round;stroke-dasharray:none"
       transform="translate(413.667,82.25)">
      <path
         id="path10646"
         d="M 3.583,0 C 3.583,0 0,0 0,0"
         inkscape:connector-curvature="0" />
    </g>
    <g
       id="g10648"
       style="fill:#000000;fill-rule:evenodd;stroke:none;stroke-width:0.5pt;stroke-linecap:butt;stroke-linejoin:miter;stroke-dasharray:none"
       transform="translate(43.6797,78.9102)">
      <path
         id="path10650"
         d="M 2.3203,0 C 1.6601,0 1.0605,0.29 0.6904,0.7802 0.2305,1.3994 0,2.3496 0,3.6601 c 0,2.3897 0.8008,3.6602 2.3203,3.6602 1.5,0 2.3203,-1.2705 2.3203,-3.6006 C 4.6406,2.3398 4.4199,1.4199 3.9502,0.7802 3.5801,0.2802 2.9902,0 2.3203,0 Z m 0,0.7802 c 0.9502,0 1.4199,0.96 1.4199,2.8594 0,2.0098 -0.4599,2.9502 -1.4394,2.9502 -0.9307,0 -1.4004,-0.9805 -1.4004,-2.9199 0,-1.9405 0.4697,-2.8897 1.4199,-2.8897 z"
         inkscape:connector-curvature="0" />
    </g>
    <g
       id="g10652"
       style="fill:#000000;fill-rule:evenodd;stroke:none;stroke-width:0.5pt;stroke-linecap:butt;stroke-linejoin:miter;stroke-dasharray:none"
       transform="translate(49.6201,84.96)">
      <path
         id="path10654"
         d="M 1.0401,0 C 1.0401,0 0,0 0,0 c 0,0 0,1.04 0,1.04 0,0 1.0401,0 1.0401,0 0,0 0,-1.04 0,-1.04 z"
         inkscape:connector-curvature="0" />
    </g>
    <g
       id="g10656"
       style="fill:#000000;fill-rule:evenodd;stroke:none;stroke-width:0.5pt;stroke-linecap:butt;stroke-linejoin:miter;stroke-dasharray:none"
       transform="translate(51.8701,78.9102)">
      <path
         id="path10658"
         d="M 3.5401,3.3593 C 4.2695,2.9199 4.5098,2.5595 4.5098,1.8896 4.5098,0.7802 3.6397,0 2.3799,0 1.1299,0 0.25,0.7802 0.25,1.8896 0.25,2.5498 0.4903,2.9101 1.21,3.3593 0.3994,3.75 0,4.3398 0,5.1201 c 0,1.2998 0.9795,2.2002 2.3799,2.2002 1.4004,0 2.3799,-0.9004 2.3799,-2.1905 0,-0.79 -0.3994,-1.3798 -1.2197,-1.7705 z M 2.3799,0.7802 c 0.75,0 1.2305,0.4395 1.2305,1.1299 0,0.6602 -0.4903,1.0996 -1.2305,1.0996 -0.7402,0 -1.2305,-0.4394 -1.2305,-1.1103 0,-0.6797 0.4903,-1.1192 1.2305,-1.1192 z m 0,2.9698 c 0.8799,0 1.4805,0.5595 1.4805,1.3896 0,0.8398 -0.6006,1.4004 -1.5,1.4004 C 1.5,6.54 0.8994,5.9697 0.8994,5.1396 0.8994,4.3095 1.5,3.75 2.3799,3.75 Z"
         inkscape:connector-curvature="0" />
    </g>
    <g
       id="g10660"
       style="fill:none;stroke:#000000;stroke-width:0.5pt;stroke-linecap:butt;stroke-linejoin:round;stroke-dasharray:none"
       transform="translate(59.917,54.083)">
      <path
         id="path10662"
         d="M 0,0 C 0,0 3.5,0 3.5,0"
         inkscape:connector-curvature="0" />
    </g>
    <g
       id="g10664"
       style="fill:none;stroke:#000000;stroke-width:0.5pt;stroke-linecap:butt;stroke-linejoin:round;stroke-dasharray:none"
       transform="translate(413.667,54.083)">
      <path
         id="path10666"
         d="M 3.583,0 C 3.583,0 0,0 0,0"
         inkscape:connector-curvature="0" />
    </g>
    <g
       id="g10668"
       style="fill:#000000;fill-rule:evenodd;stroke:none;stroke-width:0.5pt;stroke-linecap:butt;stroke-linejoin:miter;stroke-dasharray:none"
       transform="translate(43.6797,50.6602)">
      <path
         id="path10670"
         d="M 2.3203,0 C 1.6601,0 1.0605,0.29 0.6904,0.7802 0.2305,1.3994 0,2.3496 0,3.6601 c 0,2.3897 0.8008,3.6602 2.3203,3.6602 1.5,0 2.3203,-1.2705 2.3203,-3.6006 C 4.6406,2.3398 4.4199,1.4199 3.9502,0.7802 3.5801,0.2802 2.9902,0 2.3203,0 Z m 0,0.7802 c 0.9502,0 1.4199,0.96 1.4199,2.8594 0,2.0098 -0.4599,2.9502 -1.4394,2.9502 -0.9307,0 -1.4004,-0.9805 -1.4004,-2.9199 0,-1.9405 0.4697,-2.8897 1.4199,-2.8897 z"
         inkscape:connector-curvature="0" />
    </g>
    <g
       id="g10672"
       style="fill:#000000;fill-rule:evenodd;stroke:none;stroke-width:0.5pt;stroke-linecap:butt;stroke-linejoin:miter;stroke-dasharray:none"
       transform="translate(49.6201,56.71)">
      <path
         id="path10674"
         d="M 1.0401,0 C 1.0401,0 0,0 0,0 c 0,0 0,1.04 0,1.04 0,0 1.0401,0 1.0401,0 0,0 0,-1.04 0,-1.04 z"
         inkscape:connector-curvature="0" />
    </g>
    <g
       id="g10676"
       style="fill:#000000;fill-rule:evenodd;stroke:none;stroke-width:0.5pt;stroke-linecap:butt;stroke-linejoin:miter;stroke-dasharray:none"
       transform="translate(51.8799,50.6602)">
      <path
         id="path10678"
         d="m 0.1504,5.4697 c 0.1699,1.1601 0.9297,1.8506 2.0097,1.8506 0.7803,0 1.4903,-0.3809 1.9004,-1.0108 C 4.5097,5.6201 4.7099,4.75 4.7099,3.4599 4.7099,2.2695 4.5303,1.5097 4.1103,0.8798 3.7197,0.3095 3.1006,0 2.3203,0 0.9697,0 0,1 0,2.3896 c 0,1.3203 0.9004,2.25 2.1797,2.25 0.6709,0 1.1601,-0.2402 1.6201,-0.79 C 3.79,5.58 3.2305,6.54 2.2197,6.54 1.6006,6.54 1.1699,6.1494 1.0303,5.4697 c 0,0 -0.8799,0 -0.8799,0 z M 2.3105,0.7695 c 0.8194,0 1.4395,0.6807 1.4395,1.6006 0,0.8701 -0.6104,1.4892 -1.4697,1.4892 -0.8506,0 -1.3799,-0.5898 -1.3799,-1.539 0,-0.9004 0.5996,-1.5508 1.4101,-1.5508 z"
         inkscape:connector-curvature="0" />
    </g>
    <g
       id="g10680"
       style="fill:none;stroke:#000000;stroke-width:0.5pt;stroke-linecap:butt;stroke-linejoin:round;stroke-dasharray:none"
       transform="translate(59.917,25.917)">
      <path
         id="path10682"
         d="M 0,0 C 0,0 3.5,0 3.5,0"
         inkscape:connector-curvature="0" />
    </g>
    <g
       id="g10684"
       style="fill:none;stroke:#000000;stroke-width:0.5pt;stroke-linecap:butt;stroke-linejoin:round;stroke-dasharray:none"
       transform="translate(413.667,25.917)">
      <path
         id="path10686"
         d="M 3.583,0 C 3.583,0 0,0 0,0"
         inkscape:connector-curvature="0" />
    </g>
    <g
       id="g10688"
       style="fill:#000000;fill-rule:evenodd;stroke:none;stroke-width:0.5pt;stroke-linecap:butt;stroke-linejoin:miter;stroke-dasharray:none"
       transform="translate(52.5195,22.4102)">
      <path
         id="path10690"
         d="m 1.5703,2.04 c 0,0 0,5.0498 0,5.0498 0,0 0.8799,0 0.8799,0 0,0 0,-7.0898 0,-7.0898 0,0 -0.5801,0 -0.5801,0 C 1.5606,1.0898 1.3604,1.2402 0,1.4101 c 0,0 0,0.6299 0,0.6299 0,0 1.5703,0 1.5703,0 z"
         inkscape:connector-curvature="0" />
    </g>
    <g
       id="g10692"
       style="fill:none;stroke:#000000;stroke-width:0.5pt;stroke-linecap:butt;stroke-linejoin:round;stroke-dasharray:none"
       transform="translate(59.917,307.75)">
      <path
         id="path10694"
         d="M 0,0 C 0,0 357.333,0 357.333,0"
         inkscape:connector-curvature="0" />
    </g>
    <g
       id="g10696"
       style="fill:none;stroke:#000000;stroke-width:0.5pt;stroke-linecap:butt;stroke-linejoin:round;stroke-dasharray:none"
       transform="translate(59.917,25.917)">
      <path
         id="path10698"
         d="M 0,0 C 0,0 357.333,0 357.333,0"
         inkscape:connector-curvature="0" />
    </g>
    <g
       id="g10700"
       style="fill:none;stroke:#000000;stroke-width:0.5pt;stroke-linecap:butt;stroke-linejoin:round;stroke-dasharray:none"
       transform="translate(59.917,25.917)">
      <path
         id="path10702"
         d="M 0,281.833 C 0,281.833 0,0 0,0"
         inkscape:connector-curvature="0" />
    </g>
    <g
       id="g10704"
       style="fill:none;stroke:#000000;stroke-width:0.5pt;stroke-linecap:butt;stroke-linejoin:round;stroke-dasharray:none"
       transform="translate(417.25,25.917)">
      <path
         id="path10706"
         d="M 0,281.833 C 0,281.833 0,0 0,0"
         inkscape:connector-curvature="0" />
    </g>
    <g
       id="g10708"
       style="fill:#006699;fill-rule:evenodd;stroke:#000000;stroke-width:0.5pt;stroke-linecap:butt;stroke-linejoin:round;stroke-dasharray:none"
       transform="translate(59.917,25.917)">
      <path
         id="path10710"
         d="m 0,281.833 c 0,0 2.75,-0.25 2.75,-0.25 0,0 2.833,-0.5 2.833,-0.5 0,0 2.833,-0.833 2.833,-0.833 0,0 2.834,-1.25 2.834,-1.25 0,0 2.75,-1.5 2.75,-1.5 0,0 2.833,-1.834 2.833,-1.834 0,0 2.833,-2.25 2.833,-2.25 0,0 2.834,-2.5 2.834,-2.5 0,0 2.75,-2.833 2.75,-2.833 0,0 2.833,-3.167 2.833,-3.167 0,0 2.833,-3.5 2.833,-3.5 0,0 2.834,-3.75 2.834,-3.75 0,0 2.75,-4 2.75,-4 0,0 2.833,-4.333 2.833,-4.333 0,0 2.833,-4.583 2.833,-4.583 0,0 2.834,-4.834 2.834,-4.834 0,0 2.75,-5.083 2.75,-5.083 0,0 2.833,-5.333 2.833,-5.333 0,0 2.833,-5.5 2.833,-5.5 0,0 2.834,-5.75 2.834,-5.75 0,0 2.833,-5.917 2.833,-5.917 0,0 2.75,-6.083 2.75,-6.083 0,0 2.833,-6.25 2.833,-6.25 0,0 2.834,-6.417 2.834,-6.417 0,0 2.833,-6.5 2.833,-6.5 0,0 2.75,-6.667 2.75,-6.667 0,0 2.833,-6.75 2.833,-6.75 0,0 2.834,-6.833 2.834,-6.833 0,0 2.833,-6.833 2.833,-6.833 0,0 2.75,-6.917 2.75,-6.917 0,0 2.833,-7 2.833,-7 0,0 2.834,-6.917 2.834,-6.917 0,0 2.833,-7 2.833,-7 0,0 2.75,-6.916 2.75,-6.916 0,0 2.833,-6.917 2.833,-6.917 0,0 2.834,-6.833 2.834,-6.833 0,0 2.833,-6.834 2.833,-6.834 0,0 2.833,-6.666 2.833,-6.666 0,0 2.75,-6.584 2.75,-6.584 0,0 2.834,-6.5 2.834,-6.5 0,0 2.833,-6.333 2.833,-6.333 0,0 2.833,-6.167 2.833,-6.167 0,0 2.75,-6 2.75,-6 0,0 2.834,-5.833 2.834,-5.833 0,0 2.833,-5.583 2.833,-5.583 0,0 2.833,-5.417 2.833,-5.417 0,0 2.75,-5.25 2.75,-5.25 0,0 2.834,-4.917 2.834,-4.917 0,0 2.833,-4.75 2.833,-4.75 0,0 2.833,-4.416 2.833,-4.416 0,0 2.75,-4.167 2.75,-4.167 0,0 2.834,-3.917 2.834,-3.917 0,0 2.833,-3.583 2.833,-3.583 0,0 2.833,-3.333 2.833,-3.333 0,0 2.834,-3 2.834,-3 0,0 2.75,-2.667 2.75,-2.667 0,0 2.833,-2.417 2.833,-2.417 0,0 2.833,-2 2.833,-2 0,0 2.834,-1.75 2.834,-1.75 0,0 2.75,-1.333 2.75,-1.333 0,0 2.833,-1.083 2.833,-1.083 0,0 2.833,-0.667 2.833,-0.667 0,0 2.834,-0.333 2.834,-0.333 0,0 2.75,0 2.75,0 0,0 2.833,0.333 2.833,0.333 0,0 2.833,0.667 2.833,0.667 0,0 2.834,1.083 2.834,1.083 0,0 2.75,1.333 2.75,1.333 0,0 2.833,1.75 2.833,1.75 0,0 2.833,2 2.833,2 0,0 2.834,2.417 2.834,2.417 0,0 2.75,2.667 2.75,2.667 0,0 2.833,3 2.833,3 0,0 2.833,3.333 2.833,3.333 0,0 2.834,3.583 2.834,3.583 0,0 2.833,3.917 2.833,3.917 0,0 2.75,4.167 2.75,4.167 0,0 2.833,4.416 2.833,4.416 0,0 2.834,4.75 2.834,4.75 0,0 2.833,4.917 2.833,4.917 0,0 2.75,5.25 2.75,5.25 0,0 2.833,5.417 2.833,5.417 0,0 2.834,5.583 2.834,5.583 0,0 2.833,5.833 2.833,5.833 0,0 2.75,6 2.75,6 0,0 2.833,6.167 2.833,6.167 0,0 2.834,6.333 2.834,6.333 0,0 2.833,6.5 2.833,6.5 0,0 2.75,6.584 2.75,6.584 0,0 2.833,6.666 2.833,6.666 0,0 2.834,6.834 2.834,6.834 0,0 2.833,6.833 2.833,6.833 0,0 2.833,6.917 2.833,6.917 0,0 2.75,6.916 2.75,6.916 0,0 2.834,7 2.834,7 0,0 2.833,6.917 2.833,6.917 0,0 2.833,7 2.833,7 0,0 2.75,6.917 2.75,6.917 0,0 2.834,6.833 2.834,6.833 0,0 2.833,6.833 2.833,6.833 0,0 2.833,6.75 2.833,6.75 0,0 2.75,6.667 2.75,6.667 0,0 2.834,6.5 2.834,6.5 0,0 2.833,6.417 2.833,6.417 0,0 2.833,6.25 2.833,6.25 0,0 2.75,6.083 2.75,6.083 0,0 2.834,5.917 2.834,5.917 0,0 2.833,5.75 2.833,5.75 0,0 2.833,5.5 2.833,5.5 0,0 2.834,5.333 2.834,5.333 0,0 2.75,5.083 2.75,5.083 0,0 2.833,4.834 2.833,4.834 0,0 2.833,4.583 2.833,4.583 0,0 2.834,4.333 2.834,4.333 0,0 2.75,4 2.75,4 0,0 2.833,3.75 2.833,3.75 0,0 2.833,3.5 2.833,3.5 0,0 2.834,3.167 2.834,3.167 0,0 2.75,2.833 2.75,2.833 0,0 2.833,2.5 2.833,2.5 0,0 2.833,2.25 2.833,2.25 0,0 2.834,1.834 2.834,1.834 0,0 2.75,1.5 2.75,1.5 0,0 2.833,1.25 2.833,1.25 0,0 2.833,0.833 2.833,0.833 0,0 2.834,0.5 2.834,0.5 0,0 2.833,0.25 2.833,0.25 0,0 -2.833,0 -2.833,0 0,0 -2.834,0 -2.834,0 0,0 -2.833,0 -2.833,0 0,0 -2.833,0 -2.833,0 0,0 -2.75,0 -2.75,0 0,0 -2.834,0 -2.834,0 0,0 -2.833,0 -2.833,0 0,0 -2.833,0 -2.833,0 0,0 -2.75,0 -2.75,0 0,0 -2.834,0 -2.834,0 0,0 -2.833,0 -2.833,0 0,0 -2.833,0 -2.833,0 0,0 -2.75,0 -2.75,0 0,0 -2.834,0 -2.834,0 0,0 -2.833,0 -2.833,0 0,0 -2.833,0 -2.833,0 0,0 -2.75,0 -2.75,0 0,0 -2.834,0 -2.834,0 0,0 -2.833,0 -2.833,0 0,0 -2.833,0 -2.833,0 0,0 -2.834,0 -2.834,0 0,0 -2.75,0 -2.75,0 0,0 -2.833,0 -2.833,0 0,0 -2.833,0 -2.833,0 0,0 -2.834,0 -2.834,0 0,0 -2.75,0 -2.75,0 0,0 -2.833,0 -2.833,0 0,0 -2.833,0 -2.833,0 0,0 -2.834,0 -2.834,0 0,0 -2.75,0 -2.75,0 0,0 -2.833,0 -2.833,0 0,0 -2.833,0 -2.833,0 0,0 -2.834,0 -2.834,0 0,0 -2.75,0 -2.75,0 0,0 -2.833,0 -2.833,0 0,0 -2.833,0 -2.833,0 0,0 -2.834,0 -2.834,0 0,0 -2.833,0 -2.833,0 0,0 -2.75,0 -2.75,0 0,0 -2.833,0 -2.833,0 0,0 -2.834,0 -2.834,0 0,0 -2.833,0 -2.833,0 0,0 -2.75,0 -2.75,0 0,0 -2.833,0 -2.833,0 0,0 -2.834,0 -2.834,0 0,0 -2.833,0 -2.833,0 0,0 -2.75,0 -2.75,0 0,0 -2.833,0 -2.833,0 0,0 -2.834,0 -2.834,0 0,0 -2.833,0 -2.833,0 0,0 -2.75,0 -2.75,0 0,0 -2.833,0 -2.833,0 0,0 -2.834,0 -2.834,0 0,0 -2.833,0 -2.833,0 0,0 -2.833,0 -2.833,0 0,0 -2.75,0 -2.75,0 0,0 -2.834,0 -2.834,0 0,0 -2.833,0 -2.833,0 0,0 -2.833,0 -2.833,0 0,0 -2.75,0 -2.75,0 0,0 -2.834,0 -2.834,0 0,0 -2.833,0 -2.833,0 0,0 -2.833,0 -2.833,0 0,0 -2.75,0 -2.75,0 0,0 -2.834,0 -2.834,0 0,0 -2.833,0 -2.833,0 0,0 -2.833,0 -2.833,0 0,0 -2.75,0 -2.75,0 0,0 -2.834,0 -2.834,0 0,0 -2.833,0 -2.833,0 0,0 -2.833,0 -2.833,0 0,0 -2.75,0 -2.75,0 0,0 -2.834,0 -2.834,0 0,0 -2.833,0 -2.833,0 0,0 -2.833,0 -2.833,0 0,0 -2.834,0 -2.834,0 0,0 -2.75,0 -2.75,0 0,0 -2.833,0 -2.833,0 0,0 -2.833,0 -2.833,0 0,0 -2.834,0 -2.834,0 0,0 -2.75,0 -2.75,0 0,0 -2.833,0 -2.833,0 0,0 -2.833,0 -2.833,0 0,0 -2.834,0 -2.834,0 0,0 -2.75,0 -2.75,0 0,0 -2.833,0 -2.833,0 0,0 -2.833,0 -2.833,0 0,0 -2.834,0 -2.834,0 0,0 -2.75,0 -2.75,0 0,0 -2.833,0 -2.833,0 0,0 -2.833,0 -2.833,0 0,0 -2.834,0 -2.834,0 0,0 -2.833,0 -2.833,0 0,0 -2.75,0 -2.75,0 0,0 -2.833,0 -2.833,0 0,0 -2.834,0 -2.834,0 0,0 -2.833,0 -2.833,0 0,0 -2.75,0 -2.75,0 0,0 -2.833,0 -2.833,0 0,0 -2.834,0 -2.834,0 0,0 -2.833,0 -2.833,0 0,0 -2.75,0 -2.75,0 0,0 -2.833,0 -2.833,0 0,0 -2.834,0 -2.834,0 0,0 -2.833,0 -2.833,0 0,0 -2.75,0 -2.75,0 0,0 -2.833,0 -2.833,0 0,0 -2.834,0 -2.834,0 0,0 -2.833,0 -2.833,0 0,0 -2.833,0 -2.833,0 0,0 -2.75,0 -2.75,0 0,0 -2.834,0 -2.834,0 0,0 -2.833,0 -2.833,0 0,0 -2.833,0 -2.833,0 0,0 -2.75,0 -2.75,0 0,0 -2.834,0 -2.834,0 0,0 -2.833,0 -2.833,0 0,0 -2.833,0 -2.833,0 0,0 -2.75,0 -2.75,0 0,0 -2.834,0 -2.834,0 0,0 -2.833,0 -2.833,0 0,0 -2.833,0 -2.833,0 0,0 -2.75,0 -2.75,0 0,0 -2.834,0 -2.834,0 0,0 -2.833,0 -2.833,0 0,0 -2.833,0 -2.833,0 0,0 -2.75,0 -2.75,0 z"
         inkscape:connector-curvature="0" />
    </g>
    <g
       id="g10712"
       style="fill:#000000;fill-rule:evenodd;stroke:none;stroke-width:0.5pt;stroke-linecap:butt;stroke-linejoin:miter;stroke-dasharray:none"
       transform="translate(30.8604,182.9)">
      <path
         id="path10714"
         d="m 4.8994,0 c 0.0205,0.09 0.0205,0.13 0.0205,0.18 0,0.29 -0.1504,0.45 -0.4102,0.45 0,0 -3.0801,0 -3.0801,0 C 0.5,0.63 0,1.31 0,2.6 0,3.36 0.2197,3.99 0.6093,4.34 0.8798,4.58 1.1796,4.68 1.6992,4.7 c 0,0 0,-0.84 0,-0.84 C 1.0595,3.79 0.7695,3.41 0.7695,2.63 c 0,-0.75 0.2803,-1.17 0.7803,-1.17 0,0 0.2197,0 0.2197,0 0.3506,0 0.5,0.21 0.5801,0.87 C 2.5,3.51 2.54,3.69 2.6699,4.01 2.9199,4.62 3.3896,4.93 4.0693,4.93 5.0195,4.93 5.6201,4.27 5.6201,3.21 5.6201,2.55 5.3896,2.02 4.8496,1.43 5.3798,1.37 5.6201,1.11 5.6201,0.57 5.6201,0.4 5.5996,0.27 5.5292,0 c 0,0 -0.6298,0 -0.6298,0 z M 3.7392,1.46 c 0.2803,0 0.4502,0.08 0.6807,0.33 0.3095,0.34 0.4697,0.75 0.4697,1.24 0,0.65 -0.3096,1.03 -0.8398,1.03 C 3.5,4.06 3.2197,3.69 3.0898,2.8 2.9697,1.92 2.9296,1.74 2.7998,1.46 c 0,0 0.9394,0 0.9394,0 z"
         inkscape:connector-curvature="0" />
    </g>
    <g
       id="g10716"
       style="fill:#000000;fill-rule:evenodd;stroke:none;stroke-width:0.5pt;stroke-linecap:butt;stroke-linejoin:miter;stroke-dasharray:none"
       transform="translate(30.8604,175.13)">
      <path
         id="path10718"
         d="m 0.1494,6.92 c 0,0 5.2402,0 5.2402,0 0,0 0,-0.84 0,-0.84 0,0 -3.29,0 -3.29,0 -0.7598,0 -1.3702,-0.55 -1.3702,-1.23 0,-0.62 0.3799,-0.97 1.0498,-0.97 0,0 3.6104,0 3.6104,0 0,0 0,-0.84 0,-0.84 0,0 -3.29,0 -3.29,0 -0.7598,0 -1.3702,-0.55 -1.3702,-1.23 0,-0.61 0.3907,-0.97 1.0498,-0.97 0,0 3.6104,0 3.6104,0 0,0 0,-0.84 0,-0.84 0,0 -3.9297,0 -3.9297,0 C 0.5195,0 0,0.54 0,1.52 0,2.22 0.2099,2.641 0.7998,3.13 0.2392,3.44 0,3.86 0,4.54 c 0,0.7 0.2597,1.16 0.8896,1.61 0,0 -0.7402,0 -0.7402,0 0,0 0,0.77 0,0.77 z"
         inkscape:connector-curvature="0" />
    </g>
    <g
       id="g10720"
       style="fill:#000000;fill-rule:evenodd;stroke:none;stroke-width:0.5pt;stroke-linecap:butt;stroke-linejoin:miter;stroke-dasharray:none"
       transform="translate(30.8604,169.271)">
      <path
         id="path10722"
         d="m 7.5693,4.689 c 0,0 0,-0.84 0,-0.84 0,0 -2.7295,0 -2.7295,0 0.54,-0.44 0.7803,-0.93 0.7803,-1.61 C 5.6201,0.889 4.5292,0 2.8593,0 1.0996,0 0,0.859 0,2.249 c 0,0.71 0.3193,1.28 0.9394,1.67 0,0 -0.79,0 -0.79,0 0,0 0,0.77 0,0.77 0,0 7.4199,0 7.4199,0 z m -6.7901,-2.3 c 0,-0.92 0.8106,-1.52 2.0606,-1.52 1.1894,0 2,0.61 2,1.52 0,0.88 -0.7998,1.46 -2.0303,1.46 -1.2295,0 -2.0303,-0.58 -2.0303,-1.46 z"
         inkscape:connector-curvature="0" />
    </g>
    <g
       id="g10724"
       style="fill:#000000;fill-rule:evenodd;stroke:none;stroke-width:0.5pt;stroke-linecap:butt;stroke-linejoin:miter;stroke-dasharray:none"
       transform="translate(28.96,167.48)">
      <path
         id="path10726"
         d="m 0,0 c 0,0 0,0.84 0,0.84 0,0 7.29,0 7.29,0 0,0 0,-0.84 0,-0.84 C 7.29,0 0,0 0,0 Z"
         inkscape:connector-curvature="0" />
    </g>
    <g
       id="g10728"
       style="fill:#000000;fill-rule:evenodd;stroke:none;stroke-width:0.5pt;stroke-linecap:butt;stroke-linejoin:miter;stroke-dasharray:none"
       transform="translate(28.96,165.25)">
      <path
         id="path10730"
         d="m 2.0498,0 c 0,0 0,0.83 0,0.83 0,0 5.2402,0 5.2402,0 0,0 0,-0.83 0,-0.83 0,0 -5.2402,0 -5.2402,0 z M 0,0 c 0,0 0,0.84 0,0.84 0,0 1.0498,0 1.0498,0 0,0 0,-0.84 0,-0.84 C 1.0498,0 0,0 0,0 Z"
         inkscape:connector-curvature="0" />
    </g>
    <g
       id="g10732"
       style="fill:#000000;fill-rule:evenodd;stroke:none;stroke-width:0.5pt;stroke-linecap:butt;stroke-linejoin:miter;stroke-dasharray:none"
       transform="translate(29.5703,161.96)">
      <path
         id="path10734"
         d="m 1.4395,0 c 0,0 0,0.86 0,0.86 0,0 -1.4395,0 -1.4395,0 0,0 0,0.83 0,0.83 0,0 1.4395,0 1.4395,0 0,0 0,0.71 0,0.71 0,0 0.6806,0 0.6806,0 0,0 0,-0.71 0,-0.71 0,0 3.96,0 3.96,0 0.5293,0 0.8301,-0.36 0.8301,-1.01 0,-0.2 -0.0205,-0.4 -0.0703,-0.68 0,0 -0.7002,0 -0.7002,0 0.0302,0.11 0.04,0.24 0.04,0.4 0,0.36 -0.0996,0.46 -0.4697,0.46 0,0 -3.5899,0 -3.5899,0 0,0 0,-0.86 0,-0.86 0,0 -0.6806,0 -0.6806,0 z"
         inkscape:connector-curvature="0" />
    </g>
    <g
       id="g10736"
       style="fill:#000000;fill-rule:evenodd;stroke:none;stroke-width:0.5pt;stroke-linecap:butt;stroke-linejoin:miter;stroke-dasharray:none"
       transform="translate(31.0098,156.93)">
      <path
         id="path10738"
         d="M 5.2402,0 C 5.2402,0 0,0 0,0 c 0,0 0,0.83 0,0.83 0,0 2.9707,0 2.9707,0 1.0693,0 1.7695,0.56 1.7695,1.43 0,0.66 -0.4004,1.08 -1.0303,1.08 0,0 -3.7099,0 -3.7099,0 0,0 0,0.83 0,0.83 0,0 4.04,0 4.04,0 0.8701,0 1.4307,-0.65 1.4307,-1.67 0,-0.77 -0.2705,-1.26 -0.961,-1.75 0,0 0.7305,0 0.7305,0 0,0 0,-0.75 0,-0.75 z"
         inkscape:connector-curvature="0" />
    </g>
    <g
       id="g10740"
       style="fill:#000000;fill-rule:evenodd;stroke:none;stroke-width:0.5pt;stroke-linecap:butt;stroke-linejoin:miter;stroke-dasharray:none"
       transform="translate(28.96,151.05)">
      <path
         id="path10742"
         d="m 0,0 c 0,0 0,0.83 0,0.83 0,0 2.7099,0 2.7099,0 -0.5303,0.35 -0.8095,0.91 -0.8095,1.61 0,1.36 1.0898,2.25 2.7597,2.25 1.7695,0 2.8604,-0.87 2.8604,-2.28 0,-0.72 -0.2705,-1.22 -0.9209,-1.67 0,0 0.6904,0 0.6904,0 0,0 0,-0.74 0,-0.74 C 7.29,0 0,0 0,0 Z m 2.6796,2.3 c 0,-0.9 0.8008,-1.47 2.0508,-1.47 1.21,0 2.0098,0.58 2.0098,1.46 0,0.92 -0.8106,1.53 -2.0303,1.53 C 3.4902,3.82 2.6796,3.21 2.6796,2.3 Z"
         inkscape:connector-curvature="0" />
    </g>
    <g
       id="g10744"
       style="fill:#000000;fill-rule:evenodd;stroke:none;stroke-width:0.5pt;stroke-linecap:butt;stroke-linejoin:miter;stroke-dasharray:none"
       transform="translate(30.8604,145.37)">
      <path
         id="path10746"
         d="M 3.0498,0 C 2.25,0 1.7695,0.06 1.3798,0.21 0.5195,0.55 0,1.35 0,2.33 c 0,1.46 1.1201,2.4 2.8398,2.4 1.7197,0 2.7803,-0.91 2.7803,-2.38 0,-1.2 -0.6807,-2.03 -1.8203,-2.24 0,0 0,0.84 0,0.84 0.6894,0.23 1.0498,0.7 1.0498,1.37 0,0.53 -0.2403,0.98 -0.6797,1.26 -0.2998,0.2 -0.6006,0.27 -1.1201,0.28 0,0 0,-3.86 0,-3.86 z M 2.3701,3.84 C 1.3994,3.77 0.7695,3.18 0.7695,2.34 c 0,-0.82 0.6797,-1.45 1.54,-1.45 0.0205,0 0.0401,0 0.0606,0.01 0,0 0,2.94 0,2.94 z"
         inkscape:connector-curvature="0" />
    </g>
    <g
       id="g10748"
       style="fill:#000000;fill-rule:evenodd;stroke:none;stroke-width:0.5pt;stroke-linecap:butt;stroke-linejoin:miter;stroke-dasharray:none"
       transform="translate(220.34,326.36)">
      <path
         id="path10750"
         d="M 4.04,1.61 C 4.03,0.58 3.35,0 2.14,0 0.92,0 0.13,0.63 0.13,1.6 c 0,0.82 0.42,1.21 1.66,1.51 0,0 0.78,0.19 0.78,0.19 0.58,0.14 0.81,0.35 0.81,0.73 0,0.49 -0.49,0.82 -1.22,0.82 C 1.71,4.85 1.33,4.72 1.12,4.5 0.99,4.35 0.93,4.2 0.88,3.83 c 0,0 -0.88,0 -0.88,0 0.04,1.21 0.72,1.79 2.09,1.79 1.32,0 2.16,-0.65 2.16,-1.66 C 4.25,3.18 3.81,2.75 2.77,2.5 2.77,2.5 1.97,2.31 1.97,2.31 1.29,2.15 1,1.93 1,1.56 1,1.08 1.43,0.77 2.11,0.77 c 0.67,0 1.03,0.29 1.05,0.84 0,0 0.88,0 0.88,0 z"
         inkscape:connector-curvature="0" />
    </g>
    <g
       id="g10752"
       style="fill:#000000;fill-rule:evenodd;stroke:none;stroke-width:0.5pt;stroke-linecap:butt;stroke-linejoin:miter;stroke-dasharray:none"
       transform="translate(225.42,326.36)">
      <path
         id="path10754"
         d="M 4.93,4.9 C 4.84,4.92 4.8,4.92 4.75,4.92 4.46,4.92 4.3,4.77 4.3,4.51 c 0,0 0,-3.08 0,-3.08 C 4.3,0.5 3.62,0 2.33,0 1.57,0 0.94,0.22 0.59,0.61 0.35,0.88 0.25,1.18 0.23,1.7 c 0,0 0.84,0 0.84,0 0.07,-0.64 0.45,-0.93 1.23,-0.93 0.75,0 1.17,0.28 1.17,0.78 0,0 0,0.22 0,0.22 0,0.35 -0.21,0.5 -0.87,0.58 C 1.42,2.5 1.24,2.54 0.92,2.67 0.31,2.92 0,3.39 0,4.07 c 0,0.95 0.66,1.55 1.72,1.55 0.66,0 1.19,-0.23 1.78,-0.77 0.06,0.53 0.32,0.77 0.86,0.77 0.17,0 0.3,-0.02 0.57,-0.09 0,0 0,-0.63 0,-0.63 z M 3.47,3.74 C 3.47,4.02 3.39,4.19 3.14,4.42 2.8,4.73 2.39,4.89 1.9,4.89 1.25,4.89 0.87,4.58 0.87,4.05 0.87,3.5 1.24,3.22 2.13,3.09 3.01,2.97 3.19,2.93 3.47,2.8 c 0,0 0,0.94 0,0.94 z"
         inkscape:connector-curvature="0" />
    </g>
    <g
       id="g10756"
       style="fill:#000000;fill-rule:evenodd;stroke:none;stroke-width:0.5pt;stroke-linecap:butt;stroke-linejoin:miter;stroke-dasharray:none"
       transform="translate(231.2,326.36)">
      <path
         id="path10758"
         d="m 0,0.15 c 0,0 0,5.24 0,5.24 0,0 0.84,0 0.84,0 0,0 0,-3.29 0,-3.29 0,-0.76 0.55,-1.37 1.23,-1.37 0.62,0 0.97,0.38 0.97,1.05 0,0 0,3.61 0,3.61 0,0 0.84,0 0.84,0 0,0 0,-3.29 0,-3.29 0,-0.76 0.55,-1.37 1.23,-1.37 0.61,0 0.97,0.39 0.97,1.05 0,0 0,3.61 0,3.61 0,0 0.84,0 0.84,0 0,0 0,-3.93 0,-3.93 C 6.92,0.52 6.38,0 5.4,0 4.7,0 4.28,0.21 3.79,0.8 3.48,0.24 3.06,0 2.38,0 1.68,0 1.22,0.26 0.77,0.89 c 0,0 0,-0.74 0,-0.74 0,0 -0.77,0 -0.77,0 z"
         inkscape:connector-curvature="0" />
    </g>
    <g
       id="g10760"
       style="fill:#000000;fill-rule:evenodd;stroke:none;stroke-width:0.5pt;stroke-linecap:butt;stroke-linejoin:miter;stroke-dasharray:none"
       transform="translate(239.54,326.36)">
      <path
         id="path10762"
         d="m 0,7.57 c 0,0 0.84,0 0.84,0 0,0 0,-2.73 0,-2.73 C 1.28,5.38 1.77,5.62 2.45,5.62 3.8,5.62 4.69,4.53 4.69,2.86 4.69,1.1 3.83,0 2.44,0 1.73,0 1.16,0.32 0.77,0.94 c 0,0 0,-0.79 0,-0.79 0,0 -0.77,0 -0.77,0 0,0 0,7.42 0,7.42 z M 2.3,0.78 c 0.92,0 1.52,0.81 1.52,2.06 0,1.19 -0.61,2 -1.52,2 -0.88,0 -1.46,-0.8 -1.46,-2.03 0,-1.23 0.58,-2.03 1.46,-2.03 z"
         inkscape:connector-curvature="0" />
    </g>
    <g
       id="g10764"
       style="fill:#000000;fill-rule:evenodd;stroke:none;stroke-width:0.5pt;stroke-linecap:butt;stroke-linejoin:miter;stroke-dasharray:none"
       transform="translate(245.18,324.46)">
      <path
         id="path10766"
         d="M 0.84,0 C 0.84,0 0,0 0,0 c 0,0 0,7.29 0,7.29 0,0 0.84,0 0.84,0 0,0 0,-7.29 0,-7.29 z"
         inkscape:connector-curvature="0" />
    </g>
    <g
       id="g10768"
       style="fill:#000000;fill-rule:evenodd;stroke:none;stroke-width:0.5pt;stroke-linecap:butt;stroke-linejoin:miter;stroke-dasharray:none"
       transform="translate(247.15,326.36)">
      <path
         id="path10770"
         d="M 4.73,3.05 C 4.73,2.25 4.67,1.77 4.52,1.38 4.18,0.52 3.38,0 2.4,0 0.94,0 0,1.12 0,2.84 c 0,1.72 0.91,2.78 2.38,2.78 1.2,0 2.03,-0.68 2.24,-1.82 0,0 -0.84,0 -0.84,0 C 3.55,4.49 3.08,4.85 2.41,4.85 1.88,4.85 1.43,4.61 1.15,4.17 0.95,3.87 0.88,3.57 0.87,3.05 c 0,0 3.86,0 3.86,0 z M 0.89,2.37 c 0.07,-0.97 0.66,-1.6 1.5,-1.6 0.82,0 1.45,0.68 1.45,1.54 0,0.02 0,0.04 -0.01,0.06 0,0 -2.94,0 -2.94,0 z"
         inkscape:connector-curvature="0" />
    </g>
    <g
       id="g10772"
       style="fill:#000000;fill-rule:evenodd;stroke:none;stroke-width:0.5pt;stroke-linecap:butt;stroke-linejoin:miter;stroke-dasharray:none"
       transform="translate(252.59,326.36)">
      <path
         id="path10774"
         d="M 4.04,1.61 C 4.03,0.58 3.35,0 2.14,0 0.92,0 0.13,0.63 0.13,1.6 c 0,0.82 0.42,1.21 1.66,1.51 0,0 0.78,0.19 0.78,0.19 0.58,0.14 0.81,0.35 0.81,0.73 0,0.49 -0.49,0.82 -1.22,0.82 C 1.71,4.85 1.33,4.72 1.12,4.5 0.99,4.35 0.93,4.2 0.88,3.83 c 0,0 -0.88,0 -0.88,0 0.04,1.21 0.72,1.79 2.09,1.79 1.32,0 2.16,-0.65 2.16,-1.66 C 4.25,3.18 3.81,2.75 2.77,2.5 2.77,2.5 1.97,2.31 1.97,2.31 1.29,2.15 1,1.93 1,1.56 1,1.08 1.43,0.77 2.11,0.77 c 0.67,0 1.03,0.29 1.05,0.84 0,0 0.88,0 0.88,0 z"
         inkscape:connector-curvature="0" />
    </g>
    <g
       id="g10776"
       style="fill:#000000;fill-rule:evenodd;stroke:none;stroke-width:0.5pt;stroke-linecap:butt;stroke-linejoin:miter;stroke-dasharray:none"
       transform="translate(185.97,10.71)">
      <path
         id="path10778"
         d="M 7.22,7.29 C 7.22,7.29 9.07,0 9.07,0 9.07,0 8.03,0 8.03,0 8.03,0 6.69,5.9199 6.69,5.9199 6.69,5.9199 5.03,0 5.03,0 c 0,0 -1,0 -1,0 0,0 -1.62,5.9199 -1.62,5.9199 C 2.41,5.9199 1.04,0 1.04,0 1.04,0 0,0 0,0 c 0,0 1.87,7.29 1.87,7.29 0,0 1.02,0 1.02,0 0,0 1.63,-5.9902 1.63,-5.9902 0,0 1.68,5.9902 1.68,5.9902 0,0 1.02,0 1.02,0 z"
         inkscape:connector-curvature="0" />
    </g>
    <g
       id="g10780"
       style="fill:#000000;fill-rule:evenodd;stroke:none;stroke-width:0.5pt;stroke-linecap:butt;stroke-linejoin:miter;stroke-dasharray:none"
       transform="translate(195.66,10.71)">
      <path
         id="path10782"
         d="m 0.84,2.0498 c 0,0 -0.83,0 -0.83,0 0,0 0,5.2402 0,5.2402 0,0 0.83,0 0.83,0 0,0 0,-5.2402 0,-5.2402 z M 0.84,0 C 0.84,0 0,0 0,0 c 0,0 0,1.0498 0,1.0498 0,0 0.84,0 0.84,0 0,0 0,-1.0498 0,-1.0498 z"
         inkscape:connector-curvature="0" />
    </g>
    <g
       id="g10784"
       style="fill:#000000;fill-rule:evenodd;stroke:none;stroke-width:0.5pt;stroke-linecap:butt;stroke-linejoin:miter;stroke-dasharray:none"
       transform="translate(197.95,12.6104)">
      <path
         id="path10786"
         d="m 0,0.1494 c 0,0 0,5.2402 0,5.2402 0,0 0.84,0 0.84,0 0,0 0,-2.8896 0,-2.8896 0,-1.0704 0.56,-1.7706 1.42,-1.7706 0.66,0 1.08,0.4004 1.08,1.0303 0,0 0,3.6299 0,3.6299 0,0 0.83,0 0.83,0 0,0 0,-3.96 0,-3.96 C 4.17,0.5595 3.52,0 2.51,0 1.73,0 1.23,0.2998 0.77,1.0292 c 0,0 0,-0.8798 0,-0.8798 0,0 -0.77,0 -0.77,0 z"
         inkscape:connector-curvature="0" />
    </g>
    <g
       id="g10788"
       style="fill:#000000;fill-rule:evenodd;stroke:none;stroke-width:0.5pt;stroke-linecap:butt;stroke-linejoin:miter;stroke-dasharray:none"
       transform="translate(203.26,10.71)">
      <path
         id="path10790"
         d="m 4.69,0 c 0,0 -0.83,0 -0.83,0 0,0 0,2.7099 0,2.7099 C 3.51,2.1796 2.95,1.9004 2.25,1.9004 0.89,1.9004 0,2.9902 0,4.6601 0,6.4296 0.87,7.5205 2.28,7.5205 3,7.5205 3.5,7.25 3.95,6.5996 c 0,0 0,0.6904 0,0.6904 0,0 0.74,0 0.74,0 0,0 0,-7.29 0,-7.29 z m -2.3,2.6796 c 0.9,0 1.47,0.8008 1.47,2.0508 0,1.21 -0.58,2.0098 -1.46,2.0098 -0.92,0 -1.53,-0.8106 -1.53,-2.0303 0,-1.2197 0.61,-2.0303 1.52,-2.0303 z"
         inkscape:connector-curvature="0" />
    </g>
    <g
       id="g10792"
       style="fill:#000000;fill-rule:evenodd;stroke:none;stroke-width:0.5pt;stroke-linecap:butt;stroke-linejoin:miter;stroke-dasharray:none"
       transform="translate(208.86,12.6104)">
      <path
         id="path10794"
         d="M 2.36,0 C 0.89,0 0,1.0498 0,2.8095 0,4.5693 0.88,5.6201 2.37,5.6201 3.84,5.6201 4.74,4.5693 4.74,2.8496 4.74,1.04 3.87,0 2.36,0 Z m 0.01,0.7695 c 0.94,0 1.5,0.7705 1.5,2.0703 0,1.2295 -0.58,2.0098 -1.5,2.0098 -0.93,0 -1.5,-0.7696 -1.5,-2.0401 0,-1.2597 0.57,-2.04 1.5,-2.04 z"
         inkscape:connector-curvature="0" />
    </g>
    <g
       id="g10796"
       style="fill:#000000;fill-rule:evenodd;stroke:none;stroke-width:0.5pt;stroke-linecap:butt;stroke-linejoin:miter;stroke-dasharray:none"
       transform="translate(214.06,12.7598)">
      <path
         id="path10798"
         d="M 5.48,5.2402 C 5.48,5.2402 7.02,0 7.02,0 7.02,0 6.08,0 6.08,0 6.08,0 5.04,4.08 5.04,4.08 5.04,4.08 4.01,0 4.01,0 c 0,0 -1.02,0 -1.02,0 0,0 -1,4.08 -1,4.08 C 1.99,4.08 0.92,0 0.92,0 0.92,0 0,0 0,0 c 0,0 1.52,5.2402 1.52,5.2402 0,0 0.94,0 0.94,0 0,0 1.01,-4.1104 1.01,-4.1104 0,0 1.06,4.1104 1.06,4.1104 0,0 0.95,0 0.95,0 z"
         inkscape:connector-curvature="0" />
    </g>
    <g
       id="g10800"
       style="fill:#000000;fill-rule:evenodd;stroke:none;stroke-width:0.5pt;stroke-linecap:butt;stroke-linejoin:miter;stroke-dasharray:none"
       transform="translate(224.18,10.6797)">
      <path
         id="path10802"
         d="m 2.4,2.0801 c 0,0 -0.87,0 -0.87,0 0,0 0,-0.8194 0,-0.8194 0,-0.3506 0.2,-0.5302 0.58,-0.5302 0.07,0 0.1,0 0.29,0.0097 0,0 0,-0.6894 0,-0.6894 C 2.21,0.0107 2.1,0 1.93,0 1.16,0 0.7,0.4404 0.7,1.1904 c 0,0 0,0.8897 0,0.8897 0,0 -0.7,0 -0.7,0 0,0 0,0.6806 0,0.6806 0,0 0.7,0 0.7,0 0,0 0,4.5596 0,4.5596 0,0 0.83,0 0.83,0 0,0 0,-4.5596 0,-4.5596 0,0 0.87,0 0.87,0 0,0 0,-0.6806 0,-0.6806 z"
         inkscape:connector-curvature="0" />
    </g>
    <g
       id="g10804"
       style="fill:#000000;fill-rule:evenodd;stroke:none;stroke-width:0.5pt;stroke-linecap:butt;stroke-linejoin:miter;stroke-dasharray:none"
       transform="translate(227.4,12.7598)">
      <path
         id="path10806"
         d="m 4.17,5.2402 c 0,0 0,-5.2402 0,-5.2402 0,0 -0.83,0 -0.83,0 0,0 0,2.9707 0,2.9707 0,1.0693 -0.56,1.7695 -1.43,1.7695 -0.66,0 -1.08,-0.4004 -1.08,-1.0303 0,0 0,-3.7099 0,-3.7099 C 0.83,0 0,0 0,0 c 0,0 0,4.04 0,4.04 0,0.8701 0.65,1.4307 1.67,1.4307 0.77,0 1.26,-0.2705 1.75,-0.961 0,0 0,0.7305 0,0.7305 0,0 0.75,0 0.75,0 z"
         inkscape:connector-curvature="0" />
    </g>
    <g
       id="g10808"
       style="fill:#000000;fill-rule:evenodd;stroke:none;stroke-width:0.5pt;stroke-linecap:butt;stroke-linejoin:miter;stroke-dasharray:none"
       transform="translate(232.95,12.6104)">
      <path
         id="path10810"
         d="m 0,0.1494 c 0,0 0,5.2402 0,5.2402 0,0 0.84,0 0.84,0 0,0 0,-2.8896 0,-2.8896 0,-1.0704 0.56,-1.7706 1.42,-1.7706 0.66,0 1.08,0.4004 1.08,1.0303 0,0 0,3.6299 0,3.6299 0,0 0.83,0 0.83,0 0,0 0,-3.96 0,-3.96 C 4.17,0.5595 3.52,0 2.51,0 1.73,0 1.23,0.2998 0.77,1.0292 c 0,0 0,-0.8798 0,-0.8798 0,0 -0.77,0 -0.77,0 z"
         inkscape:connector-curvature="0" />
    </g>
    <g
       id="g10812"
       style="fill:#000000;fill-rule:evenodd;stroke:none;stroke-width:0.5pt;stroke-linecap:butt;stroke-linejoin:miter;stroke-dasharray:none"
       transform="translate(238.31,12.6104)">
      <path
         id="path10814"
         d="M 4.4,1.9091 C 4.36,1.3994 4.25,1.0693 4.05,0.7792 3.69,0.29 3.06,0 2.33,0 0.92,0 0,1.1201 0,2.8593 c 0,1.6905 0.9,2.7608 2.32,2.7608 1.25,0 2.04,-0.75 2.14,-2.0303 0,0 -0.84,0 -0.84,0 -0.14,0.8398 -0.57,1.2598 -1.28,1.2598 -0.92,0 -1.47,-0.75 -1.47,-1.9903 0,-1.3095 0.54,-2.0898 1.45,-2.0898 0.7,0 1.14,0.4101 1.24,1.1396 0,0 0.84,0 0.84,0 z"
         inkscape:connector-curvature="0" />
    </g>
    <g
       id="g10816"
       style="fill:#000000;fill-rule:evenodd;stroke:none;stroke-width:0.5pt;stroke-linecap:butt;stroke-linejoin:miter;stroke-dasharray:none"
       transform="translate(243.14,11.3203)">
      <path
         id="path10818"
         d="m 2.4,1.4395 c 0,0 -0.86,0 -0.86,0 0,0 0,-1.4395 0,-1.4395 0,0 -0.83,0 -0.83,0 0,0 0,1.4395 0,1.4395 0,0 -0.71,0 -0.71,0 0,0 0,0.6806 0,0.6806 0,0 0.71,0 0.71,0 0,0 0,3.96 0,3.96 0,0.5293 0.36,0.8301 1.01,0.8301 0.2,0 0.4,-0.0205 0.68,-0.0703 0,0 0,-0.7002 0,-0.7002 -0.11,0.0302 -0.24,0.04 -0.4,0.04 -0.36,0 -0.46,-0.0996 -0.46,-0.4697 0,0 0,-3.5899 0,-3.5899 0,0 0.86,0 0.86,0 0,0 0,-0.6806 0,-0.6806 z"
         inkscape:connector-curvature="0" />
    </g>
    <g
       id="g10820"
       style="fill:#000000;fill-rule:evenodd;stroke:none;stroke-width:0.5pt;stroke-linecap:butt;stroke-linejoin:miter;stroke-dasharray:none"
       transform="translate(246.41,10.71)">
      <path
         id="path10822"
         d="m 0.84,2.0498 c 0,0 -0.83,0 -0.83,0 0,0 0,5.2402 0,5.2402 0,0 0.83,0 0.83,0 0,0 0,-5.2402 0,-5.2402 z M 0.84,0 C 0.84,0 0,0 0,0 c 0,0 0,1.0498 0,1.0498 0,0 0.84,0 0.84,0 0,0 0,-1.0498 0,-1.0498 z"
         inkscape:connector-curvature="0" />
    </g>
    <g
       id="g10824"
       style="fill:#000000;fill-rule:evenodd;stroke:none;stroke-width:0.5pt;stroke-linecap:butt;stroke-linejoin:miter;stroke-dasharray:none"
       transform="translate(248.36,12.6104)">
      <path
         id="path10826"
         d="M 2.36,0 C 0.89,0 0,1.0498 0,2.8095 0,4.5693 0.88,5.6201 2.37,5.6201 3.84,5.6201 4.74,4.5693 4.74,2.8496 4.74,1.04 3.87,0 2.36,0 Z m 0.01,0.7695 c 0.94,0 1.5,0.7705 1.5,2.0703 0,1.2295 -0.58,2.0098 -1.5,2.0098 -0.93,0 -1.5,-0.7696 -1.5,-2.0401 0,-1.2597 0.57,-2.04 1.5,-2.04 z"
         inkscape:connector-curvature="0" />
    </g>
    <g
       id="g10828"
       style="fill:#000000;fill-rule:evenodd;stroke:none;stroke-width:0.5pt;stroke-linecap:butt;stroke-linejoin:miter;stroke-dasharray:none"
       transform="translate(254.2,12.6104)">
      <path
         id="path10830"
         d="m 0,0.1494 c 0,0 0,5.2402 0,5.2402 0,0 0.84,0 0.84,0 0,0 0,-2.8896 0,-2.8896 0,-1.0704 0.56,-1.7706 1.42,-1.7706 0.66,0 1.08,0.4004 1.08,1.0303 0,0 0,3.6299 0,3.6299 0,0 0.83,0 0.83,0 0,0 0,-3.96 0,-3.96 C 4.17,0.5595 3.52,0 2.51,0 1.73,0 1.23,0.2998 0.77,1.0292 c 0,0 0,-0.8798 0,-0.8798 0,0 -0.77,0 -0.77,0 z"
         inkscape:connector-curvature="0" />
    </g>
    <g
       id="g10832"
       style="fill:#000000;fill-rule:evenodd;stroke:none;stroke-width:0.5pt;stroke-linecap:butt;stroke-linejoin:miter;stroke-dasharray:none"
       transform="translate(262.48,10.71)">
      <path
         id="path10834"
         d="M 1.63,0 C 0.63,1.3105 0,3.1298 0,4.7002 c 0,1.58 0.63,3.3994 1.63,4.7099 0,0 0.55,0 0.55,0 C 1.3,7.9804 0.81,6.2998 0.81,4.7002 0.81,3.1103 1.3,1.4199 2.18,0 2.18,0 1.63,0 1.63,0 Z"
         inkscape:connector-curvature="0" />
    </g>
    <g
       id="g10836"
       style="fill:#000000;fill-rule:evenodd;stroke:none;stroke-width:0.5pt;stroke-linecap:butt;stroke-linejoin:miter;stroke-dasharray:none"
       transform="translate(266.08,10.71)">
      <path
         id="path10838"
         d="m 4.68,3.9697 c 0,0 0,3.3203 0,3.3203 0,0 0.93,0 0.93,0 0,0 0,-7.29 0,-7.29 0,0 -0.93,0 -0.93,0 0,0 0,3.1504 0,3.1504 0,0 -3.75,0 -3.75,0 0,0 0,-3.1504 0,-3.1504 C 0.93,0 0,0 0,0 c 0,0 0,7.29 0,7.29 0,0 0.94,0 0.94,0 0,0 0,-3.3203 0,-3.3203 0,0 3.74,0 3.74,0 z"
         inkscape:connector-curvature="0" />
    </g>
    <g
       id="g10840"
       style="fill:#000000;fill-rule:evenodd;stroke:none;stroke-width:0.5pt;stroke-linecap:butt;stroke-linejoin:miter;stroke-dasharray:none"
       transform="translate(272.67,12.6104)">
      <path
         id="path10842"
         d="M 4.93,4.8994 C 4.84,4.9199 4.8,4.9199 4.75,4.9199 4.46,4.9199 4.3,4.7695 4.3,4.5097 c 0,0 0,-3.0801 0,-3.0801 C 4.3,0.5 3.62,0 2.33,0 1.57,0 0.94,0.2197 0.59,0.6093 0.35,0.8798 0.25,1.1796 0.23,1.6992 c 0,0 0.84,0 0.84,0 0.07,-0.6397 0.45,-0.9297 1.23,-0.9297 0.75,0 1.17,0.2803 1.17,0.7803 0,0 0,0.2197 0,0.2197 0,0.3506 -0.21,0.5 -0.87,0.5801 C 1.42,2.5 1.24,2.54 0.92,2.6699 0.31,2.9199 0,3.3896 0,4.0693 c 0,0.9502 0.66,1.5508 1.72,1.5508 0.66,0 1.19,-0.2305 1.78,-0.7705 0.06,0.5302 0.32,0.7705 0.86,0.7705 0.17,0 0.3,-0.0205 0.57,-0.0909 0,0 0,-0.6298 0,-0.6298 z M 3.47,3.7392 C 3.47,4.0195 3.39,4.1894 3.14,4.4199 2.8,4.7294 2.39,4.8896 1.9,4.8896 1.25,4.8896 0.87,4.58 0.87,4.0498 0.87,3.5 1.24,3.2197 2.13,3.0898 3.01,2.9697 3.19,2.9296 3.47,2.7998 c 0,0 0,0.9394 0,0.9394 z"
         inkscape:connector-curvature="0" />
    </g>
    <g
       id="g10844"
       style="fill:#000000;fill-rule:evenodd;stroke:none;stroke-width:0.5pt;stroke-linecap:butt;stroke-linejoin:miter;stroke-dasharray:none"
       transform="translate(278.7,12.6104)">
      <path
         id="path10846"
         d="m 0,0.1494 c 0,0 0,5.2402 0,5.2402 0,0 0.84,0 0.84,0 0,0 0,-2.8896 0,-2.8896 0,-1.0704 0.56,-1.7706 1.42,-1.7706 0.66,0 1.08,0.4004 1.08,1.0303 0,0 0,3.6299 0,3.6299 0,0 0.83,0 0.83,0 0,0 0,-3.96 0,-3.96 C 4.17,0.5595 3.52,0 2.51,0 1.73,0 1.23,0.2998 0.77,1.0292 c 0,0 0,-0.8798 0,-0.8798 0,0 -0.77,0 -0.77,0 z"
         inkscape:connector-curvature="0" />
    </g>
    <g
       id="g10848"
       style="fill:#000000;fill-rule:evenodd;stroke:none;stroke-width:0.5pt;stroke-linecap:butt;stroke-linejoin:miter;stroke-dasharray:none"
       transform="translate(284.2,12.6104)">
      <path
         id="path10850"
         d="m 0,0.1494 c 0,0 0,5.2402 0,5.2402 0,0 0.84,0 0.84,0 0,0 0,-2.8896 0,-2.8896 0,-1.0704 0.56,-1.7706 1.42,-1.7706 0.66,0 1.08,0.4004 1.08,1.0303 0,0 0,3.6299 0,3.6299 0,0 0.83,0 0.83,0 0,0 0,-3.96 0,-3.96 C 4.17,0.5595 3.52,0 2.51,0 1.73,0 1.23,0.2998 0.77,1.0292 c 0,0 0,-0.8798 0,-0.8798 0,0 -0.77,0 -0.77,0 z"
         inkscape:connector-curvature="0" />
    </g>
    <g
       id="g10852"
       style="fill:#000000;fill-rule:evenodd;stroke:none;stroke-width:0.5pt;stroke-linecap:butt;stroke-linejoin:miter;stroke-dasharray:none"
       transform="translate(289.38,10.71)">
      <path
         id="path10854"
         d="M 0.55,9.4101 C 1.55,8.0996 2.18,6.2802 2.18,4.7099 2.18,3.1298 1.55,1.3105 0.55,0 0.55,0 0,0 0,0 0.88,1.4296 1.37,3.1103 1.37,4.7099 1.37,6.2998 0.88,7.9902 0,9.4101 c 0,0 0.55,0 0.55,0 z"
         inkscape:connector-curvature="0" />
    </g>
  </g>
</svg>
